<svg xmlns="http://www.w3.org/2000/svg" width="923" height="165"><g transform="translate(.5 .5)"><path d="M.16 52.99a6.39 6.39 0 0 1 1.75-4.98 6.19 6.19 0 0 1 4.85-1.9h47c3.34 0 6.1 2.67 6.24 6.06v78.13c-.18 2.71-2.05 5.01-4.64 5.7H4.98c-2.47-.55-4.37-2.55-4.82-5.07zm19.8-3.89c-.78.25-1.3.98-1.3 1.81 0 .82.52 1.55 1.3 1.81h20.51c.78-.26 1.3-.99 1.3-1.81 0-.83-.52-1.56-1.3-1.81zM6.14 55.43v65H54.2v-65zm19.17 70.61c-1.11 0-2.01.91-2.01 2.04 0 1.12.9 2.04 2.01 2.04h10.08c1.1 0 2-.92 2-2.04 0-1.13-.9-2.04-2-2.04z" fill="#00aeef" pointer-events="none"/><rect x="160" y="17" width="170" height="140" rx="21" ry="21" fill="#fff" stroke="#00aeef" stroke-width="5" pointer-events="none"/><rect x="450" y="17" width="170" height="140" rx="21" ry="21" fill="#fff" stroke="#00aeef" stroke-width="5" pointer-events="none"/><path d="M755 42c-44 0-55 40-19.8 48-35.2 17.6 4.4 56 33 40 19.8 32 85.8 32 107.8 0 44 0 44-32 16.5-48 27.5-32-16.5-64-55-48C810 10 766 10 755 42z" fill="#fff" stroke="#00aeef" stroke-width="5" stroke-miterlimit="10" pointer-events="none"/><path d="M60 61h91.76" fill="none" stroke="#000" stroke-width="2" stroke-miterlimit="10" pointer-events="none"/><path d="M157.76 61l-8 4 2-4-2-4z" stroke="#000" stroke-width="2" stroke-miterlimit="10" pointer-events="none"/><path d="M554.42 98.61v-5.52c0-1.95 1.65-3.83 3.81-3.83h2.42c1.35 2.44.88 4.74-.11 6.38-1.2 1.89-3.12 3.13-6.11 2.97zm-29.97 4.14h20.24v-2.26h-20.24zm0 6.03h20.24v-2.26h-20.24zm0 6.03h20.24v-2.26h-20.24zm-7.49 6.78V93.54c0-2.76 2.41-6.54 6.49-6.54h32.96c.38.01.71.05 1 .14-3.57.56-5.16 3.44-5.16 5.66v36.48c-.08 4.28-3.78 6.72-6.11 6.72-2.12 0-5.5-2.16-5.59-5.86.01-2.24.94-4.22 3.24-5.49.44-.27.69-.98.39-1.83-.35-.82-.95-1.15-1.66-1.23zm-2.15 14.33c-2.61 0-5.81-2.23-5.81-6.17 0-3.16 2.82-5.88 5.81-5.88h26.05c-1.28 1.38-2.41 2.94-2.55 5.83 0 2.86 1.07 4.72 2.54 6.22z" fill="#00aeef" pointer-events="none"/><path d="M331 57h108.76" fill="none" stroke="#000" stroke-width="2" stroke-miterlimit="10" pointer-events="none"/><path d="M445.76 57l-8 4 2-4-2-4z" stroke="#000" stroke-width="2" stroke-miterlimit="10" pointer-events="none"/><path d="M623 56h85.76" fill="none" stroke="#000" stroke-width="2" stroke-miterlimit="10" pointer-events="none"/><path d="M714.76 56l-8 4 2-4-2-4z" stroke="#000" stroke-width="2" stroke-miterlimit="10" pointer-events="none"/><path d="M724 122h-93.76" fill="none" stroke="#000" stroke-width="2" stroke-miterlimit="10" pointer-events="none"/><path d="M624.24 122l8-4-2 4 2 4z" stroke="#000" stroke-width="2" stroke-miterlimit="10" pointer-events="none"/><path d="M450 122H338.24" fill="none" stroke="#000" stroke-width="2" stroke-miterlimit="10" pointer-events="none"/><path d="M332.24 122l8-4-2 4 2 4z" stroke="#000" stroke-width="2" stroke-miterlimit="10" pointer-events="none"/><path d="M158 121H67.24" fill="none" stroke="#000" stroke-width="2" stroke-miterlimit="10" pointer-events="none"/><path d="M61.24 121l8-4-2 4 2 4z" stroke="#000" stroke-width="2" stroke-miterlimit="10" pointer-events="none"/><path d="M242.84 136L220 113.62v-2L247.16 85H270v24.37z" fill="#00aeef" pointer-events="none"/><path d="M238.94 117c0-.82-.57-1.75-1.78-1.75-.76 0-1.69.61-1.69 1.73 0 .84.69 1.67 1.77 1.67 1 0 1.7-.89 1.7-1.65zm11.68-17.06l2.98.7-.49 3.57-2.69.66-.49.8.01 1.42-2 1.6.35 1.31-2.76 2.72c.36.95.49 2.13.34 3.1-.36 2.71-2.69 5.66-6.67 5.62-3.34-.05-6.59-2.73-6.5-6.71.06-2.85 2.18-5.72 5.85-6.25 1.17-.15 2.14.03 3.03.33zm19.38 7.43v2L242.84 136 220 113.62v-2L242.84 134z" fill-opacity=".3" pointer-events="none"/><path d="M259.31 99.92c-2.14 0-4.53-1.6-4.53-4.55 0-2.12 1.84-4.33 4.44-4.33 2.87 0 4.61 2.23 4.61 4.34 0 2.81-2.22 4.54-4.52 4.54z" fill="#fff" pointer-events="none"/><text x="106.5" y="53.5" font-family="Open Sans" text-anchor="middle" font-size="12">1</text><text x="392.5" y="50.5" font-family="Open Sans" text-anchor="middle" font-size="12">2</text><text x="669.5" y="49.5" font-family="Open Sans" text-anchor="middle" font-size="12">3</text><text x="669.5" y="114.5" font-family="Open Sans" text-anchor="middle" font-size="12">4</text><text x="392.5" y="116.5" font-family="Open Sans" text-anchor="middle" font-size="12">5</text><text x="106.5" y="115.5" font-family="Open Sans" text-anchor="middle" font-size="12">6</text><text x="244.5" y="44" font-family="Open Sans" text-anchor="middle" font-size="16">OneWelcome Access</text><text x="534.5" y="47" font-family="Open Sans" text-anchor="middle" font-size="16">Extension Engine</text><text x="813.5" y="88" font-family="Open Sans" text-anchor="middle" font-size="16">Authentication API</text><path d="M535 50" fill="none" stroke="#000" stroke-width="2" stroke-miterlimit="10" pointer-events="none"/><path d="M535 50z" stroke="#000" stroke-width="2" stroke-miterlimit="10" pointer-events="none"/></g></svg>