<svg id="Layer_1" xmlns="http://www.w3.org/2000/svg" viewBox="0 0 992 158"><style>.st0{fill:#ffffff}</style><g id="Onegini_Orange_235-77-0"><path class="st0" d="M306 97.9l-92.5-71.3-25.7-19.7v143.4h25.7v-91l92.5 71.3 25.7 19.7V6.5L306 6.3zM366.4 45.1v66.2c0 21.4 17.3 38.8 38.6 38.8h105v-25.7H405c-7.2 0-13.2-6-13.2-13.2v-20h92.5v-26h-92.5v-20c0-7.2 6-13.2 13.2-13.2h105V6.3H405c-21.3 0-38.6 17.4-38.6 38.8zM530.3 78.2c0 39.7 32.3 71.9 71.9 71.9h71.9v-85h-71.9v26h46.2v33.2h-46.2c-25.5 0-46.2-20.8-46.2-46.2 0-25.5 20.8-46.2 46.2-46.2h71.9V6.2h-71.9c-39.6.1-71.9 32.3-71.9 72zM713.7 6.3h25.7v143.9h-25.7zM897.1 97.9l-92.5-71.3L779 6.9v143.4h25.6v-91l92.5 71.3 25.7 19.7V6.5l-25.7-.2zM962.4 6.3h25.7v143.9h-25.7zM79.7 3.4c-41.3 0-75 33.6-75 75 0 41.3 33.6 75 75 75 41.3 0 75-33.6 75-75s-33.7-75-75-75zm0 124c-27.1 0-49.1-22-49.1-49.1s22-49.1 49.1-49.1 49.1 22 49.1 49.1c0 27.2-22 49.1-49.1 49.1z"/></g></svg>