<svg width="171" height="87" viewBox="0 0 171 87" xmlns="http://www.w3.org/2000/svg"><title>Mobile Identity &amp; Access</title><path d="M127.683 65.172c-12.051 0-21.856-9.804-21.856-21.856 0-12.051 9.805-21.856 21.856-21.856 12.052 0 21.857 9.805 21.857 21.856 0 12.052-9.805 21.856-21.857 21.856m0-65.172c-20.18 0-37.18 13.874-41.968 32.584H66.857V12.45H46.251v20.134h-7.925V12.45H17.719v20.134H10.81C4.965 32.584.04 37.364 0 43.239c-.038 5.816 4.81 10.81 10.655 10.81h75.06c4.787 18.71 21.787 32.583 41.968 32.583 23.885 0 43.317-19.43 43.317-43.316C171 19.432 151.568 0 127.683 0" fill="#EB4D00" fill-rule="evenodd"/></svg>