<svg width="117" height="126" viewBox="0 0 117 126" xmlns="http://www.w3.org/2000/svg"><title>Onegini Security Proxy</title><path d="M111.66 20.857C87.273 18.573 67.372 5.524 60.81.75a3.9 3.9 0 0 0-4.6 0C49.662 5.524 29.76 18.573 5.373 20.857a5.774 5.774 0 0 0-5.24 5.658c-.296 19.26 2.793 84.646 56.91 99.196a5.69 5.69 0 0 0 2.935 0c54.117-14.537 57.205-79.937 56.923-99.196a5.764 5.764 0 0 0-5.24-5.658zM76.035 58.392h-1.037v-4.83c0-8.936-7.123-16.4-16.026-16.559-.244-.004-.73-.004-.973 0-8.903.16-16.026 7.623-16.026 16.558v4.83h-1.037c-1.598 0-2.902 1.642-2.902 3.67v24.228c0 2.025 1.304 3.682 2.902 3.682h35.099c1.598 0 2.901-1.657 2.901-3.682V62.06c0-2.027-1.303-3.668-2.901-3.668zM61.774 74.15v7.321c0 .839-.705 1.548-1.548 1.548h-3.48c-.844 0-1.549-.71-1.549-1.548v-7.32c-.817-.802-1.293-1.91-1.293-3.134 0-2.322 1.803-4.317 4.095-4.41.243-.01.73-.01.973 0 2.292.093 4.095 2.088 4.095 4.41 0 1.225-.476 2.332-1.293 3.133zm6.39-15.758H48.807v-4.83c0-5.323 4.346-9.724 9.678-9.724 5.333 0 9.679 4.4 9.679 9.723v4.83z" fill="#EB4D00" fill-rule="evenodd"/></svg>