<svg width="116" height="124" viewBox="0 0 116 124" xmlns="http://www.w3.org/2000/svg"><title>Onegini SDK</title><path d="M112.495 104.242L72.663 64.416a11.18 11.18 0 0 0-1.176-1.02l7.052-7.421a14.27 14.27 0 0 0 1.036-1.144 26.29 26.29 0 0 0 25.153-3.653 26.281 26.281 0 0 0 10.303-23.233 2.273 2.273 0 0 0-3.866-1.407L98.408 39.293 85.481 36.03l-3.664-13.327L94.573 9.949a2.272 2.272 0 0 0-1.407-3.865A26.288 26.288 0 0 0 69.93 16.433a26.28 26.28 0 0 0-3.59 25.179c-.387.325-.774.665-1.145 1.036l-10.36 10.034-19.081-19.125a6.989 6.989 0 0 0-.758-.65c.217-.386.449-.803.65-1.22 4.02.772 11.396-7.066 17.643-13.312L35.073.116c-8.15 8.148-14.087 13.605-13.314 17.64a17.798 17.798 0 0 0-4.639 3.2l-2.644 2.614a10.822 10.822 0 0 0-3.092 5.906c-.248.278-.495.587-.758.896l-.959 1.206-.139.186-.866 1.206c-.541.726-1.02 1.546-1.546 2.272l-.51.85-.078.14-.386.726c-.464.866-.944 1.778-1.361 2.768v.154a30.16 30.16 0 0 0-1.345 3.634l-.17.556c-.14.448-.279.897-.418 1.438l-.278 1.747a20.096 20.096 0 0 0-.433 3.092v.634a15.566 15.566 0 0 0 0 2.752v1.36c.002.414.033.828.093 1.237l.216 1.423c0 .278.093.54.124.804.07.59.184 1.173.34 1.747l.897 3.2a2.18 2.18 0 0 0 4.252-.294l.48-3.293c.06-.355.143-.706.247-1.051.077-.279.17-.572.232-.804l.34-1.222c.054-.17.121-.335.2-.494l.202-.464.325-.789a9.013 9.013 0 0 1 .711-1.546l.387-.664c.282-.541.607-1.058.974-1.546v-.093l.927-1.036c.17-.217.356-.402.542-.603l.417-.464c.48-.55.997-1.066 1.546-1.546l.294-.263c.402-.37.866-.726 1.36-1.097l.589-.449.726-.479c.407-.287.83-.55 1.268-.789l.99-.572.912-.54c.34-.17.665-.31.974-.434l.526-.216.495-.186c.207-.083.419-.155.634-.216h.263c.288.471.63.907 1.02 1.299l18.865 18.861-40.203 38.651c-5.01 5.01-5.83 12.369-.82 17.363 5.01 4.993 11.783 3.726 16.793-1.222l35.564-37.399c.201.248.418.495.65.727l39.847 39.764a11.428 11.428 0 0 0 19.245-5.059 11.424 11.424 0 0 0-3.086-11.097zm-97.416 8.936a4.732 4.732 0 1 1 0-6.679 4.715 4.715 0 0 1 0 6.68z" fill="#EB4D00" fill-rule="evenodd"/></svg>