<svg width="142" height="89" viewBox="0 0 142 89" xmlns="http://www.w3.org/2000/svg"><title>Identity &amp; Single Sign on</title><path d="M6.527.22C2.928.22 0 2.81 0 5.994v76.98c0 3.184 2.928 5.773 6.527 5.773h128.006c3.599 0 6.527-2.59 6.527-5.772V5.994c0-3.184-2.928-5.773-6.527-5.773H6.527zm117.594 68.993H77.704v-7.686h46.418v7.686zm0-17.689H77.704V43.84h46.418v7.685zm0-17.688H77.704V26.15h46.418v7.686zM53.967 56.394h-2.845c-3.14-.002-5.684-2.585-5.687-5.772v-1.856a14.676 14.676 0 0 0 2.706-5.21c.058-.323.36-.48.565-.7a3.608 3.608 0 0 0 .487-4.316 1.255 1.255 0 0 1-.302-.627V32.83c-.046-2.044-.618-4.167-2.03-5.678a7.9 7.9 0 0 0-4.313-2.26 14.121 14.121 0 0 0-6.185.145 7.492 7.492 0 0 0-4.41 3.03 8.842 8.842 0 0 0-1.361 4.57c-.027 1.723 0 3.45 0 5.176.039.346-.251.581-.387.868a3.616 3.616 0 0 0 .804 4.375 1.7 1.7 0 0 1 .487.965 14.017 14.017 0 0 0 2.563 4.658v1.919c-.002 3.187-2.546 5.77-5.686 5.772h-2.845s-5.156 1.444-8.531 8.66v2.888a2.906 2.906 0 0 0 .832 2.043 2.82 2.82 0 0 0 2.013.845h39.815a2.82 2.82 0 0 0 2.012-.845 2.906 2.906 0 0 0 .833-2.043V65.03c-3.379-7.216-8.532-8.66-8.532-8.66l-.003.023z" fill="#EB4D00" fill-rule="evenodd"/></svg>