<?xml version="1.0" encoding="UTF-8" standalone="no"?>
<svg width="171px" height="87px" viewBox="0 0 171 87" version="1.1" xmlns="http://www.w3.org/2000/svg" xmlns:xlink="http://www.w3.org/1999/xlink">
    <!-- Generator: sketchtool 39.1 (31720) - http://www.bohemiancoding.com/sketch -->
    <title>C812E51A-2D92-47E9-8FD1-E25D39872AB8</title>
    <desc>Created with sketchtool.</desc>
    <defs></defs>
    <g id="Onegini-Documentation" stroke="none" stroke-width="1" fill="none" fill-rule="evenodd">
        <g id="Onegini-Documentation---Landing-Page" transform="translate(-180.000000, -1457.000000)" fill="#00AEEF">
            <g id="Key-Components" transform="translate(110.000000, 1285.000000)">
                <g id="Token-Server" transform="translate(0.000000, 85.000000)">
                    <g transform="translate(70.000000, 87.000000)" id="Fill-1">
                        <path d="M127.683304,65.1724873 C115.631621,65.1724873 105.827001,55.3683788 105.827001,43.3161848 C105.827001,31.2650138 115.631621,21.4598824 127.683304,21.4598824 C139.734986,21.4598824 149.540118,31.2650138 149.540118,43.3161848 C149.540118,55.3683788 139.734986,65.1724873 127.683304,65.1724873 M127.683304,0 C107.502196,0 90.5021674,13.8736804 85.7149472,32.5836861 L66.8571152,32.5836861 L66.8571152,12.4501487 L46.2509427,12.4501487 L46.2509427,32.5836861 L38.3256098,32.5836861 L38.3256098,12.4501487 L17.7194373,12.4501487 L17.7194373,32.5836861 L10.8099628,32.5836861 C4.96494029,32.5836861 0.0396123813,37.3647682 0.000226126299,43.2389468 C-0.0381371091,49.0548133 4.80995282,54.0486836 10.6554869,54.0486836 L85.7149472,54.0486836 C90.5021674,72.7586892 107.501684,86.6323696 127.683304,86.6323696 C151.567743,86.6323696 171,67.2011352 171,43.3161848 C171,19.431746 151.567743,0 127.683304,0"></path>
                    </g>
                </g>
            </g>
        </g>
    </g>
</svg>
