<svg width="109" height="126" viewBox="0 0 109 126" xmlns="http://www.w3.org/2000/svg"><title>Customer Service</title><g fill="#EB4D00"><path d="M108.755 115.611c-1.184-22.4-21.4-31.667-21.4-31.667-4.83-2.249-13.587-6.651-19.328-9.562 7.356-8.014 9.528-21.081 9.866-22.94 1.535-8.412.763-18.826.763-18.826-1.404-20.249-21.933-20.567-24.083-20.545h-.196-.162c-1.95-.024-22.705.181-24.115 20.545 0 0-.774 10.412.762 18.826.099.542.36 2.051.853 4.093 3.867 5.055 9.837 7.535 14.736 8.748a3.42 3.42 0 0 1 2.385-.967h8.931c1.89 0 3.42 1.525 3.42 3.407a3.414 3.414 0 0 1-3.42 3.409h-8.931a3.423 3.423 0 0 1-3.141-2.055c-3.654-.885-7.884-2.427-11.658-5.078 1.506 3.894 3.652 8.07 6.694 11.384-5.742 2.911-14.494 7.312-19.328 9.561 0 0-20.213 9.267-21.4 31.667 0 0-.352 3.725 6.737 5.136 0 0 21.716 4.935 47.64 4.935 25.927 0 47.642-4.935 47.642-4.935 7.087-1.411 6.733-5.136 6.733-5.136"/><path d="M23.151 58.704h2.158V33.469c.005-.063.02-.124.02-.188v-3.726c0-6.643 2.059-12.027 6.12-16.004 8.4-8.231 22.748-8.119 22.991-8.085.169-.013 14.398-.217 22.836 8.008 4.088 3.984 6.163 9.394 6.163 16.081v3.94c0 .039.01.074.01.112v25.096h2.158c5.309 0 9.612-4.285 9.612-9.571v-9.2c0-4.253-2.788-7.854-6.644-9.1v-1.276c0-8.114-2.594-14.753-7.704-19.737C70.905.106 54.987.358 54.431.35 53.762.344 37.83.149 27.869 9.88c-5.093 4.977-7.678 11.597-7.678 19.675v1.271c-3.86 1.246-6.651 4.849-6.651 9.105v9.2c0 5.287 4.304 9.573 9.611 9.573"/></g></svg>