<?xml version="1.0" standalone="no"?>
<!DOCTYPE svg PUBLIC "-//W3C//DTD SVG 1.1//EN" "http://www.w3.org/Graphics/SVG/1.1/DTD/svg11.dtd" >
<svg xmlns="http://www.w3.org/2000/svg" xmlns:xlink="http://www.w3.org/1999/xlink" version="1.1">
<metadata>
Created by FontForge 20170731 at Wed Jul 10 00:23:28 2019
 By Aleksey,,,
Copyright 2019 The Red Hat Project Authors (https://github.com/RedHatOfficial/RedHatFont)
</metadata>
<defs>
<font id="RedHatDisplay-Regular" horiz-adv-x="549" >
  <font-face 
    font-family="Red Hat Display"
    font-weight="400"
    font-stretch="normal"
    units-per-em="1000"
    panose-1="2 1 5 3 4 2 1 6 3 3"
    ascent="800"
    descent="-200"
    x-height="501"
    cap-height="700"
    bbox="-67 -264 1058 1003"
    underline-thickness="50"
    underline-position="-175"
    unicode-range="U+000D-FFFD"
  />
<missing-glyph horiz-adv-x="514" 
d="M60 -100v850h394v-850h-394z" />
    <glyph glyph-name=".notdef" horiz-adv-x="514" 
d="M60 -100v850h394v-850h-394z" />
    <glyph glyph-name=".null" horiz-adv-x="0" 
 />
    <glyph glyph-name="nonmarkingreturn" horiz-adv-x="333" 
 />
    <glyph glyph-name="NULL" horiz-adv-x="215" 
 />
    <glyph glyph-name="NULL" horiz-adv-x="215" 
 />
    <glyph glyph-name="CR" unicode="&#xd;" horiz-adv-x="215" 
 />
    <glyph glyph-name="space" unicode=" " horiz-adv-x="215" 
 />
    <glyph glyph-name="exclam" unicode="!" horiz-adv-x="198" 
d="M69 194l-9 523h77l-9 -523h-59zM99 -6q-21 0 -36 15t-15 36t15 36t36 15t36 -15t15 -36t-15 -36t-36 -15z" />
    <glyph glyph-name="quotedbl" unicode="&#x22;" horiz-adv-x="318" 
d="M58 497zM69 497l-11 204h75l-11 -204h-53zM197 497l-11 204h75l-11 -204h-53z" />
    <glyph glyph-name="numbersign" unicode="#" horiz-adv-x="692" 
d="M79 0l63 219h-112v58h128l42 146h-120v58h136l63 219h68l-63 -219h198l63 219h68l-63 -219h112v-58h-128l-42 -146h120v-58h-136l-63 -219h-68l63 219h-198l-63 -219h-68zM226 277h198l42 146h-198z" />
    <glyph glyph-name="dollar" unicode="$" horiz-adv-x="567" 
d="M256 -75v96q-69 6 -129 34.5t-105 77.5l46 49q39 -42 87 -68t101 -33v246l-35 7q-100 22 -142 60.5t-42 109.5q0 79 61.5 128.5t157.5 49.5v77h51v-79q57 -7 113 -28.5t104 -56.5l-38 -56q-46 32 -91 51t-88 26v-231l34 -7q107 -24 151.5 -63t44.5 -110
q0 -79 -64.5 -130.5t-165.5 -55.5v-94h-51zM240 398l16 -3v225q-67 -1 -108.5 -31t-41.5 -79q0 -47 29 -71.5t105 -40.5zM322 314l-15 3v-238q69 4 114 38t45 85q0 46 -30.5 70.5t-113.5 41.5z" />
    <glyph glyph-name="percent" unicode="%" horiz-adv-x="739" 
d="M27 0zM27 345zM176 345q-66 0 -107.5 50t-41.5 130t41.5 130t107.5 50q65 0 106 -50t42 -130q-1 -80 -42 -130t-106 -50zM176 391q44 0 70.5 36.5t26.5 97.5t-26.5 98t-70.5 37q-45 0 -71 -37t-27 -98q1 -61 27 -97.5t71 -36.5zM203 0h-61l393 700h62zM566 -5
q-66 0 -107.5 50t-41.5 130t41.5 130t107.5 50q65 0 106 -50t42 -130q-1 -80 -42 -130t-106 -50zM566 41q44 0 70.5 36.5t26.5 97.5t-26.5 98t-70.5 37q-45 0 -71 -37t-27 -98q1 -61 27 -97.5t71 -36.5z" />
    <glyph glyph-name="ampersand" unicode="&#x26;" horiz-adv-x="653" 
d="M646 40l-45 -53q-28 22 -58.5 46.5t-61.5 50.5q-43 -46 -100.5 -70t-123.5 -24q-104 0 -167.5 54.5t-63.5 143.5q0 60 31.5 105t104.5 85l19 11q-35 44 -49.5 80.5t-14.5 76.5q0 70 48.5 117t120.5 47q69 0 113.5 -40.5t44.5 -103.5q0 -49 -27.5 -88t-84.5 -73l-50 -30
q41 -46 90 -94.5t100 -94.5q25 40 41.5 88t26.5 100l68 -11q-13 -64 -34 -120t-52 -102q32 -28 64 -53.5t60 -47.5zM187 547q0 -31 12.5 -59.5t43.5 -66.5l57 33q37 22 55.5 49t18.5 61q0 37 -26.5 61.5t-63.5 24.5q-42 0 -69.5 -28.5t-27.5 -74.5zM96 190q0 -62 45.5 -99.5
t119.5 -37.5q49 0 93 19t78 56q-57 52 -112.5 107t-99.5 106l-23 -13q-54 -31 -77.5 -63t-23.5 -75z" />
    <glyph glyph-name="quotesingle" unicode="'" horiz-adv-x="191" 
d="M69 497l-11 204h75l-11 -204h-53z" />
    <glyph glyph-name="parenleft" unicode="(" horiz-adv-x="389" 
d="M64 249q0 152 64.5 271t184.5 190l39 -50q-104 -60 -160.5 -168t-56.5 -243q0 -136 56.5 -243.5t160.5 -167.5l-39 -51q-120 72 -184.5 191t-64.5 271z" />
    <glyph glyph-name="parenright" unicode=")" horiz-adv-x="389" 
d="M325 254q0 -152 -64.5 -271t-184.5 -190l-39 50q104 60 160.5 168t56.5 243q0 136 -56.5 243.5t-160.5 167.5l39 51q120 -72 184.5 -191t64.5 -271z" />
    <glyph glyph-name="asterisk" unicode="*" horiz-adv-x="446" 
d="M366 406l-118 73l2 -138h-54l2 138l-119 -73l-29 45l124 73l-120 72l29 44l114 -71l-1 131h54l-1 -130l113 70l30 -44l-120 -72l125 -73z" />
    <glyph glyph-name="plus" unicode="+" horiz-adv-x="525" 
d="M294 145h-63v182h-176v62h176v178h63v-178h176v-62h-176v-182z" />
    <glyph glyph-name="comma" unicode="," horiz-adv-x="198" 
d="M76 74h80l-80 -211h-58z" />
    <glyph glyph-name="hyphen" unicode="-" horiz-adv-x="447" 
d="M49 314h349v-66h-349v66z" />
    <glyph glyph-name="period" unicode="." horiz-adv-x="198" 
d="M99 96q21 0 36 -15t15 -36t-15 -36t-36 -15t-36 15t-15 36t15 36t36 15z" />
    <glyph glyph-name="slash" unicode="/" horiz-adv-x="457" 
d="M-67 -205l421 905h75l-422 -905h-74z" />
    <glyph glyph-name="zero" unicode="0" horiz-adv-x="661" 
d="M330 -10q-63 0 -115.5 26.5t-90 74t-58.5 114t-21 145.5t21 145.5t58.5 114t90.5 74t115 26.5q63 0 115.5 -26.5t90.5 -74t59 -114t21 -145.5t-21 -145.5t-59 -114t-90.5 -74t-115.5 -26.5zM330 56q97 0 155 80t58 214t-58 214.5t-155 80.5q-96 0 -154 -80.5t-58 -214.5
t58 -214t154 -80z" />
    <glyph glyph-name="one" unicode="1" horiz-adv-x="289" 
d="M219 700v-700h-73v623l-118 -52v67l144 62h47z" />
    <glyph glyph-name="two" unicode="2" horiz-adv-x="542" 
d="M37 0v54l265 255q69 68 95 109.5t26 88.5q0 60 -45.5 99t-114.5 39q-51 0 -95.5 -20t-98.5 -66l-43 51q57 50 116 74.5t122 24.5q50 0 93 -15t73.5 -41t47.5 -62.5t17 -79.5q0 -31 -6.5 -58t-23 -54.5t-44.5 -59t-71 -72.5l-213 -203h371v-64h-471z" />
    <glyph glyph-name="three" unicode="3" horiz-adv-x="582" 
d="M532 191q0 -43 -19 -80t-52.5 -64t-80.5 -42t-102 -15q-75 0 -140 25t-116 74l49 48q46 -43 95.5 -63t111.5 -20q79 0 129.5 39t50.5 100q0 57 -49.5 93t-128.5 36h-59v61h55q66 0 110.5 39.5t44.5 97.5q0 54 -45.5 90t-112.5 36q-56 0 -101 -19.5t-92 -65.5l-49 49
q51 50 112.5 75.5t131.5 25.5q49 0 91.5 -14.5t72.5 -39.5t47.5 -59.5t17.5 -75.5q0 -53 -32 -96t-88 -66q66 -19 107 -64t41 -105z" />
    <glyph glyph-name="four" unicode="4" horiz-adv-x="619" 
d="M498 700v-450h84v-63h-84v-187h-73v187h-398v58l393 455h78zM117 250h308v357z" />
    <glyph glyph-name="five" unicode="5" horiz-adv-x="568" 
d="M65 355l16 345h411v-64h-349l-10 -229q34 13 70.5 19.5t74.5 6.5q111 0 181 -60t70 -154q0 -102 -70.5 -165.5t-184.5 -63.5q-72 0 -135 24t-114 71l46 49q48 -42 96 -61.5t108 -19.5q80 0 130 45.5t50 117.5q0 69 -53 112.5t-137 43.5q-39 0 -78.5 -8t-78.5 -24z" />
    <glyph glyph-name="six" unicode="6" horiz-adv-x="612" 
d="M328 -9q-62 0 -114 24.5t-89.5 68.5t-58.5 105.5t-21 135.5q0 87 23.5 158.5t66 121.5t102.5 77.5t133 27.5q46 0 90 -12t78 -34l-36 -57q-31 18 -66 27.5t-69 9.5q-113 0 -179 -81.5t-70 -224.5q39 46 96 73t117 27q52 0 96.5 -16.5t77 -45.5t50.5 -69.5t18 -87.5
q0 -49 -18.5 -91t-51 -72.5t-77.5 -47.5t-98 -17zM318 377q-55 0 -107 -27.5t-90 -76.5q12 -98 68 -158t138 -60q74 0 123 46.5t49 115.5q0 71 -50.5 115.5t-130.5 44.5z" />
    <glyph glyph-name="seven" unicode="7" horiz-adv-x="555" 
d="M92 0l365 635h-442v65h525v-56l-364 -644h-84z" />
    <glyph glyph-name="eight" unicode="8" horiz-adv-x="615" 
d="M307 -10q-56 0 -104.5 15t-83 41.5t-54 63t-19.5 79.5q0 61 42 109.5t109 69.5q-55 21 -89 64t-34 97q0 39 18 72.5t49 57.5t73.5 38t92.5 14t93 -14t74 -38t49 -57.5t18 -72.5q0 -54 -34 -97t-89 -64q67 -21 109 -69.5t42 -109.5q0 -43 -19.5 -79.5t-54.5 -63t-83 -41.5
t-105 -15zM307 400q68 0 115 36.5t47 89.5t-46.5 90t-115.5 37q-68 0 -114.5 -37t-46.5 -90t46.5 -89.5t114.5 -36.5zM307 50q80 0 134.5 41.5t54.5 102.5q0 60 -54.5 101t-134.5 41t-134.5 -41t-54.5 -101q0 -61 54.5 -102.5t134.5 -41.5z" />
    <glyph glyph-name="nine" unicode="9" horiz-adv-x="612" 
d="M284 709q62 0 114 -24.5t89.5 -68.5t58.5 -105.5t21 -135.5q0 -87 -23.5 -158.5t-66 -121.5t-102.5 -77.5t-133 -27.5q-46 0 -90 12t-78 34l36 57q31 -18 66 -27.5t69 -9.5q113 0 179 81.5t70 224.5q-39 -46 -96 -73t-117 -27q-52 0 -96.5 16.5t-77 45.5t-50.5 69.5
t-18 87.5q0 49 18.5 91t51 72.5t77.5 47.5t98 17zM294 323q55 0 107 27.5t90 76.5q-12 98 -68 158t-138 60q-74 0 -123 -46.5t-49 -115.5q0 -71 50.5 -115.5t130.5 -44.5z" />
    <glyph glyph-name="colon" unicode=":" horiz-adv-x="198" 
d="M48 0zM99 96q21 0 36 -15t15 -36t-15 -36t-36 -15t-36 15t-15 36t15 36t36 15zM99 512q21 0 36 -15t15 -36t-15 -36t-36 -15t-36 15t-15 36t15 36t36 15z" />
    <glyph glyph-name="semicolon" unicode=";" horiz-adv-x="201" 
d="M11 0zM107 512q21 0 36 -15t15 -36t-15 -36t-36 -15t-36 15t-15 36t15 36t36 15zM69 74h80l-80 -211h-58z" />
    <glyph glyph-name="less" unicode="&#x3c;" horiz-adv-x="505" 
d="M391 103l-318 246l318 245l37 -47l-261 -197l262 -199z" />
    <glyph glyph-name="equal" unicode="=" horiz-adv-x="528" 
d="M55 244zM470 306v-62h-415v62h415zM470 469v-62h-415v62h415z" />
    <glyph glyph-name="greater" unicode="&#x3e;" horiz-adv-x="505" 
d="M114 594l318 -246l-318 -245l-37 47l261 197l-262 199z" />
    <glyph glyph-name="question" unicode="?" horiz-adv-x="506" 
d="M349 363l-34 -24q-37 -25 -52 -59t-11 -84h-64q-4 68 14.5 111t67.5 78l44 31q43 31 61 57.5t18 60.5q0 46 -42.5 77t-102.5 31q-49 0 -92.5 -23t-77.5 -67l-58 38q43 57 103 87.5t129 30.5q46 0 85 -13t67.5 -36t45 -55t16.5 -69q0 -51 -25.5 -88.5t-91.5 -83.5zM220 96
q21 0 36 -15t15 -36t-15 -36t-36 -15t-36 15t-15 36t15 36t36 15z" />
    <glyph glyph-name="at" unicode="@" horiz-adv-x="776" 
d="M357 51q-61 0 -102 43.5t-41 107.5q0 37 13 69t36 56t54 38t66 14q29 0 55.5 -10t45.5 -29l5 26h56l-39 -192q-7 -36 7.5 -55.5t48.5 -19.5q52 0 87.5 48.5t35.5 119.5q0 57 -22 105.5t-60.5 84t-91 55.5t-113.5 20q-64 0 -120 -25t-97 -68.5t-64.5 -102.5t-23.5 -127
q0 -66 23.5 -123t65 -98t99 -64t125.5 -23q46 0 89.5 10.5t80.5 30.5l18 -41q-43 -22 -91.5 -33.5t-99.5 -11.5q-76 0 -142.5 26.5t-114 73.5t-75 111.5t-27.5 139.5q0 78 27 146t74.5 117.5t113 77.5t141.5 28q70 0 131 -23.5t106 -64.5t70.5 -97.5t25.5 -121.5
q0 -46 -13.5 -85.5t-37 -68t-56 -44.5t-70.5 -16q-32 0 -56 11t-37 30q-25 -22 -52 -33.5t-54 -11.5zM269 206q0 -48 28 -78t72 -30q22 0 43 9t38 26q-1 10 -1 21.5t3 24.5l21 106q-14 22 -38.5 34t-52.5 12q-46 0 -79.5 -37t-33.5 -88z" />
    <glyph glyph-name="A" unicode="A" horiz-adv-x="679" 
d="M4 0l291 700h93l287 -700h-84l-88 220h-330l-89 -220h-80zM200 286h276l-137 342z" />
    <glyph glyph-name="B" unicode="B" horiz-adv-x="657" 
d="M77 700h284q101 0 161 -49t60 -131q0 -54 -28.5 -94t-78.5 -61q63 -19 99.5 -63.5t36.5 -104.5q0 -90 -65.5 -143.5t-172.5 -53.5h-296v700zM357 633h-203v-238h203q68 0 108.5 32.5t40.5 86.5t-40.5 86.5t-108.5 32.5zM367 67q75 0 120.5 36t45.5 96t-45.5 96t-120.5 36
h-213v-264h213z" />
    <glyph glyph-name="C" unicode="C" horiz-adv-x="722" 
d="M409 60q65 0 124 25.5t99 70.5l50 -52q-52 -54 -124 -84.5t-151 -30.5q-76 0 -142.5 28t-115.5 76.5t-77 115t-28 141.5t28 141.5t77 115t115.5 76.5t142.5 28q81 0 153.5 -30.5t123.5 -84.5l-51 -54q-41 46 -101.5 72t-124.5 26q-60 0 -112.5 -22.5t-90.5 -61t-60 -92
t-22 -114.5t22 -114.5t60.5 -92t91 -61t113.5 -22.5z" />
    <glyph glyph-name="D" unicode="D" horiz-adv-x="720" 
d="M77 0v700h231q79 0 147 -26.5t117 -72.5t76.5 -110.5t27.5 -140.5t-27.5 -140.5t-76 -110.5t-116.5 -72.5t-148 -26.5h-231zM312 630h-158v-560h158q60 0 113 21.5t91 59t60 89t22 110.5t-22 110.5t-60 89t-91 59t-113 21.5z" />
    <glyph glyph-name="E" unicode="E" horiz-adv-x="616" 
d="M77 0v700h501v-68h-424v-245h277v-67h-277v-252h428v-68h-505z" />
    <glyph glyph-name="F" unicode="F" horiz-adv-x="607" 
d="M77 0v700h501v-68h-424v-250h278v-67h-278v-315h-77z" />
    <glyph glyph-name="G" unicode="G" horiz-adv-x="788" 
d="M746 335q0 -73 -26 -136.5t-72 -109.5t-108 -73t-134 -27q-75 0 -141.5 28.5t-115 77t-77 114.5t-28.5 141t28 141t76.5 114.5t115 77t141.5 28.5q81 0 153 -30.5t123 -84.5l-52 -53q-40 46 -100 71.5t-124 25.5q-60 0 -112 -22.5t-89.5 -61t-59.5 -92t-22 -114.5
t22 -114.5t59.5 -92t89.5 -61t112 -22.5q53 0 99.5 18t81 49.5t56.5 75.5t26 95h-251v68h329v-31z" />
    <glyph glyph-name="H" unicode="H" horiz-adv-x="715" 
d="M77 0v700h77v-313h407v313h77v-700h-77v318h-407v-318h-77z" />
    <glyph glyph-name="I" unicode="I" horiz-adv-x="231" 
d="M77 0v700h77v-700h-77z" />
    <glyph glyph-name="J" unicode="J" horiz-adv-x="600" 
d="M537 264q0 -125 -72 -200t-194 -75q-90 0 -156.5 47t-97.5 132l70 29q27 -69 73.5 -103t111.5 -34q85 0 136.5 56t51.5 149v435h77v-436z" />
    <glyph glyph-name="K" unicode="K" horiz-adv-x="617" 
d="M77 0v700h77v-332l362 332h101l-380 -343l388 -357h-108l-363 336v-336h-77z" />
    <glyph glyph-name="L" unicode="L" horiz-adv-x="604" 
d="M77 0v700h77v-631h417v-69h-494z" />
    <glyph glyph-name="M" unicode="M" horiz-adv-x="847" 
d="M423 50l-274 561v-611h-72v700h108l239 -497l238 497h108v-700h-73v612z" />
    <glyph glyph-name="N" unicode="N" horiz-adv-x="725" 
d="M77 700h77l421 -568v568h73v-700h-68l-430 583v-583h-73v700z" />
    <glyph glyph-name="O" unicode="O" horiz-adv-x="809" 
d="M765 350q0 -75 -28 -141.5t-76.5 -115t-114.5 -76.5t-141 -28t-141.5 28t-115 76.5t-76.5 115t-28 141.5t28 141.5t76.5 115t115 76.5t141.5 28t141 -28t114.5 -76.5t76.5 -115t28 -141.5zM687 350q0 61 -22 114.5t-59.5 92t-89.5 61t-111 22.5q-60 0 -112 -22.5
t-89.5 -61t-59.5 -92t-22 -114.5t22 -114t59.5 -92t89.5 -61.5t112 -22.5q59 0 111 22.5t89.5 61.5t59.5 92t22 114z" />
    <glyph glyph-name="P" unicode="P" horiz-adv-x="647" 
d="M77 0v700h304q102 0 164 -55.5t62 -146.5t-62.5 -147t-163.5 -56h-227v-295h-77zM375 631h-221v-269h221q71 0 113 36.5t42 98.5t-42 98t-113 36z" />
    <glyph glyph-name="Q" unicode="Q" horiz-adv-x="809" 
d="M765 350q0 -79 -31 -148t-84 -118l74 -89l-79 -11l-49 59q-41 -25 -90 -39.5t-101 -14.5q-75 0 -141.5 28t-115 76.5t-76.5 115t-28 141.5t28 141.5t76.5 115t115 76.5t141.5 28t141 -28t114.5 -76.5t76.5 -115t28 -141.5zM527 230l75 -90q40 40 62.5 94t22.5 116
q0 61 -22 114.5t-59.5 92t-89.5 61t-111 22.5q-60 0 -112 -22.5t-89.5 -61t-59.5 -92t-22 -114.5t22 -114t59.5 -92t89.5 -61.5t112 -22.5q40 0 76 10t67 29l-100 119z" />
    <glyph glyph-name="R" unicode="R" horiz-adv-x="645" 
d="M77 0v700h300q102 0 165 -55.5t63 -145.5q0 -69 -40.5 -119t-108.5 -69l157 -311h-85l-150 301h-224v-301h-77zM372 631h-218v-265h218q70 0 113 36.5t43 96.5t-43 96t-113 36z" />
    <glyph glyph-name="S" unicode="S" horiz-adv-x="600" 
d="M11 120l51 53q54 -57 115.5 -86.5t129.5 -29.5q82 0 135 39t53 99q0 54 -37.5 83t-123.5 43l-101 16q-101 16 -149 59.5t-48 117.5q0 87 68 141t178 54q73 0 145 -24t131 -69l-44 -60q-57 43 -116 65t-119 22q-75 0 -121.5 -34.5t-46.5 -88.5q0 -49 33 -75t109 -38
l100 -16q114 -19 166.5 -65t52.5 -127q0 -46 -19.5 -84.5t-55 -66t-85 -43t-108.5 -15.5q-83 0 -159.5 33.5t-133.5 96.5z" />
    <glyph glyph-name="T" unicode="T" horiz-adv-x="617" 
d="M17 631v69h583v-69h-253v-631h-77v631h-253z" />
    <glyph glyph-name="U" unicode="U" horiz-adv-x="704" 
d="M641 296q0 -140 -78.5 -223.5t-210.5 -83.5q-133 0 -211 83t-78 224v404h77v-404q0 -107 58 -171.5t154 -64.5t154 64.5t58 171.5v404h77v-404z" />
    <glyph glyph-name="V" unicode="V" horiz-adv-x="679" 
d="M291 0l-287 700h83l253 -628l257 628h78l-291 -700h-93z" />
    <glyph glyph-name="W" unicode="W" horiz-adv-x="882" 
d="M264 0h-78l-151 700h78l119 -578l173 578h75l173 -576l120 576h75l-151 -700h-78l-177 593z" />
    <glyph glyph-name="X" unicode="X" horiz-adv-x="638" 
d="M93 0h-90l270 363l-253 337h94l205 -278l205 278h90l-250 -336l271 -364h-93l-224 305z" />
    <glyph glyph-name="Y" unicode="Y" horiz-adv-x="639" 
d="M281 0v285l-278 415h90l229 -347l228 347h87l-279 -418v-282h-77z" />
    <glyph glyph-name="Z" unicode="Z" horiz-adv-x="604" 
d="M24 0v55l445 577h-441v68h542v-55l-447 -577h455v-68h-554z" />
    <glyph glyph-name="bracketleft" unicode="[" horiz-adv-x="347" 
d="M309 -207h-252v907h252v-60h-181v-787h181v-60z" />
    <glyph glyph-name="backslash" unicode="\" horiz-adv-x="462" 
d="M529 -205h-78l-421 905h77z" />
    <glyph glyph-name="bracketright" unicode="]" horiz-adv-x="347" 
d="M38 700h252v-907h-252v60h181v787h-181v60z" />
    <glyph glyph-name="asciicircum" unicode="^" horiz-adv-x="536" 
d="M49 350l187 350h65l187 -350h-69l-151 285l-151 -285h-68z" />
    <glyph glyph-name="underscore" unicode="_" horiz-adv-x="482" 
d="M483 -80v-57h-484v57h484z" />
    <glyph glyph-name="grave" unicode="`" horiz-adv-x="519" 
d="M261 716l92 -116h-65l-123 116h96z" />
    <glyph glyph-name="a" unicode="a" horiz-adv-x="516" 
d="M221 -9q-82 0 -133.5 42t-51.5 109q0 70 54 111.5t146 41.5q40 0 77.5 -9t69.5 -25v66q0 60 -34 90.5t-99 30.5q-37 0 -74.5 -10.5t-82.5 -33.5l-28 57q54 26 100 38t92 12q95 0 146.5 -45t51.5 -129v-337h-72v49q-34 -29 -74.5 -43.5t-87.5 -14.5zM107 144
q0 -42 35.5 -68.5t91.5 -26.5q45 0 82 14t67 44v94q-31 21 -66.5 30.5t-78.5 9.5q-60 0 -95.5 -26.5t-35.5 -70.5z" />
    <glyph glyph-name="b" unicode="b" horiz-adv-x="590" 
d="M550 251q0 -54 -19.5 -102t-53.5 -82.5t-80.5 -54.5t-99.5 -20q-44 0 -85.5 15t-75.5 43v-50h-73v700l74 17v-269q31 30 72.5 45.5t88.5 15.5q53 0 99 -20t80 -54.5t53.5 -82t19.5 -101.5zM291 444q-47 0 -87.5 -18.5t-66.5 -51.5v-248q26 -32 67 -50.5t87 -18.5
q79 0 132.5 55.5t53.5 137.5q0 41 -14.5 76.5t-39.5 61.5t-59 41t-73 15z" />
    <glyph glyph-name="c" unicode="c" horiz-adv-x="513" 
d="M297 58q40 0 77 16t69 47l46 -50q-40 -38 -90 -59t-104 -21q-53 0 -100 20t-81 55t-54 83t-20 102t20 101.5t54 82.5t81 55.5t100 20.5q54 0 105.5 -21t90.5 -58l-47 -54q-30 31 -69 48t-79 17q-38 0 -72 -15t-58.5 -41t-38.5 -61t-14 -75q0 -41 14.5 -76.5t39 -61
t58.5 -40.5t72 -15z" />
    <glyph glyph-name="d" unicode="d" horiz-adv-x="590" 
d="M454 0v53q-32 -30 -73.5 -45.5t-88.5 -15.5q-53 0 -99 20t-80 54.5t-53.5 82.5t-19.5 102t19.5 101.5t53.5 82t80.5 54.5t99.5 20q43 0 84.5 -14.5t75.5 -42.5v248l74 17v-717h-73zM113 252q0 -41 14.5 -77t39.5 -62t59 -41t73 -15q47 0 87.5 18.5t66.5 51.5v248
q-26 32 -67 50.5t-87 18.5q-78 0 -132 -55t-54 -137z" />
    <glyph glyph-name="e" unicode="e" horiz-adv-x="564" 
d="M485 53q-42 -31 -87.5 -46.5t-99.5 -15.5t-101.5 20t-82 55t-54.5 82.5t-20 102.5q0 54 19.5 101t52.5 82t78.5 55t96.5 20q50 0 93.5 -20t75 -55t50 -82t18.5 -101v-23h-411q8 -74 61 -123t127 -49q39 0 76 12t62 34zM285 444q-65 0 -112.5 -44t-57.5 -113h335
q-10 66 -56.5 111.5t-108.5 45.5z" />
    <glyph glyph-name="f" unicode="f" horiz-adv-x="374" 
d="M17 501h118v95q0 73 40 112.5t115 39.5q20 0 36 -2t31 -7v-66q-17 5 -31 7.5t-31 2.5q-44 0 -65.5 -21.5t-21.5 -67.5v-93h149v-63h-149v-438h-73v438h-118v63z" />
    <glyph glyph-name="g" unicode="g" horiz-adv-x="586" 
d="M290 -4q-52 0 -97.5 20t-79.5 54.5t-53.5 81.5t-19.5 101t19.5 101t53.5 81.5t80 54.5t99 20q43 0 83.5 -15.5t74.5 -43.5v50h73v-513q0 -96 -56 -147.5t-160 -51.5q-52 0 -103 13.5t-93 38.5l32 58q45 -24 83.5 -35t77.5 -11q71 0 108 34t37 100v67q-34 -28 -74.5 -43
t-84.5 -15zM113 253q0 -40 14 -75.5t38.5 -61t58.5 -40.5t72 -15q48 0 88 18t65 51v246q-25 32 -65.5 50t-87.5 18q-39 0 -72.5 -14.5t-58 -40.5t-38.5 -61t-14 -75z" />
    <glyph glyph-name="h" unicode="h" 
d="M63 0v700l74 17v-275q29 34 69 51.5t89 17.5q85 0 139 -54t54 -140v-317h-73v302q0 66 -38 105t-102 39q-45 0 -80.5 -20t-57.5 -57v-369h-74z" />
    <glyph glyph-name="i" unicode="i" horiz-adv-x="200" 
d="M100 597q-20 0 -35 15t-15 35q0 21 15 35.5t35 14.5q21 0 35.5 -14.5t14.5 -35.5q0 -20 -14.5 -35t-35.5 -15zM137 501v-501h-74v501h74z" />
    <glyph glyph-name="j" unicode="j" horiz-adv-x="200" 
d="M100 597q-20 0 -35 15t-15 35q0 21 15 35.5t35 14.5q21 0 35.5 -14.5t14.5 -35.5q0 -20 -14.5 -35t-35.5 -15zM8 -208q-14 0 -26 2t-20 4v62q9 -2 17.5 -3t19.5 -1q34 0 49 16t15 52v577h74v-583q0 -60 -34 -93t-95 -33z" />
    <glyph glyph-name="k" unicode="k" horiz-adv-x="494" 
d="M63 0v700l74 17v-442l262 226h90l-275 -238l288 -263h-101l-264 240v-240h-74z" />
    <glyph glyph-name="l" unicode="l" horiz-adv-x="200" 
d="M137 717v-717h-74v700z" />
    <glyph glyph-name="m" unicode="m" horiz-adv-x="859" 
d="M63 0v501h74v-55q28 32 65 48.5t82 16.5q52 0 93.5 -24.5t64.5 -66.5q31 46 74.5 68.5t97.5 22.5q81 0 132.5 -54t51.5 -140v-317h-73v302q0 66 -35 105t-95 39q-41 0 -75 -21t-58 -61q2 -11 3.5 -22.5t1.5 -24.5v-317h-73v302q0 66 -35 105t-94 39q-40 0 -72.5 -18.5
t-55.5 -54.5v-373h-74z" />
    <glyph glyph-name="n" unicode="n" 
d="M63 0v501h74v-59q29 34 69 51.5t89 17.5q85 0 139 -54t54 -140v-317h-73v302q0 66 -38 105t-102 39q-45 0 -80.5 -20t-57.5 -57v-369h-74z" />
    <glyph glyph-name="o" unicode="o" horiz-adv-x="591" 
d="M40 251q0 54 20 102t54.5 83t81.5 55t100 20t99.5 -20t81 -55t54.5 -83t20 -102q0 -55 -20 -103t-54.5 -83t-81 -55t-99.5 -20t-100 20t-81.5 55t-54.5 83t-20 103zM296 56q38 0 71.5 15t58 41.5t38.5 62t14 76.5t-14 76.5t-38.5 61.5t-58 41t-71.5 15t-71.5 -15t-58 -41
t-39 -61.5t-14.5 -76.5t14 -76.5t38.5 -62t58.5 -41.5t72 -15z" />
    <glyph glyph-name="p" unicode="p" horiz-adv-x="590" 
d="M63 -205v706h73v-54q32 31 73.5 46.5t88.5 15.5q53 0 99 -20t80 -54.5t53.5 -82t19.5 -101.5t-19.5 -102t-53.5 -82.5t-80.5 -54.5t-99.5 -20q-44 0 -85 15t-75 43v-255h-74zM291 444q-47 0 -87.5 -18.5t-66.5 -51.5v-248q26 -32 67 -50.5t87 -18.5q79 0 132.5 55.5
t53.5 137.5q0 41 -14.5 76.5t-39.5 61.5t-59 41t-73 15z" />
    <glyph glyph-name="q" unicode="q" horiz-adv-x="590" 
d="M292 -8q-53 0 -99 20t-80 54.5t-53.5 82.5t-19.5 102t19.5 101.5t53.5 82t80.5 54.5t99.5 20q45 0 86.5 -15t74.5 -42v49h73v-706h-74v257q-32 -29 -73.5 -44.5t-87.5 -15.5zM113 252q0 -41 14.5 -77t39.5 -62t59 -41t73 -15q47 0 87.5 18.5t66.5 51.5v248
q-26 32 -67 50.5t-87 18.5q-78 0 -132 -55t-54 -137z" />
    <glyph glyph-name="r" unicode="r" horiz-adv-x="346" 
d="M63 0v501h74v-71q22 39 58 60.5t82 21.5q14 0 25 -1.5t22 -5.5v-68q-13 4 -26 6.5t-26 2.5q-46 0 -81 -26.5t-54 -76.5v-343h-74z" />
    <glyph glyph-name="s" unicode="s" horiz-adv-x="446" 
d="M12 69l45 48q34 -32 76.5 -49.5t86.5 -17.5q60 0 98 25t38 65q0 32 -22.5 50.5t-70.5 25.5l-87 12q-75 11 -111.5 44.5t-36.5 90.5q0 63 53 104.5t135 41.5q54 0 102.5 -16t94.5 -50l-39 -50q-42 28 -81.5 42t-80.5 14q-51 0 -83.5 -23t-32.5 -60q0 -32 22 -49.5
t71 -24.5l87 -12q75 -10 112.5 -44.5t37.5 -91.5q0 -32 -15.5 -60.5t-43 -49t-64.5 -32t-80 -11.5q-62 0 -116.5 20.5t-94.5 57.5z" />
    <glyph glyph-name="t" unicode="t" horiz-adv-x="365" 
d="M125 112v326h-108v63h108v127l73 19v-146h151v-63h-151v-307q0 -40 18 -57.5t59 -17.5q21 0 37.5 3t35.5 10v-65q-19 -7 -42.5 -10t-45.5 -3q-65 0 -100 31t-35 90z" />
    <glyph glyph-name="u" unicode="u" 
d="M134 501v-302q0 -66 38 -105t102 -39q45 0 80.5 20.5t57.5 57.5v368h74v-501h-74v58q-29 -34 -68.5 -51t-88.5 -17q-86 0 -140 54t-54 140v317h73z" />
    <glyph glyph-name="v" unicode="v" horiz-adv-x="513" 
d="M222 0l-217 501h82l171 -405l171 405h79l-216 -501h-70z" />
    <glyph glyph-name="w" unicode="w" horiz-adv-x="703" 
d="M227 0h-72l-141 501h73l108 -400l125 400h66l124 -400l109 400h70l-142 -501h-71l-124 401z" />
    <glyph glyph-name="x" unicode="x" horiz-adv-x="491" 
d="M5 0l197 258l-187 243h88l142 -188l142 188h85l-185 -242l198 -259h-88l-153 204l-155 -204h-84z" />
    <glyph glyph-name="y" unicode="y" horiz-adv-x="510" 
d="M180 -65l29 66l-204 500h82l162 -411l175 411h80l-249 -576q-32 -72 -71 -104t-99 -32q-14 0 -26.5 1.5t-20.5 3.5v67q10 -2 19.5 -3t22.5 -1q34 0 58 19t42 59z" />
    <glyph glyph-name="z" unicode="z" horiz-adv-x="463" 
d="M31 0v58l302 377h-299v66h389v-57l-303 -378h306v-66h-395z" />
    <glyph glyph-name="braceleft" unicode="{" horiz-adv-x="382" 
d="M250 89l-48 -120q-22 -51 -4 -86t67 -35q16 0 30.5 2.5t31.5 8.5l15 -56q-22 -8 -41 -11.5t-39 -3.5q-44 0 -75.5 15.5t-48.5 42t-17.5 63t17.5 77.5l42 99q24 55 2.5 94t-75.5 39h-79v61h79q54 0 75.5 39.5t-2.5 94.5l-42 98q-18 41 -17 77.5t17.5 63.5t48 42.5
t75.5 15.5q20 0 39 -3.5t41 -11.5l-15 -56q-17 6 -31.5 8.5t-30.5 2.5q-49 0 -67 -35t4 -86l48 -120q22 -54 -1.5 -99.5t-77.5 -60.5q55 -16 78 -61.5t1 -98.5z" />
    <glyph glyph-name="bar" unicode="|" horiz-adv-x="274" 
d="M103 -206v906h68v-906h-68z" />
    <glyph glyph-name="braceright" unicode="}" horiz-adv-x="382" 
d="M132 409l48 120q22 51 4 86t-67 35q-16 0 -30.5 -2.5t-31.5 -8.5l-15 56q22 8 41 11.5t39 3.5q44 0 75.5 -15.5t48.5 -42t17.5 -63t-17.5 -77.5l-42 -99q-24 -55 -2.5 -94t75.5 -39h79v-61h-79q-54 0 -75.5 -39.5t2.5 -94.5l42 -98q18 -41 17 -77.5t-17.5 -63.5
t-48 -42.5t-75.5 -15.5q-20 0 -39 3.5t-41 11.5l15 56q17 -6 31.5 -8.5t30.5 -2.5q49 0 67 35t-4 86l-48 120q-22 54 1.5 99.5t77.5 60.5q-55 16 -78 61.5t-1 98.5z" />
    <glyph glyph-name="asciitilde" unicode="~" horiz-adv-x="578" 
d="M260 425l80 -40q24 -12 39 -17t28 -5q31 0 49.5 22.5t25.5 68.5l56 -7q-8 -69 -42 -107.5t-85 -38.5q-19 0 -42 6.5t-51 21.5l-80 40q-26 13 -40 18t-27 5q-31 0 -49 -22.5t-25 -68.5l-57 7q9 69 42.5 107.5t84.5 38.5q20 0 42.5 -6.5t50.5 -22.5z" />
    <glyph glyph-name="nbspace" unicode="&#xa0;" horiz-adv-x="215" 
 />
    <glyph glyph-name="exclamdown" unicode="&#xa1;" horiz-adv-x="198" 
d="M129 510l9 -523h-77l9 523h59zM99 710q21 0 36 -15t15 -36t-15 -36t-36 -15t-36 15t-15 36t15 36t36 15z" />
    <glyph glyph-name="cent" unicode="&#xa2;" horiz-adv-x="515" 
d="M263 -110v103q-47 6 -88 28t-71 56t-47 79t-17 95t17 94.5t47 78.5t71 56.5t88 28.5v108h51v-107q49 -3 95.5 -23.5t81.5 -54.5l-47 -54q-27 28 -60.5 44.5t-69.5 19.5v-383q35 3 68 18.5t61 43.5l46 -50q-36 -34 -81 -55t-94 -24v-102h-51zM113 251q0 -72 43 -125
t107 -65v379q-65 -12 -107.5 -65t-42.5 -124z" />
    <glyph glyph-name="sterling" unicode="&#xa3;" horiz-adv-x="615" 
d="M201 27q-10 2 -20 3t-19 1q-35 0 -59 -16.5t-41 -51.5l-54 36q25 45 58.5 68.5t77.5 26.5q13 10 19.5 26t6.5 37q0 3 -0.5 8t-3 20.5t-7.5 45t-14 81.5h-105v57h95q-12 67 -15 91.5t-3 38.5q0 96 57.5 153t157.5 57q89 0 146.5 -44.5t77.5 -129.5l-64 -19
q-15 63 -56 96.5t-104 33.5q-69 0 -106.5 -38t-37.5 -106q0 -6 0.5 -13.5t2.5 -21.5t6 -37.5t10 -60.5h210v-57h-200q8 -45 12.5 -72t7 -41.5t3 -21t0.5 -10.5q0 -25 -6.5 -44.5t-19.5 -33.5l199 -40q11 -2 21.5 -3.5t20.5 -1.5q32 0 55 14.5t39 45.5l55 -35
q-26 -45 -62 -67t-85 -22q-13 0 -27.5 1.5t-29.5 4.5z" />
    <glyph glyph-name="uni00A4" unicode="&#xa4;" horiz-adv-x="681" 
d="M85 64l-39 40l93 94q-25 33 -39.5 75t-14.5 88t14.5 87.5t40.5 74.5l-94 95l40 41l94 -95q33 27 74 42t87 15t87 -15t74 -42l94 95l39 -40l-95 -95q26 -33 41 -74.5t15 -88.5q0 -46 -14.5 -87.5t-39.5 -74.5l94 -95l-40 -41l-94 94q-33 -27 -74 -42t-87 -15t-88 15.5
t-75 42.5zM341 166q38 0 71.5 15t58 41.5t38.5 62t14 76.5t-14 76.5t-38.5 61.5t-58 41t-71.5 15t-71.5 -15t-58 -41t-39 -61.5t-14.5 -76.5t14 -76.5t38.5 -62t58.5 -41.5t72 -15z" />
    <glyph glyph-name="yen" unicode="&#xa5;" horiz-adv-x="641" 
d="M94 210h187v75l-1 2h-186v52h151l-242 361h90l229 -347l228 347h87l-241 -361h150v-52h-185l-3 -5v-72h188v-51h-188v-159h-77v159h-187v51z" />
    <glyph glyph-name="uni00A6" unicode="&#xa6;" horiz-adv-x="274" 
d="M171 287h-68v413h68v-413zM103 -206v413h68v-413h-68z" />
    <glyph glyph-name="section" unicode="&#xa7;" horiz-adv-x="566" 
d="M452 86q0 -61 -47.5 -98.5t-124.5 -37.5q-43 0 -89.5 12.5t-89.5 35.5l29 53q43 -22 80.5 -34t69.5 -12q49 0 76.5 21t27.5 58q0 28 -18 48t-58 33l-110 36q-76 25 -107.5 57.5t-31.5 86.5q0 47 28 80.5t76 46.5q-25 19 -37.5 44.5t-12.5 56.5q0 61 47.5 99t125.5 38
q43 0 89 -13t90 -36l-30 -53q-41 23 -79.5 35t-70.5 12q-49 0 -76.5 -21t-27.5 -58q0 -29 18.5 -48.5t58.5 -32.5l109 -36q76 -25 108 -58t32 -87q0 -46 -28 -79.5t-77 -47.5q25 -19 37.5 -44.5t12.5 -56.5zM329 223q3 -1 5.5 -2t5.5 -2q47 5 74.5 29t27.5 61
q0 31 -21.5 52.5t-69.5 37.5l-115 37q-3 1 -5.5 2t-4.5 2q-48 -5 -75.5 -29t-27.5 -61q0 -31 21.5 -52.5t69.5 -37.5z" />
    <glyph glyph-name="dieresis" unicode="&#xa8;" horiz-adv-x="538" 
d="M182 610q-21 0 -35.5 14t-14.5 35q0 20 14.5 34t35.5 14t35 -14t14 -34q0 -21 -14.5 -35t-34.5 -14zM357 610q-21 0 -35 14t-14 35q0 20 14 34t35 14q22 0 35.5 -14t13.5 -34q0 -21 -14 -35t-35 -14z" />
    <glyph glyph-name="copyright" unicode="&#xa9;" horiz-adv-x="804" 
d="M44 350q0 76 27.5 142t75.5 114.5t114 76.5t141 28t141 -28t114 -76t75.5 -114.5t27.5 -142.5t-27.5 -142.5t-75.5 -114.5t-114 -76t-141 -28t-141 28t-114 76.5t-75.5 114.5t-27.5 142zM714 350q0 66 -24.5 124.5t-66.5 101t-99 67.5t-122 25t-121.5 -25t-98.5 -67.5
t-66 -101t-24 -124.5t24 -124.5t66 -101t98.5 -67.5t121.5 -25t122 25t99 67.5t66.5 101t24.5 124.5zM232 350q0 38 14 72t38.5 59t57.5 39.5t71 14.5q40 0 76.5 -15t63.5 -43l-36 -40q-21 22 -48 34t-55 12q-53 0 -89 -38.5t-36 -94.5t36.5 -94t88.5 -38q28 0 54 11t48 33
l36 -39q-28 -28 -63.5 -42.5t-75.5 -14.5q-38 0 -71 14.5t-57.5 39t-38.5 58.5t-14 72z" />
    <glyph glyph-name="ordfeminine" unicode="&#xaa;" horiz-adv-x="408" 
d="M173 315q-62 0 -101 31.5t-39 82.5q0 53 41.5 84t111.5 31q28 0 55.5 -6t51.5 -17v46q0 43 -24 65t-73 22q-27 0 -55.5 -8t-62.5 -24l-23 47q41 19 77 28.5t71 9.5q72 0 111.5 -35t39.5 -98v-252h-61v35q-25 -21 -55 -31.5t-65 -10.5zM93 431q0 -31 25.5 -49.5
t66.5 -18.5q32 0 59 10t49 29v71q-22 14 -48 20.5t-57 6.5q-43 0 -69 -19t-26 -50z" />
    <glyph glyph-name="guillemotleft" unicode="&#xab;" horiz-adv-x="598" 
d="M31 0zM344 501l-228 -248l231 -253h-82l-234 251l234 250h79zM552 501l-228 -248l231 -253h-82l-234 251l234 250h79z" />
    <glyph glyph-name="uni00AC" unicode="&#xac;" horiz-adv-x="547" 
d="M49 314h449v-314h-66v248h-383v66z" />
    <glyph glyph-name="uni00AD" unicode="&#xad;" horiz-adv-x="447" 
d="M49 248zM49 314h349v-66h-349v66z" />
    <glyph glyph-name="registered" unicode="&#xae;" horiz-adv-x="489" 
d="M244 311q-42 0 -78.5 15.5t-63 42.5t-42 64t-15.5 79t15.5 79t42 64t63 42.5t78.5 15.5t78.5 -15.5t63.5 -42.5t42.5 -64t15.5 -79t-15.5 -79t-42.5 -64t-63.5 -42.5t-78.5 -15.5zM244 345q71 0 117 47.5t46 119.5t-46 119.5t-117 47.5q-69 0 -115.5 -47.5t-46.5 -119.5
q0 -71 46.5 -119t115.5 -48zM178 419v188h74q30 0 47 -15t17 -42q0 -17 -9.5 -31.5t-25.5 -21.5l46 -78h-37l-42 71h-36v-71h-34zM248 579h-36v-63h35q16 0 25.5 8.5t9.5 23.5t-9 23t-25 8z" />
    <glyph glyph-name="macron" unicode="&#xaf;" horiz-adv-x="519" 
d="M405 674v-53h-283v53h283z" />
    <glyph glyph-name="degree" unicode="&#xb0;" horiz-adv-x="388" 
d="M195 424q-60 0 -102 42.5t-42 102.5q0 58 42 99.5t102 41.5q57 0 99.5 -41.5t42.5 -99.5q0 -60 -42 -102.5t-100 -42.5zM195 473q37 0 64 28.5t27 68.5q0 37 -27 64t-64 27q-38 0 -65.5 -27t-27.5 -64q0 -40 27 -68.5t66 -28.5z" />
    <glyph glyph-name="plusminus" unicode="&#xb1;" horiz-adv-x="525" 
d="M294 173h-63v177h-176v62h176v173h63v-173h176v-62h-176v-177zM470 60v-61h-415v61h415z" />
    <glyph glyph-name="twosuperior" unicode="&#xb2;" horiz-adv-x="291" 
d="M17 350zM26 350v38l136 125q28 28 40 46.5t12 38.5q0 27 -20.5 44.5t-51.5 17.5q-25 0 -47 -10t-49 -33l-29 35q29 26 60.5 39.5t65.5 13.5q53 0 87.5 -29t34.5 -74q0 -31 -15 -56.5t-55 -62.5l-97 -89h172v-44h-244z" />
    <glyph glyph-name="threesuperior" unicode="&#xb3;" horiz-adv-x="313" 
d="M18 345zM285 446q0 -44 -38 -72.5t-96 -28.5q-39 0 -73.5 13.5t-59.5 38.5l35 33q22 -22 44.5 -31t53.5 -9q37 0 59 16.5t22 43.5q0 24 -21.5 38.5t-56.5 14.5h-31v42h27q30 0 50 17.5t20 42.5q0 24 -20 39.5t-51 15.5q-28 0 -49 -10t-43 -32l-35 33q25 26 58.5 40.5
t70.5 14.5q52 0 87 -27.5t34 -69.5q1 -26 -14.5 -47.5t-42.5 -33.5q31 -10 50.5 -31.5t19.5 -50.5z" />
    <glyph glyph-name="acute" unicode="&#xb4;" horiz-adv-x="519" 
d="M261 716h95l-124 -116h-65z" />
    <glyph glyph-name="uni00B5" unicode="&#xb5;" 
d="M134 501v-302q0 -66 38 -105t102 -39q45 0 80.5 20.5t57.5 57.5v368h74v-501h-74v58q-29 -34 -68.5 -51t-88.5 -17q-35 0 -66 9.5t-55 27.5v-232h-73v706h73z" />
    <glyph glyph-name="paragraph" unicode="&#xb6;" horiz-adv-x="651" 
d="M318 0v289h-59q-98 0 -159.5 57.5t-61.5 147.5q0 92 61.5 149t158.5 57h316v-700h-69v289h-119v-289h-68zM505 352v285h-119v-285h119zM259 352h59v285h-59q-67 0 -108.5 -39.5t-41.5 -102.5q0 -65 41.5 -104t108.5 -39z" />
    <glyph glyph-name="periodcentered" unicode="&#xb7;" horiz-adv-x="198" 
d="M48 231zM99 333q21 0 36 -15t15 -36t-15 -36t-36 -15t-36 15t-15 36t15 36t36 15z" />
    <glyph glyph-name="cedilla" unicode="&#xb8;" horiz-adv-x="519" 
d="M393 -137q0 -40 -32.5 -65.5t-82.5 -25.5q-33 0 -62 10.5t-51 30.5l30 32q19 -16 40 -24t43 -8q30 0 47 13.5t17 35.5t-18.5 34.5t-50.5 12.5h-29l26 91h43l-15 -55q43 -2 69 -24t26 -58z" />
    <glyph glyph-name="onesuperior" unicode="&#xb9;" horiz-adv-x="165" 
d="M20 350zM135 700v-350h-52v296l-63 -26v45l82 35h33z" />
    <glyph glyph-name="ordmasculine" unicode="&#xba;" horiz-adv-x="464" 
d="M36 510q0 41 15 77t41.5 62.5t62 42t75.5 15.5q41 0 76.5 -15.5t61.5 -42t41 -62.5t15 -77t-15 -76.5t-41 -62t-61.5 -42t-76.5 -15.5q-40 0 -75.5 15.5t-62 42t-41.5 62t-15 76.5zM364 510q0 60 -38.5 101t-95.5 41q-55 0 -93.5 -41t-38.5 -101q0 -59 38.5 -100
t93.5 -41q57 0 95.5 41t38.5 100z" />
    <glyph glyph-name="guillemotright" unicode="&#xbb;" horiz-adv-x="598" 
d="M254 0l228 248l-231 253h82l234 -251l-234 -250h-79zM45 0l228 248l-231 253h82l234 -251l-234 -250h-79z" />
    <glyph glyph-name="onequarter" unicode="&#xbc;" horiz-adv-x="603" 
d="M20 0zM544 350v-218h43v-44h-43v-88h-52v88h-198v42l192 220h58zM355 132h137v157zM20 350zM135 700v-350h-52v296l-63 -26v45l82 35h33zM99 0h-61l393 700h62z" />
    <glyph glyph-name="onehalf" unicode="&#xbd;" horiz-adv-x="637" 
d="M20 0zM20 350zM135 700v-350h-52v296l-63 -26v45l82 35h33zM99 0h-61l393 700h62zM372 0v38l136 125q28 28 40 46.5t12 38.5q0 27 -20.5 44.5t-51.5 17.5q-25 0 -47 -10t-49 -33l-29 35q29 26 60.5 39.5t65.5 13.5q53 0 87.5 -29t34.5 -74q0 -31 -15 -56.5t-55 -62.5
l-97 -89h172v-44h-244z" />
    <glyph glyph-name="threequarters" unicode="&#xbe;" horiz-adv-x="697" 
d="M18 0zM18 345zM285 446q0 -44 -38 -72.5t-96 -28.5q-39 0 -73.5 13.5t-59.5 38.5l35 33q22 -22 44.5 -31t53.5 -9q37 0 59 16.5t22 43.5q0 24 -21.5 38.5t-56.5 14.5h-31v42h27q30 0 50 17.5t20 42.5q0 24 -20 39.5t-51 15.5q-28 0 -49 -10t-43 -32l-35 33
q25 26 58.5 40.5t70.5 14.5q52 0 87 -27.5t34 -69.5q1 -26 -14.5 -47.5t-42.5 -33.5q31 -10 50.5 -31.5t19.5 -50.5zM638 350v-218h43v-44h-43v-88h-52v88h-198v42l192 220h58zM449 132h137v157zM193 0h-61l393 700h62z" />
    <glyph glyph-name="questiondown" unicode="&#xbf;" horiz-adv-x="506" 
d="M152 340l34 24q37 25 52 59t11 84h64q4 -68 -14.5 -111t-67.5 -78l-44 -31q-43 -31 -61 -57.5t-18 -60.5q0 -46 42.5 -77t102.5 -31q49 0 92.5 23t77.5 67l58 -38q-43 -57 -103 -87.5t-129 -30.5q-46 0 -85 13t-67.5 36t-45 55t-16.5 69q0 51 25.5 88.5t91.5 83.5z
M281 607q-21 0 -36 15t-15 36t15 36t36 15t36 -15t15 -36t-15 -36t-36 -15z" />
    <glyph glyph-name="Agrave" unicode="&#xc0;" horiz-adv-x="679" 
d="M4 0zM4 0l291 700h93l287 -700h-84l-88 220h-330l-89 -220h-80zM200 286h276l-137 342zM299 915l92 -116h-65l-123 116h96z" />
    <glyph glyph-name="Aacute" unicode="&#xc1;" horiz-adv-x="679" 
d="M4 0zM4 0l291 700h93l287 -700h-84l-88 220h-330l-89 -220h-80zM200 286h276l-137 342zM380 915h95l-124 -116h-65z" />
    <glyph glyph-name="Acircumflex" unicode="&#xc2;" horiz-adv-x="679" 
d="M4 0zM4 0l291 700h93l287 -700h-84l-88 220h-330l-89 -220h-80zM200 286h276l-137 342zM423 795l-84 80l-83 -80h-60l104 121h80l104 -121h-61z" />
    <glyph glyph-name="Atilde" unicode="&#xc3;" horiz-adv-x="679" 
d="M4 0zM4 0l291 700h93l287 -700h-84l-88 220h-330l-89 -220h-80zM200 286h276l-137 342zM228 793l-52 10q11 50 34 75t60 25q20 0 39.5 -8.5t37.5 -19t35 -19t33 -8.5q17 0 27.5 13t17.5 44l51 -10q-10 -50 -34 -75t-60 -25q-20 0 -39 8.5t-37.5 19t-35.5 19t-33 8.5
q-18 0 -28 -13t-16 -44z" />
    <glyph glyph-name="Adieresis" unicode="&#xc4;" horiz-adv-x="679" 
d="M4 0zM4 0l291 700h93l287 -700h-84l-88 220h-330l-89 -220h-80zM200 286h276l-137 342zM253 809q-21 0 -35.5 14t-14.5 35q0 20 14.5 34t35.5 14t35 -14t14 -34q0 -21 -14.5 -35t-34.5 -14zM428 809q-21 0 -35 14t-14 35q0 20 14 34t35 14q22 0 35.5 -14t13.5 -34
q0 -21 -14 -35t-35 -14z" />
    <glyph glyph-name="Aring" unicode="&#xc5;" horiz-adv-x="679" 
d="M4 0zM4 0l291 700h93l287 -700h-84l-88 220h-330l-89 -220h-80zM200 286h276l-137 342zM340 781q-47 0 -79.5 33t-32.5 79t32.5 78t79.5 32q46 0 78.5 -32t32.5 -78t-32.5 -79t-78.5 -33zM340 822q28 0 48 20.5t20 50.5q0 28 -20 48.5t-48 20.5q-29 0 -49 -20t-20 -49
q0 -31 20 -51t49 -20z" />
    <glyph glyph-name="AE" unicode="&#xc6;" horiz-adv-x="953" 
d="M4 0l291 700h624v-68h-501l99 -245h261v-67h-234l101 -252h274v-68h-328l-88 220h-330l-89 -220h-80zM200 286h276l-137 342z" />
    <glyph glyph-name="Ccedilla" unicode="&#xc7;" horiz-adv-x="722" 
d="M409 60q65 0 124 25.5t99 70.5l50 -52q-49 -51 -116 -81t-141 -34l-12 -44q43 -2 69 -24t26 -58q0 -40 -32.5 -65.5t-82.5 -25.5q-33 0 -62 10.5t-51 30.5l30 32q19 -16 40 -24t43 -8q30 0 47 13.5t17 35.5t-18.5 34.5t-50.5 12.5h-29l23 81q-72 4 -134 34t-107 78
t-71 112t-26 136q0 75 28 141.5t77 115t115.5 76.5t142.5 28q81 0 153.5 -30.5t123.5 -84.5l-51 -54q-41 46 -101.5 72t-124.5 26q-60 0 -112.5 -22.5t-90.5 -61t-60 -92t-22 -114.5t22 -114.5t60.5 -92t91 -61t113.5 -22.5z" />
    <glyph glyph-name="Egrave" unicode="&#xc8;" horiz-adv-x="616" 
d="M77 0zM77 0v700h501v-68h-424v-245h277v-67h-277v-252h428v-68h-505zM300 915l92 -116h-65l-123 116h96z" />
    <glyph glyph-name="Eacute" unicode="&#xc9;" horiz-adv-x="616" 
d="M77 0zM77 0v700h501v-68h-424v-245h277v-67h-277v-252h428v-68h-505zM380 915h95l-124 -116h-65z" />
    <glyph glyph-name="Ecircumflex" unicode="&#xca;" horiz-adv-x="616" 
d="M77 0zM77 0v700h501v-68h-424v-245h277v-67h-277v-252h428v-68h-505zM424 795l-84 80l-83 -80h-60l104 121h80l104 -121h-61z" />
    <glyph glyph-name="Edieresis" unicode="&#xcb;" horiz-adv-x="616" 
d="M77 0zM77 0v700h501v-68h-424v-245h277v-67h-277v-252h428v-68h-505zM253 809q-21 0 -35.5 14t-14.5 35q0 20 14.5 34t35.5 14t35 -14t14 -34q0 -21 -14.5 -35t-34.5 -14zM428 809q-21 0 -35 14t-14 35q0 20 14 34t35 14q22 0 35.5 -14t13.5 -34q0 -21 -14 -35t-35 -14z
" />
    <glyph glyph-name="Igrave" unicode="&#xcc;" horiz-adv-x="231" 
d="M0 0zM77 0v700h77v-700h-77zM75 915l92 -116h-65l-123 116h96z" />
    <glyph glyph-name="Iacute" unicode="&#xcd;" horiz-adv-x="231" 
d="M61 0zM77 0v700h77v-700h-77zM155 915h95l-124 -116h-65z" />
    <glyph glyph-name="Icircumflex" unicode="&#xce;" horiz-adv-x="231" 
d="M0 0zM77 0v700h77v-700h-77zM199 795l-84 80l-83 -80h-60l104 121h80l104 -121h-61z" />
    <glyph glyph-name="Idieresis" unicode="&#xcf;" horiz-adv-x="231" 
d="M0 0zM77 0v700h77v-700h-77zM28 809q-21 0 -35.5 14t-14.5 35q0 20 14.5 34t35.5 14t35 -14t14 -34q0 -21 -14.5 -35t-34.5 -14zM203 809q-21 0 -35 14t-14 35q0 20 14 34t35 14q22 0 35.5 -14t13.5 -34q0 -21 -14 -35t-35 -14z" />
    <glyph glyph-name="Eth" unicode="&#xd0;" horiz-adv-x="744" 
d="M100 0v317h-87v66h87v317h231q79 0 147 -26.5t117 -72.5t76.5 -110.5t27.5 -140.5t-27.5 -140.5t-76 -110.5t-116.5 -72.5t-148 -26.5h-231zM335 630h-158v-247h189v-66h-189v-247h158q60 0 113 21.5t91 59t60 89t22 110.5t-22 110.5t-60 89t-91 59t-113 21.5z" />
    <glyph glyph-name="Ntilde" unicode="&#xd1;" horiz-adv-x="725" 
d="M77 0zM77 700h77l421 -568v568h73v-700h-68l-430 583v-583h-73v700zM251 793l-52 10q11 50 34 75t60 25q20 0 39.5 -8.5t37.5 -19t35 -19t33 -8.5q17 0 27.5 13t17.5 44l51 -10q-10 -50 -34 -75t-60 -25q-20 0 -39 8.5t-37.5 19t-35.5 19t-33 8.5q-18 0 -28 -13t-16 -44z
" />
    <glyph glyph-name="Ograve" unicode="&#xd2;" horiz-adv-x="809" 
d="M44 0zM765 350q0 -75 -28 -141.5t-76.5 -115t-114.5 -76.5t-141 -28t-141.5 28t-115 76.5t-76.5 115t-28 141.5t28 141.5t76.5 115t115 76.5t141.5 28t141 -28t114.5 -76.5t76.5 -115t28 -141.5zM687 350q0 61 -22 114.5t-59.5 92t-89.5 61t-111 22.5q-60 0 -112 -22.5
t-89.5 -61t-59.5 -92t-22 -114.5t22 -114t59.5 -92t89.5 -61.5t112 -22.5q59 0 111 22.5t89.5 61.5t59.5 92t22 114zM364 915l92 -116h-65l-123 116h96z" />
    <glyph glyph-name="Oacute" unicode="&#xd3;" horiz-adv-x="809" 
d="M44 0zM765 350q0 -75 -28 -141.5t-76.5 -115t-114.5 -76.5t-141 -28t-141.5 28t-115 76.5t-76.5 115t-28 141.5t28 141.5t76.5 115t115 76.5t141.5 28t141 -28t114.5 -76.5t76.5 -115t28 -141.5zM687 350q0 61 -22 114.5t-59.5 92t-89.5 61t-111 22.5q-60 0 -112 -22.5
t-89.5 -61t-59.5 -92t-22 -114.5t22 -114t59.5 -92t89.5 -61.5t112 -22.5q59 0 111 22.5t89.5 61.5t59.5 92t22 114zM445 915h95l-124 -116h-65z" />
    <glyph glyph-name="Ocircumflex" unicode="&#xd4;" horiz-adv-x="809" 
d="M44 0zM765 350q0 -75 -28 -141.5t-76.5 -115t-114.5 -76.5t-141 -28t-141.5 28t-115 76.5t-76.5 115t-28 141.5t28 141.5t76.5 115t115 76.5t141.5 28t141 -28t114.5 -76.5t76.5 -115t28 -141.5zM687 350q0 61 -22 114.5t-59.5 92t-89.5 61t-111 22.5q-60 0 -112 -22.5
t-89.5 -61t-59.5 -92t-22 -114.5t22 -114t59.5 -92t89.5 -61.5t112 -22.5q59 0 111 22.5t89.5 61.5t59.5 92t22 114zM488 795l-84 80l-83 -80h-60l104 121h80l104 -121h-61z" />
    <glyph glyph-name="Otilde" unicode="&#xd5;" horiz-adv-x="809" 
d="M44 0zM765 350q0 -75 -28 -141.5t-76.5 -115t-114.5 -76.5t-141 -28t-141.5 28t-115 76.5t-76.5 115t-28 141.5t28 141.5t76.5 115t115 76.5t141.5 28t141 -28t114.5 -76.5t76.5 -115t28 -141.5zM687 350q0 61 -22 114.5t-59.5 92t-89.5 61t-111 22.5q-60 0 -112 -22.5
t-89.5 -61t-59.5 -92t-22 -114.5t22 -114t59.5 -92t89.5 -61.5t112 -22.5q59 0 111 22.5t89.5 61.5t59.5 92t22 114zM293 793l-52 10q11 50 34 75t60 25q20 0 39.5 -8.5t37.5 -19t35 -19t33 -8.5q17 0 27.5 13t17.5 44l51 -10q-10 -50 -34 -75t-60 -25q-20 0 -39 8.5
t-37.5 19t-35.5 19t-33 8.5q-18 0 -28 -13t-16 -44z" />
    <glyph glyph-name="Odieresis" unicode="&#xd6;" horiz-adv-x="809" 
d="M44 0zM765 350q0 -75 -28 -141.5t-76.5 -115t-114.5 -76.5t-141 -28t-141.5 28t-115 76.5t-76.5 115t-28 141.5t28 141.5t76.5 115t115 76.5t141.5 28t141 -28t114.5 -76.5t76.5 -115t28 -141.5zM687 350q0 61 -22 114.5t-59.5 92t-89.5 61t-111 22.5q-60 0 -112 -22.5
t-89.5 -61t-59.5 -92t-22 -114.5t22 -114t59.5 -92t89.5 -61.5t112 -22.5q59 0 111 22.5t89.5 61.5t59.5 92t22 114zM317 809q-21 0 -35.5 14t-14.5 35q0 20 14.5 34t35.5 14t35 -14t14 -34q0 -21 -14.5 -35t-34.5 -14zM492 809q-21 0 -35 14t-14 35q0 20 14 34t35 14
q22 0 35.5 -14t13.5 -34q0 -21 -14 -35t-35 -14z" />
    <glyph glyph-name="multiply" unicode="&#xd7;" horiz-adv-x="544" 
d="M116 162l-39 40l155 157l-155 157l40 41l155 -157l155 157l39 -40l-155 -157l156 -158l-40 -41l-156 158z" />
    <glyph glyph-name="Oslash" unicode="&#xd8;" horiz-adv-x="809" 
d="M151 0h-79l77 93q-49 49 -77 115.5t-28 141.5t28 141.5t76.5 115t115 76.5t141.5 28q57 0 109 -16.5t95 -45.5l42 51h81l-75 -90q50 -49 79 -116t29 -144q0 -75 -28 -141.5t-76.5 -115t-114.5 -76.5t-141 -28q-58 0 -111.5 17t-97.5 48zM122 350q0 -58 20 -109.5
t55 -89.5l365 442q-33 22 -73 34.5t-84 12.5q-60 0 -112 -22.5t-89.5 -61t-59.5 -92t-22 -114.5zM687 350q0 60 -20.5 112t-56.5 90l-367 -442q34 -23 75 -36.5t87 -13.5q59 0 111 22.5t89.5 61.5t59.5 92t22 114z" />
    <glyph glyph-name="Ugrave" unicode="&#xd9;" horiz-adv-x="704" 
d="M63 0zM641 296q0 -140 -78.5 -223.5t-210.5 -83.5q-133 0 -211 83t-78 224v404h77v-404q0 -107 58 -171.5t154 -64.5t154 64.5t58 171.5v404h77v-404zM311 915l92 -116h-65l-123 116h96z" />
    <glyph glyph-name="Uacute" unicode="&#xda;" horiz-adv-x="704" 
d="M63 0zM641 296q0 -140 -78.5 -223.5t-210.5 -83.5q-133 0 -211 83t-78 224v404h77v-404q0 -107 58 -171.5t154 -64.5t154 64.5t58 171.5v404h77v-404zM392 915h95l-124 -116h-65z" />
    <glyph glyph-name="Ucircumflex" unicode="&#xdb;" horiz-adv-x="704" 
d="M63 0zM641 296q0 -140 -78.5 -223.5t-210.5 -83.5q-133 0 -211 83t-78 224v404h77v-404q0 -107 58 -171.5t154 -64.5t154 64.5t58 171.5v404h77v-404zM435 795l-84 80l-83 -80h-60l104 121h80l104 -121h-61z" />
    <glyph glyph-name="Udieresis" unicode="&#xdc;" horiz-adv-x="704" 
d="M63 0zM641 296q0 -140 -78.5 -223.5t-210.5 -83.5q-133 0 -211 83t-78 224v404h77v-404q0 -107 58 -171.5t154 -64.5t154 64.5t58 171.5v404h77v-404zM265 809q-21 0 -35.5 14t-14.5 35q0 20 14.5 34t35.5 14t35 -14t14 -34q0 -21 -14.5 -35t-34.5 -14zM440 809
q-21 0 -35 14t-14 35q0 20 14 34t35 14q22 0 35.5 -14t13.5 -34q0 -21 -14 -35t-35 -14z" />
    <glyph glyph-name="Yacute" unicode="&#xdd;" horiz-adv-x="639" 
d="M3 0zM281 0v285l-278 415h90l229 -347l228 347h87l-279 -418v-282h-77zM360 915h95l-124 -116h-65z" />
    <glyph glyph-name="Thorn" unicode="&#xde;" horiz-adv-x="637" 
d="M77 0v700h77v-141h229q46 0 85.5 -16t68 -44t45 -66.5t16.5 -83.5q0 -44 -16.5 -82t-45 -65.5t-68 -43.5t-85.5 -16h-229v-142h-77zM375 490h-221v-281h221q61 0 103 40t42 100t-42 101t-103 40z" />
    <glyph glyph-name="germandbls" unicode="&#xdf;" horiz-adv-x="628" 
d="M337 364q0 -19 14 -31t54 -26l77 -26q66 -23 95 -56t29 -84q0 -68 -50.5 -110t-131.5 -42q-57 0 -106 20.5t-90 60.5l45 43q34 -34 70.5 -50.5t79.5 -16.5q51 0 82.5 24t31.5 64q0 34 -18.5 54.5t-64.5 36.5l-80 26q-60 20 -84.5 43.5t-24.5 60.5q0 45 30.5 70t66.5 44.5
t66.5 41.5t30.5 62q0 44 -43 72t-109 28q-83 0 -127 -49t-44 -140v-484h-73v482q0 119 64.5 186t177.5 67q102 0 164 -43t62 -113q0 -54 -30.5 -84t-66.5 -50t-66.5 -36.5t-30.5 -44.5z" />
    <glyph glyph-name="agrave" unicode="&#xe0;" horiz-adv-x="516" 
d="M36 0zM221 -9q-82 0 -133.5 42t-51.5 109q0 70 54 111.5t146 41.5q40 0 77.5 -9t69.5 -25v66q0 60 -34 90.5t-99 30.5q-37 0 -74.5 -10.5t-82.5 -33.5l-28 57q54 26 100 38t92 12q95 0 146.5 -45t51.5 -129v-337h-72v49q-34 -29 -74.5 -43.5t-87.5 -14.5zM107 144
q0 -42 35.5 -68.5t91.5 -26.5q45 0 82 14t67 44v94q-31 21 -66.5 30.5t-78.5 9.5q-60 0 -95.5 -26.5t-35.5 -70.5zM208 716l92 -116h-65l-123 116h96z" />
    <glyph glyph-name="aacute" unicode="&#xe1;" horiz-adv-x="516" 
d="M36 0zM221 -9q-82 0 -133.5 42t-51.5 109q0 70 54 111.5t146 41.5q40 0 77.5 -9t69.5 -25v66q0 60 -34 90.5t-99 30.5q-37 0 -74.5 -10.5t-82.5 -33.5l-28 57q54 26 100 38t92 12q95 0 146.5 -45t51.5 -129v-337h-72v49q-34 -29 -74.5 -43.5t-87.5 -14.5zM107 144
q0 -42 35.5 -68.5t91.5 -26.5q45 0 82 14t67 44v94q-31 21 -66.5 30.5t-78.5 9.5q-60 0 -95.5 -26.5t-35.5 -70.5zM289 716h95l-124 -116h-65z" />
    <glyph glyph-name="acircumflex" unicode="&#xe2;" horiz-adv-x="516" 
d="M36 0zM221 -9q-82 0 -133.5 42t-51.5 109q0 70 54 111.5t146 41.5q40 0 77.5 -9t69.5 -25v66q0 60 -34 90.5t-99 30.5q-37 0 -74.5 -10.5t-82.5 -33.5l-28 57q54 26 100 38t92 12q95 0 146.5 -45t51.5 -129v-337h-72v49q-34 -29 -74.5 -43.5t-87.5 -14.5zM107 144
q0 -42 35.5 -68.5t91.5 -26.5q45 0 82 14t67 44v94q-31 21 -66.5 30.5t-78.5 9.5q-60 0 -95.5 -26.5t-35.5 -70.5zM332 596l-84 80l-83 -80h-60l104 121h80l104 -121h-61z" />
    <glyph glyph-name="atilde" unicode="&#xe3;" horiz-adv-x="516" 
d="M36 0zM221 -9q-82 0 -133.5 42t-51.5 109q0 70 54 111.5t146 41.5q40 0 77.5 -9t69.5 -25v66q0 60 -34 90.5t-99 30.5q-37 0 -74.5 -10.5t-82.5 -33.5l-28 57q54 26 100 38t92 12q95 0 146.5 -45t51.5 -129v-337h-72v49q-34 -29 -74.5 -43.5t-87.5 -14.5zM107 144
q0 -42 35.5 -68.5t91.5 -26.5q45 0 82 14t67 44v94q-31 21 -66.5 30.5t-78.5 9.5q-60 0 -95.5 -26.5t-35.5 -70.5zM137 594l-52 10q11 50 34 75t60 25q20 0 39.5 -8.5t37.5 -19t35 -19t33 -8.5q17 0 27.5 13t17.5 44l51 -10q-10 -50 -34 -75t-60 -25q-20 0 -39 8.5t-37.5 19
t-35.5 19t-33 8.5q-18 0 -28 -13t-16 -44z" />
    <glyph glyph-name="adieresis" unicode="&#xe4;" horiz-adv-x="516" 
d="M36 0zM221 -9q-82 0 -133.5 42t-51.5 109q0 70 54 111.5t146 41.5q40 0 77.5 -9t69.5 -25v66q0 60 -34 90.5t-99 30.5q-37 0 -74.5 -10.5t-82.5 -33.5l-28 57q54 26 100 38t92 12q95 0 146.5 -45t51.5 -129v-337h-72v49q-34 -29 -74.5 -43.5t-87.5 -14.5zM107 144
q0 -42 35.5 -68.5t91.5 -26.5q45 0 82 14t67 44v94q-31 21 -66.5 30.5t-78.5 9.5q-60 0 -95.5 -26.5t-35.5 -70.5zM162 610q-21 0 -35.5 14t-14.5 35q0 20 14.5 34t35.5 14t35 -14t14 -34q0 -21 -14.5 -35t-34.5 -14zM337 610q-21 0 -35 14t-14 35q0 20 14 34t35 14
q22 0 35.5 -14t13.5 -34q0 -21 -14 -35t-35 -14z" />
    <glyph glyph-name="aring" unicode="&#xe5;" horiz-adv-x="516" 
d="M36 0zM221 -9q-82 0 -133.5 42t-51.5 109q0 70 54 111.5t146 41.5q40 0 77.5 -9t69.5 -25v66q0 60 -34 90.5t-99 30.5q-37 0 -74.5 -10.5t-82.5 -33.5l-28 57q54 26 100 38t92 12q95 0 146.5 -45t51.5 -129v-337h-72v49q-34 -29 -74.5 -43.5t-87.5 -14.5zM107 144
q0 -42 35.5 -68.5t91.5 -26.5q45 0 82 14t67 44v94q-31 21 -66.5 30.5t-78.5 9.5q-60 0 -95.5 -26.5t-35.5 -70.5zM249 582q-47 0 -79.5 33t-32.5 79t32.5 78t79.5 32q46 0 78.5 -32t32.5 -78t-32.5 -79t-78.5 -33zM249 623q28 0 48 20.5t20 50.5q0 28 -20 48.5t-48 20.5
q-29 0 -49 -20t-20 -49q0 -31 20 -51t49 -20z" />
    <glyph glyph-name="ae" unicode="&#xe6;" horiz-adv-x="907" 
d="M221 -9q-82 0 -133 42t-51 109q0 69 55 111t147 42q39 0 76 -8t68 -24v64q0 60 -34 90.5t-99 30.5q-37 0 -74.5 -10.5t-82.5 -33.5l-28 57q54 26 100 38t92 12q70 0 117 -25t66 -73q33 45 82.5 70.5t107.5 25.5q50 0 93.5 -20t75 -55t50 -82t18.5 -101v-23h-411
q8 -74 61 -123t127 -49q39 0 76 12t62 34l46 -49q-42 -31 -87.5 -46.5t-99.5 -15.5q-63 0 -117.5 27.5t-88.5 73.5q-41 -49 -95.5 -75t-118.5 -26zM628 444q-65 0 -112.5 -44t-57.5 -113h335q-10 66 -56.5 111.5t-108.5 45.5zM108 144q0 -42 35.5 -68.5t90.5 -26.5
q51 0 94.5 22t79.5 66q-7 15 -12 31t-9 33q-31 21 -67 30.5t-79 9.5q-60 0 -96.5 -27t-36.5 -70z" />
    <glyph glyph-name="ccedilla" unicode="&#xe7;" horiz-adv-x="513" 
d="M297 58q40 0 77 16t69 47l46 -50q-36 -34 -80.5 -54.5t-93.5 -24.5l-13 -47q43 -2 69 -24t26 -58q0 -40 -32.5 -65.5t-82.5 -25.5q-33 0 -62 10.5t-51 30.5l30 32q19 -16 40 -24t43 -8q30 0 47 13.5t17 35.5t-18.5 34.5t-50.5 12.5h-29l24 83q-49 4 -92 26t-73.5 56.5
t-48.5 80t-18 96.5q0 54 20 101.5t54 82.5t81 55.5t100 20.5q54 0 105.5 -21t90.5 -58l-47 -54q-30 31 -69 48t-79 17q-38 0 -72 -15t-58.5 -41t-38.5 -61t-14 -75q0 -41 14.5 -76.5t39 -61t58.5 -40.5t72 -15z" />
    <glyph glyph-name="egrave" unicode="&#xe8;" horiz-adv-x="564" 
d="M40 0zM485 53q-42 -31 -87.5 -46.5t-99.5 -15.5t-101.5 20t-82 55t-54.5 82.5t-20 102.5q0 54 19.5 101t52.5 82t78.5 55t96.5 20q50 0 93.5 -20t75 -55t50 -82t18.5 -101v-23h-411q8 -74 61 -123t127 -49q39 0 76 12t62 34zM285 444q-65 0 -112.5 -44t-57.5 -113h335
q-10 66 -56.5 111.5t-108.5 45.5zM245 716l92 -116h-65l-123 116h96z" />
    <glyph glyph-name="eacute" unicode="&#xe9;" horiz-adv-x="564" 
d="M40 0zM485 53q-42 -31 -87.5 -46.5t-99.5 -15.5t-101.5 20t-82 55t-54.5 82.5t-20 102.5q0 54 19.5 101t52.5 82t78.5 55t96.5 20q50 0 93.5 -20t75 -55t50 -82t18.5 -101v-23h-411q8 -74 61 -123t127 -49q39 0 76 12t62 34zM285 444q-65 0 -112.5 -44t-57.5 -113h335
q-10 66 -56.5 111.5t-108.5 45.5zM326 716h95l-124 -116h-65z" />
    <glyph glyph-name="ecircumflex" unicode="&#xea;" horiz-adv-x="564" 
d="M40 0zM485 53q-42 -31 -87.5 -46.5t-99.5 -15.5t-101.5 20t-82 55t-54.5 82.5t-20 102.5q0 54 19.5 101t52.5 82t78.5 55t96.5 20q50 0 93.5 -20t75 -55t50 -82t18.5 -101v-23h-411q8 -74 61 -123t127 -49q39 0 76 12t62 34zM285 444q-65 0 -112.5 -44t-57.5 -113h335
q-10 66 -56.5 111.5t-108.5 45.5zM369 596l-84 80l-83 -80h-60l104 121h80l104 -121h-61z" />
    <glyph glyph-name="edieresis" unicode="&#xeb;" horiz-adv-x="564" 
d="M40 0zM485 53q-42 -31 -87.5 -46.5t-99.5 -15.5t-101.5 20t-82 55t-54.5 82.5t-20 102.5q0 54 19.5 101t52.5 82t78.5 55t96.5 20q50 0 93.5 -20t75 -55t50 -82t18.5 -101v-23h-411q8 -74 61 -123t127 -49q39 0 76 12t62 34zM285 444q-65 0 -112.5 -44t-57.5 -113h335
q-10 66 -56.5 111.5t-108.5 45.5zM199 610q-21 0 -35.5 14t-14.5 35q0 20 14.5 34t35.5 14t35 -14t14 -34q0 -21 -14.5 -35t-34.5 -14zM374 610q-21 0 -35 14t-14 35q0 20 14 34t35 14q22 0 35.5 -14t13.5 -34q0 -21 -14 -35t-35 -14z" />
    <glyph glyph-name="igrave" unicode="&#xec;" horiz-adv-x="199" 
d="M0 0zM137 501v-501h-74v501h74zM59 716l92 -116h-65l-123 116h96z" />
    <glyph glyph-name="iacute" unicode="&#xed;" horiz-adv-x="199" 
d="M45 0zM137 501v-501h-74v501h74zM139 716h95l-124 -116h-65z" />
    <glyph glyph-name="icircumflex" unicode="&#xee;" horiz-adv-x="199" 
d="M0 0zM137 501v-501h-74v501h74zM183 596l-84 80l-83 -80h-60l104 121h80l104 -121h-61z" />
    <glyph glyph-name="idieresis" unicode="&#xef;" horiz-adv-x="199" 
d="M0 0zM137 501v-501h-74v501h74zM12 610q-21 0 -35.5 14t-14.5 35q0 20 14.5 34t35.5 14t35 -14t14 -34q0 -21 -14.5 -35t-34.5 -14zM187 610q-21 0 -35 14t-14 35q0 20 14 34t35 14q22 0 35.5 -14t13.5 -34q0 -21 -14 -35t-35 -14z" />
    <glyph glyph-name="eth" unicode="&#xf0;" horiz-adv-x="601" 
d="M263 528l-31 46l87 54q-23 16 -50 28.5t-57 20.5l30 54q38 -12 72.5 -28.5t63.5 -38.5l110 69l31 -46l-97 -60q61 -60 93.5 -145t32.5 -190q0 -68 -18.5 -124t-52 -95.5t-81.5 -61t-106 -21.5q-52 0 -98 20t-79 54t-52.5 81t-19.5 101q0 51 19 96t51.5 77.5t77.5 51.5
t96 19q61 0 110 -28.5t77 -77.5q-10 62 -37.5 115t-69.5 93zM292 57q75 0 126.5 53.5t51.5 131.5t-51.5 131t-126.5 53t-127 -53t-52 -131t52 -131.5t127 -53.5z" />
    <glyph glyph-name="ntilde" unicode="&#xf1;" 
d="M63 0zM63 0v501h74v-59q29 34 69 51.5t89 17.5q85 0 139 -54t54 -140v-317h-73v302q0 66 -38 105t-102 39q-45 0 -80.5 -20t-57.5 -57v-369h-74zM165 594l-52 10q11 50 34 75t60 25q20 0 39.5 -8.5t37.5 -19t35 -19t33 -8.5q17 0 27.5 13t17.5 44l51 -10q-10 -50 -34 -75
t-60 -25q-20 0 -39 8.5t-37.5 19t-35.5 19t-33 8.5q-18 0 -28 -13t-16 -44z" />
    <glyph glyph-name="ograve" unicode="&#xf2;" horiz-adv-x="591" 
d="M40 0zM40 251q0 54 20 102t54.5 83t81.5 55t100 20t99.5 -20t81 -55t54.5 -83t20 -102q0 -55 -20 -103t-54.5 -83t-81 -55t-99.5 -20t-100 20t-81.5 55t-54.5 83t-20 103zM296 56q38 0 71.5 15t58 41.5t38.5 62t14 76.5t-14 76.5t-38.5 61.5t-58 41t-71.5 15t-71.5 -15
t-58 -41t-39 -61.5t-14.5 -76.5t14 -76.5t38.5 -62t58.5 -41.5t72 -15zM255 716l92 -116h-65l-123 116h96z" />
    <glyph glyph-name="oacute" unicode="&#xf3;" horiz-adv-x="591" 
d="M40 0zM40 251q0 54 20 102t54.5 83t81.5 55t100 20t99.5 -20t81 -55t54.5 -83t20 -102q0 -55 -20 -103t-54.5 -83t-81 -55t-99.5 -20t-100 20t-81.5 55t-54.5 83t-20 103zM296 56q38 0 71.5 15t58 41.5t38.5 62t14 76.5t-14 76.5t-38.5 61.5t-58 41t-71.5 15t-71.5 -15
t-58 -41t-39 -61.5t-14.5 -76.5t14 -76.5t38.5 -62t58.5 -41.5t72 -15zM336 716h95l-124 -116h-65z" />
    <glyph glyph-name="ocircumflex" unicode="&#xf4;" horiz-adv-x="591" 
d="M40 0zM40 251q0 54 20 102t54.5 83t81.5 55t100 20t99.5 -20t81 -55t54.5 -83t20 -102q0 -55 -20 -103t-54.5 -83t-81 -55t-99.5 -20t-100 20t-81.5 55t-54.5 83t-20 103zM296 56q38 0 71.5 15t58 41.5t38.5 62t14 76.5t-14 76.5t-38.5 61.5t-58 41t-71.5 15t-71.5 -15
t-58 -41t-39 -61.5t-14.5 -76.5t14 -76.5t38.5 -62t58.5 -41.5t72 -15zM379 596l-84 80l-83 -80h-60l104 121h80l104 -121h-61z" />
    <glyph glyph-name="otilde" unicode="&#xf5;" horiz-adv-x="591" 
d="M40 0zM40 251q0 54 20 102t54.5 83t81.5 55t100 20t99.5 -20t81 -55t54.5 -83t20 -102q0 -55 -20 -103t-54.5 -83t-81 -55t-99.5 -20t-100 20t-81.5 55t-54.5 83t-20 103zM296 56q38 0 71.5 15t58 41.5t38.5 62t14 76.5t-14 76.5t-38.5 61.5t-58 41t-71.5 15t-71.5 -15
t-58 -41t-39 -61.5t-14.5 -76.5t14 -76.5t38.5 -62t58.5 -41.5t72 -15zM184 594l-52 10q11 50 34 75t60 25q20 0 39.5 -8.5t37.5 -19t35 -19t33 -8.5q17 0 27.5 13t17.5 44l51 -10q-10 -50 -34 -75t-60 -25q-20 0 -39 8.5t-37.5 19t-35.5 19t-33 8.5q-18 0 -28 -13t-16 -44z
" />
    <glyph glyph-name="odieresis" unicode="&#xf6;" horiz-adv-x="591" 
d="M40 0zM40 251q0 54 20 102t54.5 83t81.5 55t100 20t99.5 -20t81 -55t54.5 -83t20 -102q0 -55 -20 -103t-54.5 -83t-81 -55t-99.5 -20t-100 20t-81.5 55t-54.5 83t-20 103zM296 56q38 0 71.5 15t58 41.5t38.5 62t14 76.5t-14 76.5t-38.5 61.5t-58 41t-71.5 15t-71.5 -15
t-58 -41t-39 -61.5t-14.5 -76.5t14 -76.5t38.5 -62t58.5 -41.5t72 -15zM208 610q-21 0 -35.5 14t-14.5 35q0 20 14.5 34t35.5 14t35 -14t14 -34q0 -21 -14.5 -35t-34.5 -14zM383 610q-21 0 -35 14t-14 35q0 20 14 34t35 14q22 0 35.5 -14t13.5 -34q0 -21 -14 -35t-35 -14z
" />
    <glyph glyph-name="divide" unicode="&#xf7;" horiz-adv-x="525" 
d="M263 494q-21 0 -36 15t-15 36t15 36t36 15t36 -15t15 -36t-15 -36t-36 -15zM55 327v62h415v-62h-415zM263 119q-21 0 -36 15t-15 36t15 36t36 15t36 -15t15 -36t-15 -36t-36 -15z" />
    <glyph glyph-name="oslash" unicode="&#xf8;" horiz-adv-x="591" 
d="M53 0l58 69q-33 35 -52 81.5t-19 100.5t20 102t54.5 83t81.5 55t100 20q40 0 77 -12t68 -33l30 35h66l-57 -68q33 -35 52 -82t19 -100q0 -55 -20 -103t-54.5 -83t-81 -55t-99.5 -20q-41 0 -78.5 12t-68.5 34l-30 -36h-66zM113 251q0 -37 11.5 -69.5t31.5 -57.5l242 289
q-22 15 -48 23.5t-54 8.5q-38 0 -71.5 -15t-58 -41t-39 -61.5t-14.5 -76.5zM296 56q38 0 71.5 15t58 41.5t38.5 62t14 76.5q0 37 -11.5 69.5t-31.5 57.5l-242 -289q22 -16 48 -24.5t55 -8.5z" />
    <glyph glyph-name="ugrave" unicode="&#xf9;" 
d="M61 0zM134 501v-302q0 -66 38 -105t102 -39q45 0 80.5 20.5t57.5 57.5v368h74v-501h-74v58q-29 -34 -68.5 -51t-88.5 -17q-86 0 -140 54t-54 140v317h73zM235 716l92 -116h-65l-123 116h96z" />
    <glyph glyph-name="uacute" unicode="&#xfa;" 
d="M61 0zM134 501v-302q0 -66 38 -105t102 -39q45 0 80.5 20.5t57.5 57.5v368h74v-501h-74v58q-29 -34 -68.5 -51t-88.5 -17q-86 0 -140 54t-54 140v317h73zM315 716h95l-124 -116h-65z" />
    <glyph glyph-name="ucircumflex" unicode="&#xfb;" 
d="M61 0zM134 501v-302q0 -66 38 -105t102 -39q45 0 80.5 20.5t57.5 57.5v368h74v-501h-74v58q-29 -34 -68.5 -51t-88.5 -17q-86 0 -140 54t-54 140v317h73zM359 596l-84 80l-83 -80h-60l104 121h80l104 -121h-61z" />
    <glyph glyph-name="udieresis" unicode="&#xfc;" 
d="M61 0zM134 501v-302q0 -66 38 -105t102 -39q45 0 80.5 20.5t57.5 57.5v368h74v-501h-74v58q-29 -34 -68.5 -51t-88.5 -17q-86 0 -140 54t-54 140v317h73zM188 610q-21 0 -35.5 14t-14.5 35q0 20 14.5 34t35.5 14t35 -14t14 -34q0 -21 -14.5 -35t-34.5 -14zM363 610
q-21 0 -35 14t-14 35q0 20 14 34t35 14q22 0 35.5 -14t13.5 -34q0 -21 -14 -35t-35 -14z" />
    <glyph glyph-name="yacute" unicode="&#xfd;" horiz-adv-x="510" 
d="M5 0zM180 -65l29 66l-204 500h82l162 -411l175 411h80l-249 -576q-32 -72 -71 -104t-99 -32q-14 0 -26.5 1.5t-20.5 3.5v67q10 -2 19.5 -3t22.5 -1q34 0 58 19t42 59zM290 716h95l-124 -116h-65z" />
    <glyph glyph-name="thorn" unicode="&#xfe;" horiz-adv-x="591" 
d="M63 -205v905l74 17v-269q31 30 72.5 45.5t88.5 15.5q53 0 99 -20t80 -54.5t53.5 -82t19.5 -101.5t-19.5 -102t-53.5 -82.5t-80.5 -54.5t-99.5 -20q-44 0 -85 15t-75 43v-255h-74zM291 444q-47 0 -87.5 -18.5t-66.5 -51.5v-248q26 -32 67 -50.5t87 -18.5q79 0 132.5 55.5
t53.5 137.5q0 41 -14.5 76.5t-39.5 61.5t-59 41t-73 15z" />
    <glyph glyph-name="ydieresis" unicode="&#xff;" horiz-adv-x="510" 
d="M5 0zM180 -65l29 66l-204 500h82l162 -411l175 411h80l-249 -576q-32 -72 -71 -104t-99 -32q-14 0 -26.5 1.5t-20.5 3.5v67q10 -2 19.5 -3t22.5 -1q34 0 58 19t42 59zM163 610q-21 0 -35.5 14t-14.5 35q0 20 14.5 34t35.5 14t35 -14t14 -34q0 -21 -14.5 -35t-34.5 -14z
M338 610q-21 0 -35 14t-14 35q0 20 14 34t35 14q22 0 35.5 -14t13.5 -34q0 -21 -14 -35t-35 -14z" />
    <glyph glyph-name="Amacron" unicode="&#x100;" horiz-adv-x="679" 
d="M4 0zM4 0l291 700h93l287 -700h-84l-88 220h-330l-89 -220h-80zM200 286h276l-137 342zM485 873v-53h-283v53h283z" />
    <glyph glyph-name="amacron" unicode="&#x101;" horiz-adv-x="516" 
d="M36 0zM221 -9q-82 0 -133.5 42t-51.5 109q0 70 54 111.5t146 41.5q40 0 77.5 -9t69.5 -25v66q0 60 -34 90.5t-99 30.5q-37 0 -74.5 -10.5t-82.5 -33.5l-28 57q54 26 100 38t92 12q95 0 146.5 -45t51.5 -129v-337h-72v49q-34 -29 -74.5 -43.5t-87.5 -14.5zM107 144
q0 -42 35.5 -68.5t91.5 -26.5q45 0 82 14t67 44v94q-31 21 -66.5 30.5t-78.5 9.5q-60 0 -95.5 -26.5t-35.5 -70.5zM394 674v-53h-283v53h283z" />
    <glyph glyph-name="Abreve" unicode="&#x102;" horiz-adv-x="679" 
d="M4 0zM4 0l291 700h93l287 -700h-84l-88 220h-330l-89 -220h-80zM200 286h276l-137 342zM340 840q38 0 64.5 22t37.5 65l52 -13q-13 -57 -54 -90t-100 -33q-60 0 -100.5 33t-53.5 90l52 13q10 -43 36 -65t66 -22z" />
    <glyph glyph-name="abreve" unicode="&#x103;" horiz-adv-x="516" 
d="M36 0zM221 -9q-82 0 -133.5 42t-51.5 109q0 70 54 111.5t146 41.5q40 0 77.5 -9t69.5 -25v66q0 60 -34 90.5t-99 30.5q-37 0 -74.5 -10.5t-82.5 -33.5l-28 57q54 26 100 38t92 12q95 0 146.5 -45t51.5 -129v-337h-72v49q-34 -29 -74.5 -43.5t-87.5 -14.5zM107 144
q0 -42 35.5 -68.5t91.5 -26.5q45 0 82 14t67 44v94q-31 21 -66.5 30.5t-78.5 9.5q-60 0 -95.5 -26.5t-35.5 -70.5zM249 641q38 0 64.5 22t37.5 65l52 -13q-13 -57 -54 -90t-100 -33q-60 0 -100.5 33t-53.5 90l52 13q10 -43 36 -65t66 -22z" />
    <glyph glyph-name="Aogonek" unicode="&#x104;" horiz-adv-x="679" 
d="M4 0l291 700h93l287 -699l1 -1q-54 -34 -80 -64t-26 -59q0 -25 15 -38.5t43 -13.5q13 0 25.5 3.5t22.5 10.5l15 -39q-16 -10 -34.5 -15.5t-39.5 -5.5q-44 0 -71 23.5t-27 62.5q0 35 23.5 67t75.5 68h-27l-88 220h-330l-89 -220h-80zM200 286h276l-137 342z" />
    <glyph glyph-name="aogonek" unicode="&#x105;" horiz-adv-x="516" 
d="M221 -9q-82 0 -133.5 42t-51.5 109q0 70 54 111.5t146 41.5q40 0 77.5 -9t69.5 -25v66q0 60 -34 90.5t-99 30.5q-37 0 -74.5 -10.5t-82.5 -33.5l-28 57q54 26 100 38t92 12q95 0 146.5 -45t51.5 -129v-337h1q-54 -34 -80 -64t-26 -59q0 -25 15 -38.5t43 -13.5
q13 0 25.5 3.5t22.5 10.5l15 -39q-16 -10 -34.5 -15.5t-39.5 -5.5q-44 0 -71 23.5t-27 62.5q0 35 23.5 67t75.5 68h-15v49q-34 -29 -74.5 -43.5t-87.5 -14.5zM107 144q0 -42 35.5 -68.5t91.5 -26.5q45 0 82 14t67 44v94q-31 21 -66.5 30.5t-78.5 9.5q-60 0 -95.5 -26.5
t-35.5 -70.5z" />
    <glyph glyph-name="Cacute" unicode="&#x106;" horiz-adv-x="722" 
d="M44 0zM409 60q65 0 124 25.5t99 70.5l50 -52q-52 -54 -124 -84.5t-151 -30.5q-76 0 -142.5 28t-115.5 76.5t-77 115t-28 141.5t28 141.5t77 115t115.5 76.5t142.5 28q81 0 153.5 -30.5t123.5 -84.5l-51 -54q-41 46 -101.5 72t-124.5 26q-60 0 -112.5 -22.5t-90.5 -61
t-60 -92t-22 -114.5t22 -114.5t60.5 -92t91 -61t113.5 -22.5zM443 915h95l-124 -116h-65z" />
    <glyph glyph-name="cacute" unicode="&#x107;" horiz-adv-x="513" 
d="M40 0zM297 58q40 0 77 16t69 47l46 -50q-40 -38 -90 -59t-104 -21q-53 0 -100 20t-81 55t-54 83t-20 102t20 101.5t54 82.5t81 55.5t100 20.5q54 0 105.5 -21t90.5 -58l-47 -54q-30 31 -69 48t-79 17q-38 0 -72 -15t-58.5 -41t-38.5 -61t-14 -75q0 -41 14.5 -76.5t39 -61
t58.5 -40.5t72 -15zM334 716h95l-124 -116h-65z" />
    <glyph glyph-name="Ccircumflex" unicode="&#x108;" horiz-adv-x="722" 
d="M44 0zM409 60q65 0 124 25.5t99 70.5l50 -52q-52 -54 -124 -84.5t-151 -30.5q-76 0 -142.5 28t-115.5 76.5t-77 115t-28 141.5t28 141.5t77 115t115.5 76.5t142.5 28q81 0 153.5 -30.5t123.5 -84.5l-51 -54q-41 46 -101.5 72t-124.5 26q-60 0 -112.5 -22.5t-90.5 -61
t-60 -92t-22 -114.5t22 -114.5t60.5 -92t91 -61t113.5 -22.5zM487 795l-84 80l-83 -80h-60l104 121h80l104 -121h-61z" />
    <glyph glyph-name="ccircumflex" unicode="&#x109;" horiz-adv-x="513" 
d="M40 0zM297 58q40 0 77 16t69 47l46 -50q-40 -38 -90 -59t-104 -21q-53 0 -100 20t-81 55t-54 83t-20 102t20 101.5t54 82.5t81 55.5t100 20.5q54 0 105.5 -21t90.5 -58l-47 -54q-30 31 -69 48t-79 17q-38 0 -72 -15t-58.5 -41t-38.5 -61t-14 -75q0 -41 14.5 -76.5t39 -61
t58.5 -40.5t72 -15zM377 596l-84 80l-83 -80h-60l104 121h80l104 -121h-61z" />
    <glyph glyph-name="Cdotaccent" unicode="&#x10a;" horiz-adv-x="722" 
d="M44 0zM409 60q65 0 124 25.5t99 70.5l50 -52q-52 -54 -124 -84.5t-151 -30.5q-76 0 -142.5 28t-115.5 76.5t-77 115t-28 141.5t28 141.5t77 115t115.5 76.5t142.5 28q81 0 153.5 -30.5t123.5 -84.5l-51 -54q-41 46 -101.5 72t-124.5 26q-60 0 -112.5 -22.5t-90.5 -61
t-60 -92t-22 -114.5t22 -114.5t60.5 -92t91 -61t113.5 -22.5zM403 801q-20 0 -34.5 14.5t-14.5 34.5t14.5 34.5t34.5 14.5q21 0 35.5 -14.5t14.5 -34.5t-14.5 -34.5t-35.5 -14.5z" />
    <glyph glyph-name="cdotaccent" unicode="&#x10b;" horiz-adv-x="513" 
d="M40 0zM297 58q40 0 77 16t69 47l46 -50q-40 -38 -90 -59t-104 -21q-53 0 -100 20t-81 55t-54 83t-20 102t20 101.5t54 82.5t81 55.5t100 20.5q54 0 105.5 -21t90.5 -58l-47 -54q-30 31 -69 48t-79 17q-38 0 -72 -15t-58.5 -41t-38.5 -61t-14 -75q0 -41 14.5 -76.5t39 -61
t58.5 -40.5t72 -15zM294 602q-20 0 -34.5 14.5t-14.5 34.5t14.5 34.5t34.5 14.5q21 0 35.5 -14.5t14.5 -34.5t-14.5 -34.5t-35.5 -14.5z" />
    <glyph glyph-name="Ccaron" unicode="&#x10c;" horiz-adv-x="722" 
d="M44 0zM409 60q65 0 124 25.5t99 70.5l50 -52q-52 -54 -124 -84.5t-151 -30.5q-76 0 -142.5 28t-115.5 76.5t-77 115t-28 141.5t28 141.5t77 115t115.5 76.5t142.5 28q81 0 153.5 -30.5t123.5 -84.5l-51 -54q-41 46 -101.5 72t-124.5 26q-60 0 -112.5 -22.5t-90.5 -61
t-60 -92t-22 -114.5t22 -114.5t60.5 -92t91 -61t113.5 -22.5zM321 917l82 -79l82 79h62l-104 -120h-80l-104 120h62z" />
    <glyph glyph-name="ccaron" unicode="&#x10d;" horiz-adv-x="513" 
d="M40 0zM297 58q40 0 77 16t69 47l46 -50q-40 -38 -90 -59t-104 -21q-53 0 -100 20t-81 55t-54 83t-20 102t20 101.5t54 82.5t81 55.5t100 20.5q54 0 105.5 -21t90.5 -58l-47 -54q-30 31 -69 48t-79 17q-38 0 -72 -15t-58.5 -41t-38.5 -61t-14 -75q0 -41 14.5 -76.5t39 -61
t58.5 -40.5t72 -15zM212 718l82 -79l82 79h62l-104 -120h-80l-104 120h62z" />
    <glyph glyph-name="Dcaron" unicode="&#x10e;" horiz-adv-x="720" 
d="M77 0zM77 0v700h231q79 0 147 -26.5t117 -72.5t76.5 -110.5t27.5 -140.5t-27.5 -140.5t-76 -110.5t-116.5 -72.5t-148 -26.5h-231zM312 630h-158v-560h158q60 0 113 21.5t91 59t60 89t22 110.5t-22 110.5t-60 89t-91 59t-113 21.5zM278 917l82 -79l82 79h62l-104 -120
h-80l-104 120h62z" />
    <glyph glyph-name="dcaron" unicode="&#x10f;" horiz-adv-x="647" 
d="M40 0zM454 0v53q-32 -30 -73.5 -45.5t-88.5 -15.5q-53 0 -99 20t-80 54.5t-53.5 82.5t-19.5 102t19.5 101.5t53.5 82t80.5 54.5t99.5 20q43 0 84.5 -14.5t75.5 -42.5v248l74 17v-717h-73zM113 252q0 -41 14.5 -77t39.5 -62t59 -41t73 -15q47 0 87.5 18.5t66.5 51.5v248
q-26 32 -67 50.5t-87 18.5q-78 0 -132 -55t-54 -137zM600 714h78l-28 -206h-55z" />
    <glyph glyph-name="Dcroat" unicode="&#x110;" horiz-adv-x="744" 
d="M100 0v317h-87v66h87v317h231q79 0 147 -26.5t117 -72.5t76.5 -110.5t27.5 -140.5t-27.5 -140.5t-76 -110.5t-116.5 -72.5t-148 -26.5h-231zM335 630h-158v-247h189v-66h-189v-247h158q60 0 113 21.5t91 59t60 89t22 110.5t-22 110.5t-60 89t-91 59t-113 21.5z" />
    <glyph glyph-name="dcroat" unicode="&#x111;" horiz-adv-x="589" 
d="M454 0v53q-32 -30 -73.5 -45.5t-88.5 -15.5q-53 0 -99 20t-80 54.5t-53.5 82.5t-19.5 102t19.5 101.5t53.5 82t80.5 54.5t99.5 20q43 0 84.5 -14.5t75.5 -42.5v134h-164v58h164v56l74 17v-73h62v-58h-62v-586h-73zM113 252q0 -41 14.5 -77t39.5 -62t59 -41t73 -15
q47 0 87.5 18.5t66.5 51.5v248q-26 32 -67 50.5t-87 18.5q-78 0 -132 -55t-54 -137z" />
    <glyph glyph-name="Emacron" unicode="&#x112;" horiz-adv-x="616" 
d="M77 0zM77 0v700h501v-68h-424v-245h277v-67h-277v-252h428v-68h-505zM486 873v-53h-283v53h283z" />
    <glyph glyph-name="emacron" unicode="&#x113;" horiz-adv-x="564" 
d="M40 0zM485 53q-42 -31 -87.5 -46.5t-99.5 -15.5t-101.5 20t-82 55t-54.5 82.5t-20 102.5q0 54 19.5 101t52.5 82t78.5 55t96.5 20q50 0 93.5 -20t75 -55t50 -82t18.5 -101v-23h-411q8 -74 61 -123t127 -49q39 0 76 12t62 34zM285 444q-65 0 -112.5 -44t-57.5 -113h335
q-10 66 -56.5 111.5t-108.5 45.5zM431 674v-53h-283v53h283z" />
    <glyph glyph-name="Ebreve" unicode="&#x114;" horiz-adv-x="616" 
d="M77 0zM77 0v700h501v-68h-424v-245h277v-67h-277v-252h428v-68h-505zM341 840q38 0 64.5 22t37.5 65l52 -13q-13 -57 -54 -90t-100 -33q-60 0 -100.5 33t-53.5 90l52 13q10 -43 36 -65t66 -22z" />
    <glyph glyph-name="ebreve" unicode="&#x115;" horiz-adv-x="564" 
d="M40 0zM485 53q-42 -31 -87.5 -46.5t-99.5 -15.5t-101.5 20t-82 55t-54.5 82.5t-20 102.5q0 54 19.5 101t52.5 82t78.5 55t96.5 20q50 0 93.5 -20t75 -55t50 -82t18.5 -101v-23h-411q8 -74 61 -123t127 -49q39 0 76 12t62 34zM285 444q-65 0 -112.5 -44t-57.5 -113h335
q-10 66 -56.5 111.5t-108.5 45.5zM286 641q38 0 64.5 22t37.5 65l52 -13q-13 -57 -54 -90t-100 -33q-60 0 -100.5 33t-53.5 90l52 13q10 -43 36 -65t66 -22z" />
    <glyph glyph-name="Edotaccent" unicode="&#x116;" horiz-adv-x="616" 
d="M77 0zM77 0v700h501v-68h-424v-245h277v-67h-277v-252h428v-68h-505zM340 801q-20 0 -34.5 14.5t-14.5 34.5t14.5 34.5t34.5 14.5q21 0 35.5 -14.5t14.5 -34.5t-14.5 -34.5t-35.5 -14.5z" />
    <glyph glyph-name="edotaccent" unicode="&#x117;" horiz-adv-x="564" 
d="M40 0zM485 53q-42 -31 -87.5 -46.5t-99.5 -15.5t-101.5 20t-82 55t-54.5 82.5t-20 102.5q0 54 19.5 101t52.5 82t78.5 55t96.5 20q50 0 93.5 -20t75 -55t50 -82t18.5 -101v-23h-411q8 -74 61 -123t127 -49q39 0 76 12t62 34zM285 444q-65 0 -112.5 -44t-57.5 -113h335
q-10 66 -56.5 111.5t-108.5 45.5zM286 602q-20 0 -34.5 14.5t-14.5 34.5t14.5 34.5t34.5 14.5q21 0 35.5 -14.5t14.5 -34.5t-14.5 -34.5t-35.5 -14.5z" />
    <glyph glyph-name="Eogonek" unicode="&#x118;" horiz-adv-x="616" 
d="M77 0v700h501v-68h-424v-245h277v-67h-277v-252h428v-68q-54 -34 -80 -64t-26 -59q0 -25 15 -38.5t43 -13.5q13 0 25.5 3.5t22.5 10.5l15 -39q-16 -10 -34.5 -15.5t-39.5 -5.5q-44 0 -71 23.5t-27 62.5q0 35 23.5 67t75.5 68h-447z" />
    <glyph glyph-name="eogonek" unicode="&#x119;" horiz-adv-x="564" 
d="M390 -200q-16 -10 -34.5 -15.5t-39.5 -5.5q-44 0 -71 23.5t-27 62.5q0 33 20.5 63t66.5 63h-7q-54 0 -101.5 20t-82 55t-54.5 82.5t-20 102.5q0 54 19.5 101t52.5 82t78.5 55t96.5 20q50 0 93.5 -20t75 -55t50 -82t18.5 -101v-23h-411q8 -74 61 -123t127 -49q39 0 76 12
t62 34l46 -49q-26 -19 -53.5 -32.5t-57.5 -20.5q-54 -34 -79.5 -64t-25.5 -59q0 -25 15 -38.5t43 -13.5q13 0 25.5 3.5t22.5 10.5zM285 444q-65 0 -112.5 -44t-57.5 -113h335q-10 66 -56.5 111.5t-108.5 45.5z" />
    <glyph glyph-name="Ecaron" unicode="&#x11a;" horiz-adv-x="616" 
d="M77 0zM77 0v700h501v-68h-424v-245h277v-67h-277v-252h428v-68h-505zM258 917l82 -79l82 79h62l-104 -120h-80l-104 120h62z" />
    <glyph glyph-name="ecaron" unicode="&#x11b;" horiz-adv-x="564" 
d="M40 0zM485 53q-42 -31 -87.5 -46.5t-99.5 -15.5t-101.5 20t-82 55t-54.5 82.5t-20 102.5q0 54 19.5 101t52.5 82t78.5 55t96.5 20q50 0 93.5 -20t75 -55t50 -82t18.5 -101v-23h-411q8 -74 61 -123t127 -49q39 0 76 12t62 34zM285 444q-65 0 -112.5 -44t-57.5 -113h335
q-10 66 -56.5 111.5t-108.5 45.5zM204 718l82 -79l82 79h62l-104 -120h-80l-104 120h62z" />
    <glyph glyph-name="Gcircumflex" unicode="&#x11c;" horiz-adv-x="788" 
d="M44 0zM746 335q0 -73 -26 -136.5t-72 -109.5t-108 -73t-134 -27q-75 0 -141.5 28.5t-115 77t-77 114.5t-28.5 141t28 141t76.5 114.5t115 77t141.5 28.5q81 0 153 -30.5t123 -84.5l-52 -53q-40 46 -100 71.5t-124 25.5q-60 0 -112 -22.5t-89.5 -61t-59.5 -92t-22 -114.5
t22 -114.5t59.5 -92t89.5 -61t112 -22.5q53 0 99.5 18t81 49.5t56.5 75.5t26 95h-251v68h329v-31zM488 795l-84 80l-83 -80h-60l104 121h80l104 -121h-61z" />
    <glyph glyph-name="gcircumflex" unicode="&#x11d;" horiz-adv-x="586" 
d="M40 0zM290 -4q-52 0 -97.5 20t-79.5 54.5t-53.5 81.5t-19.5 101t19.5 101t53.5 81.5t80 54.5t99 20q43 0 83.5 -15.5t74.5 -43.5v50h73v-513q0 -96 -56 -147.5t-160 -51.5q-52 0 -103 13.5t-93 38.5l32 58q45 -24 83.5 -35t77.5 -11q71 0 108 34t37 100v67
q-34 -28 -74.5 -43t-84.5 -15zM113 253q0 -40 14 -75.5t38.5 -61t58.5 -40.5t72 -15q48 0 88 18t65 51v246q-25 32 -65.5 50t-87.5 18q-39 0 -72.5 -14.5t-58 -40.5t-38.5 -61t-14 -75zM376 596l-84 80l-83 -80h-60l104 121h80l104 -121h-61z" />
    <glyph glyph-name="Gbreve" unicode="&#x11e;" horiz-adv-x="788" 
d="M44 0zM746 335q0 -73 -26 -136.5t-72 -109.5t-108 -73t-134 -27q-75 0 -141.5 28.5t-115 77t-77 114.5t-28.5 141t28 141t76.5 114.5t115 77t141.5 28.5q81 0 153 -30.5t123 -84.5l-52 -53q-40 46 -100 71.5t-124 25.5q-60 0 -112 -22.5t-89.5 -61t-59.5 -92t-22 -114.5
t22 -114.5t59.5 -92t89.5 -61t112 -22.5q53 0 99.5 18t81 49.5t56.5 75.5t26 95h-251v68h329v-31zM405 840q38 0 64.5 22t37.5 65l52 -13q-13 -57 -54 -90t-100 -33q-60 0 -100.5 33t-53.5 90l52 13q10 -43 36 -65t66 -22z" />
    <glyph glyph-name="gbreve" unicode="&#x11f;" horiz-adv-x="586" 
d="M40 0zM290 -4q-52 0 -97.5 20t-79.5 54.5t-53.5 81.5t-19.5 101t19.5 101t53.5 81.5t80 54.5t99 20q43 0 83.5 -15.5t74.5 -43.5v50h73v-513q0 -96 -56 -147.5t-160 -51.5q-52 0 -103 13.5t-93 38.5l32 58q45 -24 83.5 -35t77.5 -11q71 0 108 34t37 100v67
q-34 -28 -74.5 -43t-84.5 -15zM113 253q0 -40 14 -75.5t38.5 -61t58.5 -40.5t72 -15q48 0 88 18t65 51v246q-25 32 -65.5 50t-87.5 18q-39 0 -72.5 -14.5t-58 -40.5t-38.5 -61t-14 -75zM293 641q38 0 64.5 22t37.5 65l52 -13q-13 -57 -54 -90t-100 -33q-60 0 -100.5 33
t-53.5 90l52 13q10 -43 36 -65t66 -22z" />
    <glyph glyph-name="Gdotaccent" unicode="&#x120;" horiz-adv-x="788" 
d="M44 0zM746 335q0 -73 -26 -136.5t-72 -109.5t-108 -73t-134 -27q-75 0 -141.5 28.5t-115 77t-77 114.5t-28.5 141t28 141t76.5 114.5t115 77t141.5 28.5q81 0 153 -30.5t123 -84.5l-52 -53q-40 46 -100 71.5t-124 25.5q-60 0 -112 -22.5t-89.5 -61t-59.5 -92t-22 -114.5
t22 -114.5t59.5 -92t89.5 -61t112 -22.5q53 0 99.5 18t81 49.5t56.5 75.5t26 95h-251v68h329v-31zM404 801q-20 0 -34.5 14.5t-14.5 34.5t14.5 34.5t34.5 14.5q21 0 35.5 -14.5t14.5 -34.5t-14.5 -34.5t-35.5 -14.5z" />
    <glyph glyph-name="gdotaccent" unicode="&#x121;" horiz-adv-x="586" 
d="M40 0zM290 -4q-52 0 -97.5 20t-79.5 54.5t-53.5 81.5t-19.5 101t19.5 101t53.5 81.5t80 54.5t99 20q43 0 83.5 -15.5t74.5 -43.5v50h73v-513q0 -96 -56 -147.5t-160 -51.5q-52 0 -103 13.5t-93 38.5l32 58q45 -24 83.5 -35t77.5 -11q71 0 108 34t37 100v67
q-34 -28 -74.5 -43t-84.5 -15zM113 253q0 -40 14 -75.5t38.5 -61t58.5 -40.5t72 -15q48 0 88 18t65 51v246q-25 32 -65.5 50t-87.5 18q-39 0 -72.5 -14.5t-58 -40.5t-38.5 -61t-14 -75zM292 602q-20 0 -34.5 14.5t-14.5 34.5t14.5 34.5t34.5 14.5q21 0 35.5 -14.5
t14.5 -34.5t-14.5 -34.5t-35.5 -14.5z" />
    <glyph glyph-name="uni0122" unicode="&#x122;" horiz-adv-x="788" 
d="M44 0zM746 335q0 -73 -26 -136.5t-72 -109.5t-108 -73t-134 -27q-75 0 -141.5 28.5t-115 77t-77 114.5t-28.5 141t28 141t76.5 114.5t115 77t141.5 28.5q81 0 153 -30.5t123 -84.5l-52 -53q-40 46 -100 71.5t-124 25.5q-60 0 -112 -22.5t-89.5 -61t-59.5 -92t-22 -114.5
t22 -114.5t59.5 -92t89.5 -61t112 -22.5q53 0 99.5 18t81 49.5t56.5 75.5t26 95h-251v68h329v-31zM372 -85h74l-60 -179h-55z" />
    <glyph glyph-name="uni0123" unicode="&#x123;" horiz-adv-x="585" 
d="M320 608h-74l60 179h55zM290 -4q-52 0 -97.5 20t-79.5 54.5t-53.5 81.5t-19.5 101t19.5 101t53.5 81.5t80 54.5t99 20q43 0 83.5 -15.5t74.5 -43.5v50h73v-513q0 -96 -56 -147.5t-160 -51.5q-52 0 -103 13.5t-93 38.5l32 58q45 -24 83.5 -35t77.5 -11q71 0 108 34t37 100
v67q-34 -28 -74.5 -43t-84.5 -15zM113 253q0 -40 14 -75.5t38.5 -61t58.5 -40.5t72 -15q48 0 88 18t65 51v246q-25 32 -65.5 50t-87.5 18q-39 0 -72.5 -14.5t-58 -40.5t-38.5 -61t-14 -75z" />
    <glyph glyph-name="Hcircumflex" unicode="&#x124;" horiz-adv-x="715" 
d="M77 0zM77 0v700h77v-313h407v313h77v-700h-77v318h-407v-318h-77zM441 795l-84 80l-83 -80h-60l104 121h80l104 -121h-61z" />
    <glyph glyph-name="hcircumflex" unicode="&#x125;" 
d="M183 795l-84 80l-83 -80h-60l104 121h80l104 -121h-61zM63 0v700h74v-258q29 34 69 51.5t89 17.5q85 0 139 -54t54 -140v-317h-73v302q0 66 -38 105t-102 39q-45 0 -80.5 -20t-57.5 -57v-369h-74z" />
    <glyph glyph-name="Hbar" unicode="&#x126;" horiz-adv-x="727" 
d="M83 0v518h-68v66h68v116h77v-116h407v116h77v-116h68v-66h-68v-518h-77v318h-407v-318h-77zM160 387h407v131h-407v-131z" />
    <glyph glyph-name="hbar" unicode="&#x127;" 
d="M63 0v586h-63v58h63v56l74 17v-73h163v-58h-163v-144q29 34 69 51.5t89 17.5q85 0 139 -54t54 -140v-317h-73v302q0 66 -38 105t-102 39q-45 0 -80.5 -20t-57.5 -57v-369h-74z" />
    <glyph glyph-name="Itilde" unicode="&#x128;" horiz-adv-x="231" 
d="M0 0zM77 0v700h77v-700h-77zM4 793l-52 10q11 50 34 75t60 25q20 0 39.5 -8.5t37.5 -19t35 -19t33 -8.5q17 0 27.5 13t17.5 44l51 -10q-10 -50 -34 -75t-60 -25q-20 0 -39 8.5t-37.5 19t-35.5 19t-33 8.5q-18 0 -28 -13t-16 -44z" />
    <glyph glyph-name="itilde" unicode="&#x129;" horiz-adv-x="199" 
d="M0 0zM137 501v-501h-74v501h74zM-12 594l-52 10q11 50 34 75t60 25q20 0 39.5 -8.5t37.5 -19t35 -19t33 -8.5q17 0 27.5 13t17.5 44l51 -10q-10 -50 -34 -75t-60 -25q-20 0 -39 8.5t-37.5 19t-35.5 19t-33 8.5q-18 0 -28 -13t-16 -44z" />
    <glyph glyph-name="Imacron" unicode="&#x12a;" horiz-adv-x="231" 
d="M0 0zM77 0v700h77v-700h-77zM261 873v-53h-283v53h283z" />
    <glyph glyph-name="imacron" unicode="&#x12b;" horiz-adv-x="199" 
d="M0 0zM137 501v-501h-74v501h74zM245 674v-53h-283v53h283z" />
    <glyph glyph-name="Ibreve" unicode="&#x12c;" horiz-adv-x="231" 
d="M0 0zM77 0v700h77v-700h-77zM116 840q38 0 64.5 22t37.5 65l52 -13q-13 -57 -54 -90t-100 -33q-60 0 -100.5 33t-53.5 90l52 13q10 -43 36 -65t66 -22z" />
    <glyph glyph-name="ibreve" unicode="&#x12d;" horiz-adv-x="199" 
d="M0 0zM137 501v-501h-74v501h74zM100 641q38 0 64.5 22t37.5 65l52 -13q-13 -57 -54 -90t-100 -33q-60 0 -100.5 33t-53.5 90l52 13q10 -43 36 -65t66 -22z" />
    <glyph glyph-name="Iogonek" unicode="&#x12e;" horiz-adv-x="231" 
d="M77 0v700h77v-700q-54 -34 -80 -64t-26 -59q0 -25 15 -38.5t43 -13.5q13 0 25.5 3.5t22.5 10.5l15 -39q-16 -10 -34.5 -15.5t-39.5 -5.5q-44 0 -71 23.5t-27 62.5q0 35 23.5 67t75.5 68h-19z" />
    <glyph glyph-name="iogonek" unicode="&#x12f;" horiz-adv-x="200" 
d="M100 597q-20 0 -35 15t-15 35q0 21 15 35.5t35 14.5q21 0 35.5 -14.5t14.5 -35.5q0 -20 -14.5 -35t-35.5 -15zM137 0q-54 -34 -80 -64t-26 -59q0 -25 15 -38.5t43 -13.5q13 0 25.5 3.5t22.5 10.5l15 -39q-16 -10 -34.5 -15.5t-39.5 -5.5q-44 0 -71 23.5t-27 62.5
q0 35 23.5 67t75.5 68h-16v501h74v-501z" />
    <glyph glyph-name="Idotaccent" unicode="&#x130;" horiz-adv-x="231" 
d="M66 0zM77 0v700h77v-700h-77zM115 801q-20 0 -34.5 14.5t-14.5 34.5t14.5 34.5t34.5 14.5q21 0 35.5 -14.5t14.5 -34.5t-14.5 -34.5t-35.5 -14.5z" />
    <glyph glyph-name="dotlessi" unicode="&#x131;" horiz-adv-x="200" 
d="M137 501v-501h-74v501h74z" />
    <glyph glyph-name="IJ" unicode="&#x132;" horiz-adv-x="831" 
d="M77 0zM77 0v700h77v-700h-77zM768 264q0 -125 -72 -200t-194 -75q-90 0 -156.5 47t-97.5 132l70 29q27 -69 73.5 -103t111.5 -34q85 0 136.5 56t51.5 149v435h77v-436z" />
    <glyph glyph-name="ij" unicode="&#x133;" horiz-adv-x="396" 
d="M50 0zM100 597q-20 0 -35 15t-15 35q0 21 15 35.5t35 14.5q21 0 35.5 -14.5t14.5 -35.5q0 -20 -14.5 -35t-35.5 -15zM137 501v-501h-74v501h74zM298 597q-20 0 -35 15t-15 35q0 21 15 35.5t35 14.5q21 0 35.5 -14.5t14.5 -35.5q0 -20 -14.5 -35t-35.5 -15zM206 -208
q-14 0 -26 2t-20 4v62q9 -2 17.5 -3t19.5 -1q34 0 49 16t15 52v577h74v-583q0 -60 -34 -93t-95 -33z" />
    <glyph glyph-name="Jcircumflex" unicode="&#x134;" horiz-adv-x="600" 
d="M17 0zM537 264q0 -125 -72 -200t-194 -75q-90 0 -156.5 47t-97.5 132l70 29q27 -69 73.5 -103t111.5 -34q85 0 136.5 56t51.5 149v435h77v-436zM583 795l-84 80l-83 -80h-60l104 121h80l104 -121h-61z" />
    <glyph glyph-name="jcircumflex" unicode="&#x135;" horiz-adv-x="199" 
d="M0 0zM-38 -202v62q10 -2 18 -3t20 -1q34 0 48.5 16t14.5 52v577h74v-584q0 -59 -33 -92t-95 -33q-13 0 -25 2t-22 4zM183 596l-84 80l-83 -80h-60l104 121h80l104 -121h-61z" />
    <glyph glyph-name="uni0136" unicode="&#x136;" horiz-adv-x="617" 
d="M77 0zM77 0v700h77v-332l362 332h101l-380 -343l388 -357h-108l-363 336v-336h-77zM294 -85h74l-60 -179h-55z" />
    <glyph glyph-name="uni0137" unicode="&#x137;" horiz-adv-x="494" 
d="M63 0zM63 0v700l74 17v-442l262 226h90l-275 -238l288 -263h-101l-264 240v-240h-74zM211 -85h74l-60 -179h-55z" />
    <glyph glyph-name="kgreenlandic" unicode="&#x138;" horiz-adv-x="494" 
d="M63 0v501h74v-226l262 226h90l-275 -238l288 -263h-101l-264 240v-240h-74z" />
    <glyph glyph-name="Lacute" unicode="&#x139;" horiz-adv-x="604" 
d="M61 0zM77 0v700h77v-631h417v-69h-494zM155 915h95l-124 -116h-65z" />
    <glyph glyph-name="lacute" unicode="&#x13a;" horiz-adv-x="200" 
d="M140 915h95l-124 -116h-65zM63 0v700h74v-700h-74z" />
    <glyph glyph-name="uni013B" unicode="&#x13b;" horiz-adv-x="604" 
d="M77 0zM77 0v700h77v-631h417v-69h-494zM306 -85h74l-60 -179h-55z" />
    <glyph glyph-name="uni013C" unicode="&#x13c;" horiz-adv-x="200" 
d="M22 0zM137 717v-717h-74v700zM63 -85h74l-60 -179h-55z" />
    <glyph glyph-name="Lcaron" unicode="&#x13d;" horiz-adv-x="599" 
d="M77 0zM77 0v700h77v-631h417v-69h-494zM404 714h78l-28 -206h-55z" />
    <glyph glyph-name="lcaron" unicode="&#x13e;" horiz-adv-x="256" 
d="M63 0zM137 717v-717h-74v700zM209 714h78l-28 -206h-55z" />
    <glyph glyph-name="Ldot" unicode="&#x13f;" horiz-adv-x="599" 
d="M77 0zM77 0v700h77v-631h417v-69h-494zM408 306q-20 0 -34.5 14.5t-14.5 34.5t14.5 34.5t34.5 14.5q21 0 35.5 -14.5t14.5 -34.5t-14.5 -34.5t-35.5 -14.5z" />
    <glyph glyph-name="ldot" unicode="&#x140;" horiz-adv-x="295" 
d="M63 0zM137 717v-717h-74v700zM249 303q-20 0 -34.5 14.5t-14.5 34.5t14.5 34.5t34.5 14.5q21 0 35.5 -14.5t14.5 -34.5t-14.5 -34.5t-35.5 -14.5z" />
    <glyph glyph-name="Lslash" unicode="&#x141;" horiz-adv-x="613" 
d="M91 0v232l-80 -61v74l80 61v394h77v-336l200 151v-74l-200 -151v-221h417v-69h-494z" />
    <glyph glyph-name="lslash" unicode="&#x142;" horiz-adv-x="240" 
d="M9 328l75 61v311l74 17v-268l75 61v-75l-75 -61v-374h-74v315l-75 -61v74z" />
    <glyph glyph-name="Nacute" unicode="&#x143;" horiz-adv-x="725" 
d="M77 0zM77 700h77l421 -568v568h73v-700h-68l-430 583v-583h-73v700zM402 915h95l-124 -116h-65z" />
    <glyph glyph-name="nacute" unicode="&#x144;" 
d="M63 0zM63 0v501h74v-59q29 34 69 51.5t89 17.5q85 0 139 -54t54 -140v-317h-73v302q0 66 -38 105t-102 39q-45 0 -80.5 -20t-57.5 -57v-369h-74zM316 716h95l-124 -116h-65z" />
    <glyph glyph-name="uni0145" unicode="&#x145;" horiz-adv-x="725" 
d="M77 0zM77 700h77l421 -568v568h73v-700h-68l-430 583v-583h-73v700zM325 -85h74l-60 -179h-55z" />
    <glyph glyph-name="uni0146" unicode="&#x146;" 
d="M63 0zM63 0v501h74v-59q29 34 69 51.5t89 17.5q85 0 139 -54t54 -140v-317h-73v302q0 66 -38 105t-102 39q-45 0 -80.5 -20t-57.5 -57v-369h-74zM239 -85h74l-60 -179h-55z" />
    <glyph glyph-name="Ncaron" unicode="&#x147;" horiz-adv-x="725" 
d="M77 0zM77 700h77l421 -568v568h73v-700h-68l-430 583v-583h-73v700zM280 917l82 -79l82 79h62l-104 -120h-80l-104 120h62z" />
    <glyph glyph-name="ncaron" unicode="&#x148;" 
d="M63 0zM63 0v501h74v-59q29 34 69 51.5t89 17.5q85 0 139 -54t54 -140v-317h-73v302q0 66 -38 105t-102 39q-45 0 -80.5 -20t-57.5 -57v-369h-74zM194 718l82 -79l82 79h62l-104 -120h-80l-104 120h62z" />
    <glyph glyph-name="Eng" unicode="&#x14a;" horiz-adv-x="725" 
d="M575 0l-425 577v-577h-73v700h72l426 -576v576h73v-783q0 -60 -33.5 -92.5t-94.5 -32.5q-10 0 -24.5 2t-22.5 4v62q10 -2 18 -3t20 -1q34 0 49 16t15 52v76z" />
    <glyph glyph-name="eng" unicode="&#x14b;" 
d="M63 0v501h74v-59q29 34 69 51.5t89 17.5q85 0 139 -54t54 -140v-400q0 -59 -33 -92t-95 -33q-12 0 -24.5 2t-22.5 4v62q10 -2 18.5 -3t20.5 -1q33 0 48 16t15 52v378q0 66 -38 105t-102 39q-45 0 -80.5 -20t-57.5 -57v-369h-74z" />
    <glyph glyph-name="Omacron" unicode="&#x14c;" horiz-adv-x="809" 
d="M44 0zM765 350q0 -75 -28 -141.5t-76.5 -115t-114.5 -76.5t-141 -28t-141.5 28t-115 76.5t-76.5 115t-28 141.5t28 141.5t76.5 115t115 76.5t141.5 28t141 -28t114.5 -76.5t76.5 -115t28 -141.5zM687 350q0 61 -22 114.5t-59.5 92t-89.5 61t-111 22.5q-60 0 -112 -22.5
t-89.5 -61t-59.5 -92t-22 -114.5t22 -114t59.5 -92t89.5 -61.5t112 -22.5q59 0 111 22.5t89.5 61.5t59.5 92t22 114zM550 873v-53h-283v53h283z" />
    <glyph glyph-name="omacron" unicode="&#x14d;" horiz-adv-x="591" 
d="M40 0zM40 251q0 54 20 102t54.5 83t81.5 55t100 20t99.5 -20t81 -55t54.5 -83t20 -102q0 -55 -20 -103t-54.5 -83t-81 -55t-99.5 -20t-100 20t-81.5 55t-54.5 83t-20 103zM296 56q38 0 71.5 15t58 41.5t38.5 62t14 76.5t-14 76.5t-38.5 61.5t-58 41t-71.5 15t-71.5 -15
t-58 -41t-39 -61.5t-14.5 -76.5t14 -76.5t38.5 -62t58.5 -41.5t72 -15zM441 674v-53h-283v53h283z" />
    <glyph glyph-name="Obreve" unicode="&#x14e;" horiz-adv-x="809" 
d="M44 0zM765 350q0 -75 -28 -141.5t-76.5 -115t-114.5 -76.5t-141 -28t-141.5 28t-115 76.5t-76.5 115t-28 141.5t28 141.5t76.5 115t115 76.5t141.5 28t141 -28t114.5 -76.5t76.5 -115t28 -141.5zM687 350q0 61 -22 114.5t-59.5 92t-89.5 61t-111 22.5q-60 0 -112 -22.5
t-89.5 -61t-59.5 -92t-22 -114.5t22 -114t59.5 -92t89.5 -61.5t112 -22.5q59 0 111 22.5t89.5 61.5t59.5 92t22 114zM405 840q38 0 64.5 22t37.5 65l52 -13q-13 -57 -54 -90t-100 -33q-60 0 -100.5 33t-53.5 90l52 13q10 -43 36 -65t66 -22z" />
    <glyph glyph-name="obreve" unicode="&#x14f;" horiz-adv-x="591" 
d="M40 0zM40 251q0 54 20 102t54.5 83t81.5 55t100 20t99.5 -20t81 -55t54.5 -83t20 -102q0 -55 -20 -103t-54.5 -83t-81 -55t-99.5 -20t-100 20t-81.5 55t-54.5 83t-20 103zM296 56q38 0 71.5 15t58 41.5t38.5 62t14 76.5t-14 76.5t-38.5 61.5t-58 41t-71.5 15t-71.5 -15
t-58 -41t-39 -61.5t-14.5 -76.5t14 -76.5t38.5 -62t58.5 -41.5t72 -15zM296 641q38 0 64.5 22t37.5 65l52 -13q-13 -57 -54 -90t-100 -33q-60 0 -100.5 33t-53.5 90l52 13q10 -43 36 -65t66 -22z" />
    <glyph glyph-name="Ohungarumlaut" unicode="&#x150;" horiz-adv-x="809" 
d="M44 0zM765 350q0 -75 -28 -141.5t-76.5 -115t-114.5 -76.5t-141 -28t-141.5 28t-115 76.5t-76.5 115t-28 141.5t28 141.5t76.5 115t115 76.5t141.5 28t141 -28t114.5 -76.5t76.5 -115t28 -141.5zM687 350q0 61 -22 114.5t-59.5 92t-89.5 61t-111 22.5q-60 0 -112 -22.5
t-89.5 -61t-59.5 -92t-22 -114.5t22 -114t59.5 -92t89.5 -61.5t112 -22.5q59 0 111 22.5t89.5 61.5t59.5 92t22 114zM387 915h86l-127 -113h-63zM552 915h87l-130 -113h-61z" />
    <glyph glyph-name="ohungarumlaut" unicode="&#x151;" horiz-adv-x="591" 
d="M40 0zM40 251q0 54 20 102t54.5 83t81.5 55t100 20t99.5 -20t81 -55t54.5 -83t20 -102q0 -55 -20 -103t-54.5 -83t-81 -55t-99.5 -20t-100 20t-81.5 55t-54.5 83t-20 103zM296 56q38 0 71.5 15t58 41.5t38.5 62t14 76.5t-14 76.5t-38.5 61.5t-58 41t-71.5 15t-71.5 -15
t-58 -41t-39 -61.5t-14.5 -76.5t14 -76.5t38.5 -62t58.5 -41.5t72 -15zM278 716h86l-127 -113h-63zM443 716h87l-130 -113h-61z" />
    <glyph glyph-name="OE" unicode="&#x152;" horiz-adv-x="1085" 
d="M394 0q-73 0 -137 27.5t-111 74.5t-74 111t-27 137t27 137t74 111t111 74.5t137 27.5h656v-68h-455q60 -40 99 -105t47 -140h181v-67h-180q-7 -78 -45.5 -144t-100.5 -108h454v-68h-656zM394 70q57 0 107 21.5t86 59t57 89t21 110.5t-21 110.5t-57 89t-86 59t-107 21.5
t-106.5 -21.5t-86 -59t-57.5 -89t-21 -110.5t21 -110.5t57.5 -89t86 -59t106.5 -21.5z" />
    <glyph glyph-name="oe" unicode="&#x153;" horiz-adv-x="1003" 
d="M40 251q0 54 20 102t54.5 83t81.5 55t100 20q70 0 128 -35.5t90 -93.5q31 57 87 92t125 35q49 0 92.5 -20t75 -55t50 -82t18.5 -101v-23h-410q8 -74 61 -123t127 -49q39 0 75.5 12t62.5 34l46 -49q-42 -31 -88 -46.5t-99 -15.5q-72 0 -131.5 35.5t-91.5 93.5
q-32 -59 -90 -94.5t-128 -35.5q-53 0 -100 20t-81.5 55t-54.5 83t-20 103zM296 56q38 0 71.5 15t58 41.5t38.5 62t14 76.5t-14 76.5t-38.5 61.5t-58 41t-71.5 15t-71.5 -15t-58 -41t-39 -61.5t-14.5 -76.5t14 -76.5t38.5 -62t58.5 -41.5t72 -15zM723 444q-65 0 -112 -44
t-57 -113h335q-10 66 -57 111.5t-109 45.5z" />
    <glyph glyph-name="Racute" unicode="&#x154;" horiz-adv-x="645" 
d="M77 0zM77 0v700h300q102 0 165 -55.5t63 -145.5q0 -69 -40.5 -119t-108.5 -69l157 -311h-85l-150 301h-224v-301h-77zM372 631h-218v-265h218q70 0 113 36.5t43 96.5t-43 96t-113 36zM357 915h95l-124 -116h-65z" />
    <glyph glyph-name="racute" unicode="&#x155;" horiz-adv-x="346" 
d="M63 0zM63 0v501h74v-71q22 39 58 60.5t82 21.5q14 0 25 -1.5t22 -5.5v-68q-13 4 -26 6.5t-26 2.5q-46 0 -81 -26.5t-54 -76.5v-343h-74zM221 716h95l-124 -116h-65z" />
    <glyph glyph-name="uni0156" unicode="&#x156;" horiz-adv-x="645" 
d="M77 0zM77 0v700h300q102 0 165 -55.5t63 -145.5q0 -69 -40.5 -119t-108.5 -69l157 -311h-85l-150 301h-224v-301h-77zM372 631h-218v-265h218q70 0 113 36.5t43 96.5t-43 96t-113 36zM282 -85h74l-60 -179h-55z" />
    <glyph glyph-name="uni0157" unicode="&#x157;" horiz-adv-x="346" 
d="M22 0zM63 0v501h74v-71q22 39 58 60.5t82 21.5q14 0 25 -1.5t22 -5.5v-68q-13 4 -26 6.5t-26 2.5q-46 0 -81 -26.5t-54 -76.5v-343h-74zM63 -85h74l-60 -179h-55z" />
    <glyph glyph-name="Rcaron" unicode="&#x158;" horiz-adv-x="645" 
d="M77 0zM77 0v700h300q102 0 165 -55.5t63 -145.5q0 -69 -40.5 -119t-108.5 -69l157 -311h-85l-150 301h-224v-301h-77zM372 631h-218v-265h218q70 0 113 36.5t43 96.5t-43 96t-113 36zM235 917l82 -79l82 79h62l-104 -120h-80l-104 120h62z" />
    <glyph glyph-name="rcaron" unicode="&#x159;" horiz-adv-x="346" 
d="M37 0zM63 0v501h74v-71q22 39 58 60.5t82 21.5q14 0 25 -1.5t22 -5.5v-68q-13 4 -26 6.5t-26 2.5q-46 0 -81 -26.5t-54 -76.5v-343h-74zM99 718l82 -79l82 79h62l-104 -120h-80l-104 120h62z" />
    <glyph glyph-name="Sacute" unicode="&#x15a;" horiz-adv-x="600" 
d="M11 0zM11 120l51 53q54 -57 115.5 -86.5t129.5 -29.5q82 0 135 39t53 99q0 54 -37.5 83t-123.5 43l-101 16q-101 16 -149 59.5t-48 117.5q0 87 68 141t178 54q73 0 145 -24t131 -69l-44 -60q-57 43 -116 65t-119 22q-75 0 -121.5 -34.5t-46.5 -88.5q0 -49 33 -75t109 -38
l100 -16q114 -19 166.5 -65t52.5 -127q0 -46 -19.5 -84.5t-55 -66t-85 -43t-108.5 -15.5q-83 0 -159.5 33.5t-133.5 96.5zM321 916h95l-124 -116h-65z" />
    <glyph glyph-name="sacute" unicode="&#x15b;" horiz-adv-x="446" 
d="M12 0zM12 69l45 48q34 -32 76.5 -49.5t86.5 -17.5q60 0 98 25t38 65q0 32 -22.5 50.5t-70.5 25.5l-87 12q-75 11 -111.5 44.5t-36.5 90.5q0 63 53 104.5t135 41.5q54 0 102.5 -16t94.5 -50l-39 -50q-42 28 -81.5 42t-80.5 14q-51 0 -83.5 -23t-32.5 -60q0 -32 22 -49.5
t71 -24.5l87 -12q75 -10 112.5 -44.5t37.5 -91.5q0 -32 -15.5 -60.5t-43 -49t-64.5 -32t-80 -11.5q-62 0 -116.5 20.5t-94.5 57.5zM262 716h95l-124 -116h-65z" />
    <glyph glyph-name="Scircumflex" unicode="&#x15c;" horiz-adv-x="600" 
d="M11 0zM11 120l51 53q54 -57 115.5 -86.5t129.5 -29.5q82 0 135 39t53 99q0 54 -37.5 83t-123.5 43l-101 16q-101 16 -149 59.5t-48 117.5q0 87 68 141t178 54q73 0 145 -24t131 -69l-44 -60q-57 43 -116 65t-119 22q-75 0 -121.5 -34.5t-46.5 -88.5q0 -49 33 -75t109 -38
l100 -16q114 -19 166.5 -65t52.5 -127q0 -46 -19.5 -84.5t-55 -66t-85 -43t-108.5 -15.5q-83 0 -159.5 33.5t-133.5 96.5zM364 796l-84 80l-83 -80h-60l104 121h80l104 -121h-61z" />
    <glyph glyph-name="scircumflex" unicode="&#x15d;" horiz-adv-x="446" 
d="M12 0zM12 69l45 48q34 -32 76.5 -49.5t86.5 -17.5q60 0 98 25t38 65q0 32 -22.5 50.5t-70.5 25.5l-87 12q-75 11 -111.5 44.5t-36.5 90.5q0 63 53 104.5t135 41.5q54 0 102.5 -16t94.5 -50l-39 -50q-42 28 -81.5 42t-80.5 14q-51 0 -83.5 -23t-32.5 -60q0 -32 22 -49.5
t71 -24.5l87 -12q75 -10 112.5 -44.5t37.5 -91.5q0 -32 -15.5 -60.5t-43 -49t-64.5 -32t-80 -11.5q-62 0 -116.5 20.5t-94.5 57.5zM305 596l-84 80l-83 -80h-60l104 121h80l104 -121h-61z" />
    <glyph glyph-name="uni015E" unicode="&#x15e;" horiz-adv-x="600" 
d="M11 120l51 53q54 -57 115.5 -86.5t129.5 -29.5q82 0 135 39t53 99q0 54 -37.5 83t-123.5 43l-101 16q-101 16 -149 59.5t-48 117.5q0 87 68 141t178 54q73 0 145 -24t131 -69l-44 -60q-57 43 -116 65t-119 22q-75 0 -121.5 -34.5t-46.5 -88.5q0 -49 33 -75t109 -38
l100 -16q114 -19 166.5 -65t52.5 -127q0 -46 -19.5 -84.5t-55 -66t-84.5 -43t-107 -15.5l-12 -43q43 -2 69 -24t26 -58q0 -40 -32.5 -65.5t-82.5 -25.5q-33 0 -62 10.5t-51 30.5l30 32q19 -16 40 -24t43 -8q30 0 47 13.5t17 35.5t-18.5 34.5t-50.5 12.5h-29l23 81
q-72 7 -137 40t-115 88z" />
    <glyph glyph-name="uni015F" unicode="&#x15f;" horiz-adv-x="446" 
d="M12 69l45 48q34 -32 76.5 -49.5t86.5 -17.5q60 0 98 25t38 65q0 32 -22.5 50.5t-70.5 25.5l-87 12q-75 11 -111.5 44.5t-36.5 90.5q0 63 53 104.5t135 41.5q54 0 102.5 -16t94.5 -50l-39 -50q-42 28 -81.5 42t-80.5 14q-51 0 -83.5 -23t-32.5 -60q0 -32 22 -49.5
t71 -24.5l87 -12q75 -10 112.5 -44.5t37.5 -91.5q0 -61 -52 -104t-130 -48l-13 -47q43 -2 69 -24t26 -58q0 -40 -32.5 -65.5t-82.5 -25.5q-33 0 -62 10.5t-51 30.5l30 32q19 -16 40 -24t43 -8q30 0 47 13.5t17 35.5t-18.5 34.5t-50.5 12.5h-29l24 83q-55 3 -104 23t-85 54z
" />
    <glyph glyph-name="Scaron" unicode="&#x160;" horiz-adv-x="600" 
d="M11 0zM11 120l51 53q54 -57 115.5 -86.5t129.5 -29.5q82 0 135 39t53 99q0 54 -37.5 83t-123.5 43l-101 16q-101 16 -149 59.5t-48 117.5q0 87 68 141t178 54q73 0 145 -24t131 -69l-44 -60q-57 43 -116 65t-119 22q-75 0 -121.5 -34.5t-46.5 -88.5q0 -49 33 -75t109 -38
l100 -16q114 -19 166.5 -65t52.5 -127q0 -46 -19.5 -84.5t-55 -66t-85 -43t-108.5 -15.5q-83 0 -159.5 33.5t-133.5 96.5zM199 918l82 -79l82 79h62l-104 -120h-80l-104 120h62z" />
    <glyph glyph-name="scaron" unicode="&#x161;" horiz-adv-x="446" 
d="M12 0zM12 69l45 48q34 -32 76.5 -49.5t86.5 -17.5q60 0 98 25t38 65q0 32 -22.5 50.5t-70.5 25.5l-87 12q-75 11 -111.5 44.5t-36.5 90.5q0 63 53 104.5t135 41.5q54 0 102.5 -16t94.5 -50l-39 -50q-42 28 -81.5 42t-80.5 14q-51 0 -83.5 -23t-32.5 -60q0 -32 22 -49.5
t71 -24.5l87 -12q75 -10 112.5 -44.5t37.5 -91.5q0 -32 -15.5 -60.5t-43 -49t-64.5 -32t-80 -11.5q-62 0 -116.5 20.5t-94.5 57.5zM140 718l82 -79l82 79h62l-104 -120h-80l-104 120h62z" />
    <glyph glyph-name="uni0162" unicode="&#x162;" horiz-adv-x="617" 
d="M17 631v69h583v-69h-253v-631h-17l-15 -55q43 -2 69 -24t26 -58q0 -40 -32.5 -65.5t-82.5 -25.5q-33 0 -62 10.5t-51 30.5l30 32q19 -16 40 -24t43 -8q30 0 47 13.5t17 35.5t-18.5 34.5t-50.5 12.5h-29l26 91h-17v631h-253z" />
    <glyph glyph-name="uni0163" unicode="&#x163;" horiz-adv-x="365" 
d="M125 112v326h-108v63h108v127l73 19v-146h151v-63h-151v-307q0 -40 18 -57.5t59 -17.5q21 0 37.5 3t35.5 10v-65q-19 -7 -42.5 -10t-45.5 -3h-11l-13 -46q43 -2 69 -24t26 -58q0 -40 -32.5 -65.5t-82.5 -25.5q-33 0 -62 10.5t-51 30.5l30 32q19 -16 40 -24t43 -8
q30 0 47 13.5t17 35.5t-18.5 34.5t-50.5 12.5h-29l25 88q-40 11 -61 40t-21 75z" />
    <glyph glyph-name="Tcaron" unicode="&#x164;" horiz-adv-x="617" 
d="M17 0zM17 631v69h583v-69h-253v-631h-77v631h-253zM226 917l82 -79l82 79h62l-104 -120h-80l-104 120h62z" />
    <glyph glyph-name="tcaron" unicode="&#x165;" horiz-adv-x="367" 
d="M281 768l78 14l-25 -200h-59zM125 112v326h-108v63h108v127l73 19v-146h151v-63h-151v-307q0 -40 18 -57.5t59 -17.5q21 0 37.5 3t35.5 10v-65q-19 -7 -42.5 -10t-45.5 -3q-65 0 -100 31t-35 90z" />
    <glyph glyph-name="Tbar" unicode="&#x166;" horiz-adv-x="617" 
d="M121 372h149v259h-253v69h583v-69h-253v-259h149v-66h-149v-306h-77v306h-149v66z" />
    <glyph glyph-name="tbar" unicode="&#x167;" horiz-adv-x="371" 
d="M125 112v151h-108v59h108v116h-108v63h108v127l73 19v-146h151v-63h-151v-116h154v-59h-154v-132q0 -40 18 -57.5t59 -17.5q21 0 37.5 3t35.5 10v-65q-19 -7 -42.5 -10t-45.5 -3q-65 0 -100 31t-35 90z" />
    <glyph glyph-name="Utilde" unicode="&#x168;" horiz-adv-x="704" 
d="M63 0zM641 296q0 -140 -78.5 -223.5t-210.5 -83.5q-133 0 -211 83t-78 224v404h77v-404q0 -107 58 -171.5t154 -64.5t154 64.5t58 171.5v404h77v-404zM240 793l-52 10q11 50 34 75t60 25q20 0 39.5 -8.5t37.5 -19t35 -19t33 -8.5q17 0 27.5 13t17.5 44l51 -10
q-10 -50 -34 -75t-60 -25q-20 0 -39 8.5t-37.5 19t-35.5 19t-33 8.5q-18 0 -28 -13t-16 -44z" />
    <glyph glyph-name="utilde" unicode="&#x169;" 
d="M61 0zM134 501v-302q0 -66 38 -105t102 -39q45 0 80.5 20.5t57.5 57.5v368h74v-501h-74v58q-29 -34 -68.5 -51t-88.5 -17q-86 0 -140 54t-54 140v317h73zM164 594l-52 10q11 50 34 75t60 25q20 0 39.5 -8.5t37.5 -19t35 -19t33 -8.5q17 0 27.5 13t17.5 44l51 -10
q-10 -50 -34 -75t-60 -25q-20 0 -39 8.5t-37.5 19t-35.5 19t-33 8.5q-18 0 -28 -13t-16 -44z" />
    <glyph glyph-name="Umacron" unicode="&#x16a;" horiz-adv-x="704" 
d="M63 0zM641 296q0 -140 -78.5 -223.5t-210.5 -83.5q-133 0 -211 83t-78 224v404h77v-404q0 -107 58 -171.5t154 -64.5t154 64.5t58 171.5v404h77v-404zM497 873v-53h-283v53h283z" />
    <glyph glyph-name="umacron" unicode="&#x16b;" 
d="M61 0zM134 501v-302q0 -66 38 -105t102 -39q45 0 80.5 20.5t57.5 57.5v368h74v-501h-74v58q-29 -34 -68.5 -51t-88.5 -17q-86 0 -140 54t-54 140v317h73zM421 674v-53h-283v53h283z" />
    <glyph glyph-name="Ubreve" unicode="&#x16c;" horiz-adv-x="704" 
d="M63 0zM641 296q0 -140 -78.5 -223.5t-210.5 -83.5q-133 0 -211 83t-78 224v404h77v-404q0 -107 58 -171.5t154 -64.5t154 64.5t58 171.5v404h77v-404zM352 840q38 0 64.5 22t37.5 65l52 -13q-13 -57 -54 -90t-100 -33q-60 0 -100.5 33t-53.5 90l52 13q10 -43 36 -65
t66 -22z" />
    <glyph glyph-name="ubreve" unicode="&#x16d;" 
d="M61 0zM134 501v-302q0 -66 38 -105t102 -39q45 0 80.5 20.5t57.5 57.5v368h74v-501h-74v58q-29 -34 -68.5 -51t-88.5 -17q-86 0 -140 54t-54 140v317h73zM276 641q38 0 64.5 22t37.5 65l52 -13q-13 -57 -54 -90t-100 -33q-60 0 -100.5 33t-53.5 90l52 13q10 -43 36 -65
t66 -22z" />
    <glyph glyph-name="Uring" unicode="&#x16e;" horiz-adv-x="704" 
d="M63 0zM641 296q0 -140 -78.5 -223.5t-210.5 -83.5q-133 0 -211 83t-78 224v404h77v-404q0 -107 58 -171.5t154 -64.5t154 64.5t58 171.5v404h77v-404zM352 781q-47 0 -79.5 33t-32.5 79t32.5 78t79.5 32q46 0 78.5 -32t32.5 -78t-32.5 -79t-78.5 -33zM352 822
q28 0 48 20.5t20 50.5q0 28 -20 48.5t-48 20.5q-29 0 -49 -20t-20 -49q0 -31 20 -51t49 -20z" />
    <glyph glyph-name="uring" unicode="&#x16f;" 
d="M61 0zM134 501v-302q0 -66 38 -105t102 -39q45 0 80.5 20.5t57.5 57.5v368h74v-501h-74v58q-29 -34 -68.5 -51t-88.5 -17q-86 0 -140 54t-54 140v317h73zM276 582q-47 0 -79.5 33t-32.5 79t32.5 78t79.5 32q46 0 78.5 -32t32.5 -78t-32.5 -79t-78.5 -33zM276 623
q28 0 48 20.5t20 50.5q0 28 -20 48.5t-48 20.5q-29 0 -49 -20t-20 -49q0 -31 20 -51t49 -20z" />
    <glyph glyph-name="Uhungarumlaut" unicode="&#x170;" horiz-adv-x="704" 
d="M63 0zM641 296q0 -140 -78.5 -223.5t-210.5 -83.5q-133 0 -211 83t-78 224v404h77v-404q0 -107 58 -171.5t154 -64.5t154 64.5t58 171.5v404h77v-404zM334 915h86l-127 -113h-63zM499 915h87l-130 -113h-61z" />
    <glyph glyph-name="uhungarumlaut" unicode="&#x171;" 
d="M61 0zM134 501v-302q0 -66 38 -105t102 -39q45 0 80.5 20.5t57.5 57.5v368h74v-501h-74v58q-29 -34 -68.5 -51t-88.5 -17q-86 0 -140 54t-54 140v317h73zM257 716h86l-127 -113h-63zM422 716h87l-130 -113h-61z" />
    <glyph glyph-name="Uogonek" unicode="&#x172;" horiz-adv-x="704" 
d="M641 296q0 -119 -56.5 -198t-155.5 -101q-52 -34 -77 -63t-25 -57q0 -25 15 -38.5t43 -13.5q13 0 25.5 3.5t22.5 10.5l15 -39q-16 -10 -34.5 -15.5t-39.5 -5.5q-44 0 -71 23.5t-27 62.5q0 32 20 61.5t64 62.5h-8q-133 0 -211 83t-78 224v404h77v-404q0 -107 58 -171.5
t154 -64.5t154 64.5t58 171.5v404h77v-404z" />
    <glyph glyph-name="uogonek" unicode="&#x173;" 
d="M487 0q-54 -34 -80 -64t-26 -59q0 -25 15 -38.5t43 -13.5q13 0 25.5 3.5t22.5 10.5l15 -39q-16 -10 -34.5 -15.5t-39.5 -5.5q-44 0 -71 23.5t-27 62.5q0 35 23.5 67t75.5 68h-17v58q-29 -34 -68.5 -51t-88.5 -17q-86 0 -140 54t-54 140v317h73v-302q0 -66 38 -105
t102 -39q45 0 80.5 20.5t57.5 57.5v368h74v-501h1z" />
    <glyph glyph-name="Wcircumflex" unicode="&#x174;" horiz-adv-x="882" 
d="M35 0zM264 0h-78l-151 700h78l119 -578l173 578h75l173 -576l120 576h75l-151 -700h-78l-177 593zM524 795l-84 80l-83 -80h-60l104 121h80l104 -121h-61z" />
    <glyph glyph-name="wcircumflex" unicode="&#x175;" horiz-adv-x="703" 
d="M14 0zM227 0h-72l-141 501h73l108 -400l125 400h66l124 -400l109 400h70l-142 -501h-71l-124 401zM435 596l-84 80l-83 -80h-60l104 121h80l104 -121h-61z" />
    <glyph glyph-name="Ycircumflex" unicode="&#x176;" horiz-adv-x="639" 
d="M3 0zM281 0v285l-278 415h90l229 -347l228 347h87l-279 -418v-282h-77zM404 795l-84 80l-83 -80h-60l104 121h80l104 -121h-61z" />
    <glyph glyph-name="ycircumflex" unicode="&#x177;" horiz-adv-x="510" 
d="M5 0zM180 -65l29 66l-204 500h82l162 -411l175 411h80l-249 -576q-32 -72 -71 -104t-99 -32q-14 0 -26.5 1.5t-20.5 3.5v67q10 -2 19.5 -3t22.5 -1q34 0 58 19t42 59zM334 596l-84 80l-83 -80h-60l104 121h80l104 -121h-61z" />
    <glyph glyph-name="Ydieresis" unicode="&#x178;" horiz-adv-x="639" 
d="M3 0zM281 0v285l-278 415h90l229 -347l228 347h87l-279 -418v-282h-77zM233 809q-21 0 -35.5 14t-14.5 35q0 20 14.5 34t35.5 14t35 -14t14 -34q0 -21 -14.5 -35t-34.5 -14zM408 809q-21 0 -35 14t-14 35q0 20 14 34t35 14q22 0 35.5 -14t13.5 -34q0 -21 -14 -35t-35 -14
z" />
    <glyph glyph-name="Zacute" unicode="&#x179;" horiz-adv-x="604" 
d="M24 0zM24 0v55l445 577h-441v68h542v-55l-447 -577h455v-68h-554zM348 915h95l-124 -116h-65z" />
    <glyph glyph-name="zacute" unicode="&#x17a;" horiz-adv-x="463" 
d="M31 0zM31 0v58l302 377h-299v66h389v-57l-303 -378h306v-66h-395zM268 716h95l-124 -116h-65z" />
    <glyph glyph-name="Zdotaccent" unicode="&#x17b;" horiz-adv-x="604" 
d="M24 0zM24 0v55l445 577h-441v68h542v-55l-447 -577h455v-68h-554zM308 801q-20 0 -34.5 14.5t-14.5 34.5t14.5 34.5t34.5 14.5q21 0 35.5 -14.5t14.5 -34.5t-14.5 -34.5t-35.5 -14.5z" />
    <glyph glyph-name="zdotaccent" unicode="&#x17c;" horiz-adv-x="463" 
d="M31 0zM31 0v58l302 377h-299v66h389v-57l-303 -378h306v-66h-395zM228 602q-20 0 -34.5 14.5t-14.5 34.5t14.5 34.5t34.5 14.5q21 0 35.5 -14.5t14.5 -34.5t-14.5 -34.5t-35.5 -14.5z" />
    <glyph glyph-name="Zcaron" unicode="&#x17d;" horiz-adv-x="604" 
d="M24 0zM24 0v55l445 577h-441v68h542v-55l-447 -577h455v-68h-554zM226 917l82 -79l82 79h62l-104 -120h-80l-104 120h62z" />
    <glyph glyph-name="zcaron" unicode="&#x17e;" horiz-adv-x="463" 
d="M31 0zM31 0v58l302 377h-299v66h389v-57l-303 -378h306v-66h-395zM146 718l82 -79l82 79h62l-104 -120h-80l-104 120h62z" />
    <glyph glyph-name="uni0218" unicode="&#x218;" horiz-adv-x="600" 
d="M11 0zM11 120l51 53q54 -57 115.5 -86.5t129.5 -29.5q82 0 135 39t53 99q0 54 -37.5 83t-123.5 43l-101 16q-101 16 -149 59.5t-48 117.5q0 87 68 141t178 54q73 0 145 -24t131 -69l-44 -60q-57 43 -116 65t-119 22q-75 0 -121.5 -34.5t-46.5 -88.5q0 -49 33 -75t109 -38
l100 -16q114 -19 166.5 -65t52.5 -127q0 -46 -19.5 -84.5t-55 -66t-85 -43t-108.5 -15.5q-83 0 -159.5 33.5t-133.5 96.5zM251 -83h74l-60 -179h-55z" />
    <glyph glyph-name="uni0219" unicode="&#x219;" horiz-adv-x="446" 
d="M12 0zM12 69l45 48q34 -32 76.5 -49.5t86.5 -17.5q60 0 98 25t38 65q0 32 -22.5 50.5t-70.5 25.5l-87 12q-75 11 -111.5 44.5t-36.5 90.5q0 63 53 104.5t135 41.5q54 0 102.5 -16t94.5 -50l-39 -50q-42 28 -81.5 42t-80.5 14q-51 0 -83.5 -23t-32.5 -60q0 -32 22 -49.5
t71 -24.5l87 -12q75 -10 112.5 -44.5t37.5 -91.5q0 -32 -15.5 -60.5t-43 -49t-64.5 -32t-80 -11.5q-62 0 -116.5 20.5t-94.5 57.5zM187 -85h74l-60 -179h-55z" />
    <glyph glyph-name="uni021A" unicode="&#x21a;" horiz-adv-x="617" 
d="M17 0zM17 631v69h583v-69h-253v-631h-77v631h-253zM269 -85h74l-60 -179h-55z" />
    <glyph glyph-name="uni021B" unicode="&#x21b;" horiz-adv-x="365" 
d="M17 0zM125 112v326h-108v63h108v127l73 19v-146h151v-63h-151v-307q0 -40 18 -57.5t59 -17.5q21 0 37.5 3t35.5 10v-65q-19 -7 -42.5 -10t-45.5 -3q-65 0 -100 31t-35 90zM193 -85h74l-60 -179h-55z" />
    <glyph glyph-name="uni0237" unicode="&#x237;" horiz-adv-x="200" 
d="M-38 -202v62q10 -2 18 -3t20 -1q34 0 48.5 16t14.5 52v577h74v-584q0 -59 -33 -92t-95 -33q-13 0 -25 2t-22 4z" />
    <glyph glyph-name="uni02BB" unicode="&#x2bb;" horiz-adv-x="198" 
d="M109 508h-80l80 211h58z" />
    <glyph glyph-name="uni02BC" unicode="&#x2bc;" horiz-adv-x="198" 
d="M44 508zM102 719h80l-80 -211h-58z" />
    <glyph glyph-name="circumflex" unicode="&#x2c6;" horiz-adv-x="519" 
d="M343 596l-84 80l-83 -80h-60l104 121h80l104 -121h-61z" />
    <glyph glyph-name="caron" horiz-adv-x="519" 
d="M178 718l82 -79l82 79h62l-104 -120h-80l-104 120h62z" />
    <glyph glyph-name="breve" horiz-adv-x="519" 
d="M260 641q38 0 64.5 22t37.5 65l52 -13q-13 -57 -54 -90t-100 -33q-60 0 -100.5 33t-53.5 90l52 13q10 -43 36 -65t66 -22z" />
    <glyph glyph-name="dotaccent" horiz-adv-x="267" 
d="M134 602q-20 0 -34.5 14.5t-14.5 34.5t14.5 34.5t34.5 14.5q21 0 35.5 -14.5t14.5 -34.5t-14.5 -34.5t-35.5 -14.5z" />
    <glyph glyph-name="ring" unicode="&#x2da;" horiz-adv-x="519" 
d="M260 582q-47 0 -79.5 33t-32.5 79t32.5 78t79.5 32q46 0 78.5 -32t32.5 -78t-32.5 -79t-78.5 -33zM260 623q28 0 48 20.5t20 50.5q0 28 -20 48.5t-48 20.5q-29 0 -49 -20t-20 -49q0 -31 20 -51t49 -20z" />
    <glyph glyph-name="tilde" unicode="&#x2dc;" horiz-adv-x="519" 
d="M144 594l-52 10q11 50 34 75t60 25q20 0 39.5 -8.5t37.5 -19t35 -19t33 -8.5q17 0 27.5 13t17.5 44l51 -10q-10 -50 -34 -75t-60 -25q-20 0 -39 8.5t-37.5 19t-35.5 19t-33 8.5q-18 0 -28 -13t-16 -44z" />
    <glyph glyph-name="hungarumlaut" horiz-adv-x="528" 
d="M229 716h86l-127 -113h-63zM394 716h87l-130 -113h-61z" />
    <glyph glyph-name="Wgrave" unicode="&#x1e80;" horiz-adv-x="882" 
d="M35 0zM264 0h-78l-151 700h78l119 -578l173 578h75l173 -576l120 576h75l-151 -700h-78l-177 593zM403 915l92 -116h-65l-123 116h96z" />
    <glyph glyph-name="wgrave" unicode="&#x1e81;" horiz-adv-x="703" 
d="M14 0zM227 0h-72l-141 501h73l108 -400l125 400h66l124 -400l109 400h70l-142 -501h-71l-124 401zM311 716l92 -116h-65l-123 116h96z" />
    <glyph glyph-name="Wacute" unicode="&#x1e82;" horiz-adv-x="882" 
d="M35 0zM264 0h-78l-151 700h78l119 -578l173 578h75l173 -576l120 576h75l-151 -700h-78l-177 593zM483 915h95l-124 -116h-65z" />
    <glyph glyph-name="wacute" unicode="&#x1e83;" horiz-adv-x="703" 
d="M14 0zM227 0h-72l-141 501h73l108 -400l125 400h66l124 -400l109 400h70l-142 -501h-71l-124 401zM392 716h95l-124 -116h-65z" />
    <glyph glyph-name="Wdieresis" unicode="&#x1e84;" horiz-adv-x="882" 
d="M35 0zM264 0h-78l-151 700h78l119 -578l173 578h75l173 -576l120 576h75l-151 -700h-78l-177 593zM354 809q-21 0 -35.5 14t-14.5 35q0 20 14.5 34t35.5 14t35 -14t14 -34q0 -21 -14.5 -35t-34.5 -14zM529 809q-21 0 -35 14t-14 35q0 20 14 34t35 14q22 0 35.5 -14
t13.5 -34q0 -21 -14 -35t-35 -14z" />
    <glyph glyph-name="wdieresis" unicode="&#x1e85;" horiz-adv-x="703" 
d="M14 0zM227 0h-72l-141 501h73l108 -400l125 400h66l124 -400l109 400h70l-142 -501h-71l-124 401zM265 610q-21 0 -35.5 14t-14.5 35q0 20 14.5 34t35.5 14t35 -14t14 -34q0 -21 -14.5 -35t-34.5 -14zM440 610q-21 0 -35 14t-14 35q0 20 14 34t35 14q22 0 35.5 -14
t13.5 -34q0 -21 -14 -35t-35 -14z" />
    <glyph glyph-name="Ygrave" unicode="&#x1ef2;" horiz-adv-x="639" 
d="M3 0zM281 0v285l-278 415h90l229 -347l228 347h87l-279 -418v-282h-77zM280 915l92 -116h-65l-123 116h96z" />
    <glyph glyph-name="ygrave" unicode="&#x1ef3;" horiz-adv-x="510" 
d="M5 0zM180 -65l29 66l-204 500h82l162 -411l175 411h80l-249 -576q-32 -72 -71 -104t-99 -32q-14 0 -26.5 1.5t-20.5 3.5v67q10 -2 19.5 -3t22.5 -1q34 0 58 19t42 59zM210 716l92 -116h-65l-123 116h96z" />
    <glyph glyph-name="uni2002" unicode="&#x2002;" horiz-adv-x="500" 
 />
    <glyph glyph-name="uni2003" unicode="&#x2003;" horiz-adv-x="1000" 
 />
    <glyph glyph-name="uni2009" unicode="&#x2009;" horiz-adv-x="175" 
 />
    <glyph glyph-name="uni200A" unicode="&#x200a;" horiz-adv-x="100" 
 />
    <glyph glyph-name="uni200B" unicode="&#x200b;" horiz-adv-x="0" 
 />
    <glyph glyph-name="endash" unicode="&#x2013;" horiz-adv-x="547" 
d="M49 314h449v-66h-449v66z" />
    <glyph glyph-name="emdash" unicode="&#x2014;" horiz-adv-x="697" 
d="M49 314h599v-66h-599v66z" />
    <glyph glyph-name="uni2015" unicode="&#x2015;" horiz-adv-x="947" 
d="M49 314h849v-66h-849v66z" />
    <glyph glyph-name="quoteleft" unicode="&#x2018;" horiz-adv-x="198" 
d="M109 508h-80l80 211h58z" />
    <glyph glyph-name="quoteright" unicode="&#x2019;" horiz-adv-x="198" 
d="M44 508zM102 719h80l-80 -211h-58z" />
    <glyph glyph-name="quotesinglbase" unicode="&#x201a;" horiz-adv-x="198" 
d="M18 0zM76 74h80l-80 -211h-58z" />
    <glyph glyph-name="quotedblleft" unicode="&#x201c;" horiz-adv-x="333" 
d="M109 508h-80l80 211h58zM245 508h-80l80 211h58z" />
    <glyph glyph-name="quotedblright" unicode="&#x201d;" horiz-adv-x="333" 
d="M44 508zM238 719h80l-80 -211h-58zM102 719h80l-80 -211h-58z" />
    <glyph glyph-name="quotedblbase" unicode="&#x201e;" horiz-adv-x="333" 
d="M18 0zM212 74h80l-80 -211h-58zM76 74h80l-80 -211h-58z" />
    <glyph glyph-name="dagger" unicode="&#x2020;" horiz-adv-x="425" 
d="M180 0v442h-126v60h126v198h66v-198h126v-60h-126v-442h-66z" />
    <glyph glyph-name="daggerdbl" unicode="&#x2021;" horiz-adv-x="425" 
d="M180 0v198h-126v60h126v184h-126v60h126v198h66v-198h126v-60h-126v-184h126v-60h-126v-198h-66z" />
    <glyph glyph-name="bullet" unicode="&#x2022;" horiz-adv-x="328" 
d="M163 252q-41 0 -70.5 29.5t-29.5 70.5q0 42 29.5 72t70.5 30q42 0 72 -30t30 -72q0 -41 -29.5 -70.5t-72.5 -29.5z" />
    <glyph glyph-name="ellipsis" unicode="&#x2026;" horiz-adv-x="587" 
d="M48 0zM99 96q21 0 36 -15t15 -36t-15 -36t-36 -15t-36 15t-15 36t15 36t36 15zM294 96q21 0 36 -15t15 -36t-15 -36t-36 -15t-36 15t-15 36t15 36t36 15zM488 96q21 0 36 -15t15 -36t-15 -36t-36 -15t-36 15t-15 36t15 36t36 15z" />
    <glyph glyph-name="perthousand" unicode="&#x2030;" horiz-adv-x="1084" 
d="M27 0zM27 345zM176 345q-66 0 -107.5 50t-41.5 130t41.5 130t107.5 50q65 0 106 -50t42 -130q-1 -80 -42 -130t-106 -50zM176 391q44 0 70.5 36.5t26.5 97.5t-26.5 98t-70.5 37q-45 0 -71 -37t-27 -98q1 -61 27 -97.5t71 -36.5zM203 0h-61l393 700h62zM566 -5
q-66 0 -107.5 50t-41.5 130t41.5 130t107.5 50q65 0 106 -50t42 -130q-1 -80 -42 -130t-106 -50zM566 41q44 0 70.5 36.5t26.5 97.5t-26.5 98t-70.5 37q-45 0 -71 -37t-27 -98q1 -61 27 -97.5t71 -36.5zM910 -5q-66 0 -107.5 50t-41.5 130t41.5 130t107.5 50q65 0 106 -50
t42 -130q-1 -80 -42 -130t-106 -50zM910 41q44 0 70.5 36.5t26.5 97.5t-26.5 98t-70.5 37q-45 0 -71 -37t-27 -98q1 -61 27 -97.5t71 -36.5z" />
    <glyph glyph-name="uni2032" unicode="&#x2032;" horiz-adv-x="198" 
d="M44 508zM102 719h80l-80 -211h-58z" />
    <glyph glyph-name="uni2033" unicode="&#x2033;" horiz-adv-x="333" 
d="M44 508zM238 719h80l-80 -211h-58zM102 719h80l-80 -211h-58z" />
    <glyph glyph-name="guilsinglleft" unicode="&#x2039;" horiz-adv-x="389" 
d="M344 501l-228 -248l231 -253h-82l-234 251l234 250h79z" />
    <glyph glyph-name="guilsinglright" unicode="&#x203a;" horiz-adv-x="389" 
d="M45 0l228 248l-231 253h82l234 -251l-234 -250h-79z" />
    <glyph glyph-name="fraction" unicode="&#x2044;" horiz-adv-x="578" 
d="M91 0h-61l393 700h62z" />
    <glyph glyph-name="uni2070" horiz-adv-x="350" 
d="M27 345zM176 345q-66 0 -107.5 50t-41.5 130t41.5 130t107.5 50q65 0 106 -50t42 -130q-1 -80 -42 -130t-106 -50zM176 391q44 0 70.5 36.5t26.5 97.5t-26.5 98t-70.5 37q-45 0 -71 -37t-27 -98q1 -61 27 -97.5t71 -36.5z" />
    <glyph glyph-name="uni2074" unicode="&#x2074;" horiz-adv-x="330" 
d="M21 350zM271 700v-218h43v-44h-43v-88h-52v88h-198v42l192 220h58zM82 482h137v157z" />
    <glyph glyph-name="uni2075" horiz-adv-x="309" 
d="M20 345zM40 523l8 177h216v-45h-174l-4 -99q17 7 34.5 10t34.5 3q57 0 93 -30t36 -79q0 -51 -38.5 -83t-98.5 -32q-37 0 -69.5 12t-57.5 35l32 36q23 -21 46 -30t51 -9q37 0 59.5 19.5t22.5 50.5q0 29 -24.5 48.5t-61.5 19.5q-17 0 -35.5 -3.5t-37.5 -10.5z" />
    <glyph glyph-name="uni2076" horiz-adv-x="326" 
d="M27 345zM175 345q-66 0 -107 47.5t-41 122.5q0 85 46.5 137t123.5 52q23 0 48 -7.5t43 -20.5l-28 -39q-15 10 -32.5 15.5t-35.5 5.5q-51 0 -80.5 -35.5t-32.5 -99.5q19 21 46 33.5t55 12.5q53 0 87.5 -31t34.5 -78q0 -49 -36.5 -82t-90.5 -33zM171 527q-25 0 -48.5 -12
t-40.5 -34q7 -42 31.5 -66.5t60.5 -24.5q33 0 54.5 19.5t21.5 49.5t-22 49t-57 19z" />
    <glyph glyph-name="uni2077" horiz-adv-x="298" 
d="M16 350zM56 350l172 305h-212v45h271v-39l-170 -311h-61z" />
    <glyph glyph-name="uni2078" horiz-adv-x="327" 
d="M28 345zM164 345q-60 0 -98 28.5t-38 72.5q0 29 18.5 52.5t49.5 33.5q-25 11 -40 32.5t-15 46.5q0 40 35 67.5t87 27.5t87.5 -27.5t35.5 -67.5q0 -25 -15 -46.5t-40 -32.5q30 -10 48.5 -33.5t18.5 -52.5q0 -44 -38 -72.5t-96 -28.5zM164 553q30 0 50 15.5t20 39.5t-20 40
t-50 16q-31 0 -51.5 -16t-20.5 -40t20.5 -39.5t51.5 -15.5zM164 388q35 0 59 17.5t24 43.5q0 27 -24 44.5t-59 17.5q-37 0 -60.5 -17.5t-23.5 -44.5q0 -26 23.5 -43.5t60.5 -17.5z" />
    <glyph glyph-name="uni2079" horiz-adv-x="326" 
d="M24 345zM151 704q66 0 107 -47.5t41 -122.5q0 -85 -46.5 -137t-123.5 -52q-23 0 -48 7.5t-43 20.5l28 39q15 -10 32.5 -15.5t35.5 -5.5q51 0 80.5 35.5t32.5 99.5q-19 -21 -46 -33.5t-55 -12.5q-53 0 -87.5 31t-34.5 78q0 49 36.5 82t90.5 33zM155 522q25 0 48.5 12
t40.5 34q-7 42 -31.5 66.5t-60.5 24.5q-33 0 -54.5 -19.5t-21.5 -49.5t22 -49t57 -19z" />
    <glyph glyph-name="uni2080" horiz-adv-x="350" 
d="M176 -5q-66 0 -107.5 50t-41.5 130t41.5 130t107.5 50q65 0 106 -50t42 -130q-1 -80 -42 -130t-106 -50zM176 41q44 0 70.5 36.5t26.5 97.5t-26.5 98t-70.5 37q-45 0 -71 -37t-27 -98q1 -61 27 -97.5t71 -36.5z" />
    <glyph glyph-name="uni2081" horiz-adv-x="165" 
d="M135 350v-350h-52v296l-63 -26v45l82 35h33z" />
    <glyph glyph-name="uni2082" horiz-adv-x="291" 
d="M26 0v38l136 125q28 28 40 46.5t12 38.5q0 27 -20.5 44.5t-51.5 17.5q-25 0 -47 -10t-49 -33l-29 35q29 26 60.5 39.5t65.5 13.5q53 0 87.5 -29t34.5 -74q0 -31 -15 -56.5t-55 -62.5l-97 -89h172v-44h-244z" />
    <glyph glyph-name="uni2083" horiz-adv-x="313" 
d="M285 96q0 -44 -38 -72.5t-96 -28.5q-39 0 -73.5 13.5t-59.5 38.5l35 33q22 -22 44.5 -31t53.5 -9q37 0 59 16.5t22 43.5q0 24 -21.5 38.5t-56.5 14.5h-31v42h27q30 0 50 17.5t20 42.5q0 24 -20 39.5t-51 15.5q-28 0 -49 -10t-43 -32l-35 33q25 26 58.5 40.5t70.5 14.5
q52 0 87 -27.5t34 -69.5q1 -26 -14.5 -47.5t-42.5 -33.5q31 -10 50.5 -31.5t19.5 -50.5z" />
    <glyph glyph-name="uni2084" horiz-adv-x="330" 
d="M271 350v-218h43v-44h-43v-88h-52v88h-198v42l192 220h58zM82 132h137v157z" />
    <glyph glyph-name="uni2085" horiz-adv-x="309" 
d="M40 173l8 177h216v-45h-174l-4 -99q17 7 34.5 10t34.5 3q57 0 93 -30t36 -79q0 -51 -38.5 -83t-98.5 -32q-37 0 -69.5 12t-57.5 35l32 36q23 -21 46 -30t51 -9q37 0 59.5 19.5t22.5 50.5q0 29 -24.5 48.5t-61.5 19.5q-17 0 -35.5 -3.5t-37.5 -10.5z" />
    <glyph glyph-name="uni2086" horiz-adv-x="326" 
d="M175 -5q-66 0 -107 47.5t-41 122.5q0 85 46.5 137t123.5 52q23 0 48 -7.5t43 -20.5l-28 -39q-15 10 -32.5 15.5t-35.5 5.5q-51 0 -80.5 -35.5t-32.5 -99.5q19 21 46 33.5t55 12.5q53 0 87.5 -31t34.5 -78q0 -49 -36.5 -82t-90.5 -33zM171 177q-25 0 -48.5 -12t-40.5 -34
q7 -42 31.5 -66.5t60.5 -24.5q33 0 54.5 19.5t21.5 49.5t-22 49t-57 19z" />
    <glyph glyph-name="uni2087" horiz-adv-x="298" 
d="M56 0l172 305h-212v45h271v-39l-170 -311h-61z" />
    <glyph glyph-name="uni2088" horiz-adv-x="327" 
d="M164 -5q-60 0 -98 28.5t-38 72.5q0 29 18.5 52.5t49.5 33.5q-25 11 -40 32.5t-15 46.5q0 40 35 67.5t87 27.5t87.5 -27.5t35.5 -67.5q0 -25 -15 -46.5t-40 -32.5q30 -10 48.5 -33.5t18.5 -52.5q0 -44 -38 -72.5t-96 -28.5zM164 203q30 0 50 15.5t20 39.5t-20 40t-50 16
q-31 0 -51.5 -16t-20.5 -40t20.5 -39.5t51.5 -15.5zM164 38q35 0 59 17.5t24 43.5q0 27 -24 44.5t-59 17.5q-37 0 -60.5 -17.5t-23.5 -44.5q0 -26 23.5 -43.5t60.5 -17.5z" />
    <glyph glyph-name="uni2089" horiz-adv-x="326" 
d="M151 354q66 0 107 -47.5t41 -122.5q0 -85 -46.5 -137t-123.5 -52q-23 0 -48 7.5t-43 20.5l28 39q15 -10 32.5 -15.5t35.5 -5.5q51 0 80.5 35.5t32.5 99.5q-19 -21 -46 -33.5t-55 -12.5q-53 0 -87.5 31t-34.5 78q0 49 36.5 82t90.5 33zM155 172q25 0 48.5 12t40.5 34
q-7 42 -31.5 66.5t-60.5 24.5q-33 0 -54.5 -19.5t-21.5 -49.5t22 -49t57 -19z" />
    <glyph glyph-name="Euro" unicode="&#x20ac;" horiz-adv-x="775" 
d="M198 350q0 -10 0.5 -20t1.5 -20h245l-18 -51h-218q22 -93 90 -149t164 -56q65 0 121.5 26.5t91.5 75.5l51 -40q-46 -60 -114.5 -93.5t-149.5 -33.5q-125 0 -213.5 74.5t-114.5 195.5h-102v51h95q-1 10 -1.5 20t-0.5 20q0 11 0.5 22t1.5 21h-95v50h103q13 60 43 109.5
t72.5 84.5t97.5 54.5t117 19.5q83 0 150.5 -32t113.5 -93l-53 -41q-37 50 -92 76t-121 26q-96 0 -164 -55.5t-91 -148.5h283l-18 -50h-274q-1 -10 -1.5 -21t-0.5 -22z" />
    <glyph glyph-name="trademark" unicode="&#x2122;" horiz-adv-x="675" 
d="M324 700h55l88 -181l88 181h55v-279h-42l2 225l-103 -206l-102 203l1 -222h-42v279zM33 700h241v-38h-99v-241h-43v241h-99v38z" />
    <glyph glyph-name="uni2191" unicode="&#x2191;" horiz-adv-x="505" 
d="M216 0v609l-163 -215l-48 38l246 318l245 -318l-47 -37l-165 219v-614h-68z" />
    <glyph glyph-name="uni2193" unicode="&#x2193;" horiz-adv-x="505" 
d="M285 700v-609l163 215l48 -38l-246 -318l-245 318l47 37l165 -219v614h68z" />
    <glyph glyph-name="minus" unicode="&#x2212;" horiz-adv-x="525" 
d="M470 389v-62h-415v62h415z" />
    <glyph glyph-name="uni2215" unicode="&#x2215;" horiz-adv-x="578" 
d="M91 0h-61l393 700h62z" />
    <glyph glyph-name="uniFEFF" unicode="&#xfeff;" horiz-adv-x="0" 
 />
    <glyph glyph-name="uniFFFD" unicode="&#xfffd;" horiz-adv-x="990" 
d="M495 -145l-495 495l495 495l495 -495zM590 340q53 36 73.5 65.5t20.5 71.5q0 61 -52.5 102.5t-130.5 41.5q-69 0 -123.5 -35t-75.5 -92l98 -37q11 29 37.5 46t59.5 17q30 0 49.5 -14.5t19.5 -36.5q0 -12 -9.5 -25t-28.5 -26l-40 -30q-35 -27 -47 -56t-9 -81h101
q-1 28 7.5 44.5t30.5 31.5zM483 219q-29 0 -49.5 -21t-20.5 -49t20.5 -49t49.5 -21q28 0 48.5 21t20.5 49t-20.5 49t-48.5 21z" />
    <glyph glyph-name="idotaccent" horiz-adv-x="198" 
d="M50 0zM100 597q-20 0 -35 15t-15 35q0 21 15 35.5t35 14.5q21 0 35.5 -14.5t14.5 -35.5q0 -20 -14.5 -35t-35.5 -15zM137 501v-501h-74v501h74z" />
    <glyph glyph-name="caronSlovak" horiz-adv-x="465" 
d="M203 714h78l-28 -206h-55z" />
    <glyph glyph-name="uni00200326" horiz-adv-x="229" 
d="M72 -85h74l-60 -179h-55z" />
    <glyph glyph-name=".ttfautohint" horiz-adv-x="990" 
d="M0 0z" />
    </font>
</defs>
</svg>
