<svg xmlns="http://www.w3.org/2000/svg" xmlns:xlink="http://www.w3.org/1999/xlink" viewBox="0 0 173.801 22.926"><defs><linearGradient id="a" x1="-.245" y1=".5" x2="3.584" y2=".5" gradientUnits="objectBoundingBox"><stop offset="0" stop-color="#ff8f21"/><stop offset="1" stop-color="#ff005a"/></linearGradient><linearGradient id="b" x1="-.25" y1=".5" x2="3.602" y2=".5" xlink:href="#a"/><linearGradient id="c" x1="-1.464" y1=".5" x2="2.601" y2=".5" xlink:href="#a"/><linearGradient id="d" x1="-2.47" y1=".5" x2="1.386" y2=".5" xlink:href="#a"/></defs><path d="M60.058 22.611h-2.27l-4.446-15.8h2.3l3.406 12.614L62.99 6.811h2.081l3.91 12.614 3.437-12.614h2.208l-4.478 15.8H67.91L64 9.966zm29.516-1.672a10.15 10.15 0 0 1-2.759 1.466 9.684 9.684 0 0 1-3.138.489 8.166 8.166 0 0 1-3.2-.631 7.871 7.871 0 0 1-2.586-1.735 8.463 8.463 0 0 1-1.734-9.019 8.454 8.454 0 0 1 1.656-2.586 7.588 7.588 0 0 1 5.519-2.365 6.976 6.976 0 0 1 2.949.631 7.186 7.186 0 0 1 2.365 1.734 8.464 8.464 0 0 1 1.577 2.586 8.626 8.626 0 0 1 .583 3.185v.725H77.843a5.978 5.978 0 0 0 1.924 3.879 5.692 5.692 0 0 0 4 1.545 7.722 7.722 0 0 0 2.4-.378 5.475 5.475 0 0 0 1.955-1.072zm-6.307-12.33a5.046 5.046 0 0 0-3.548 1.388 5.834 5.834 0 0 0-1.813 3.563H88.47a6.057 6.057 0 0 0-1.782-3.516 4.741 4.741 0 0 0-3.421-1.435zM95.908 0v22.61h-2.333V.536zm10.883 20.781a6.053 6.053 0 0 0 2.428-.5 7.279 7.279 0 0 0 2.176-1.482l1.451 1.577a9.347 9.347 0 0 1-2.838 1.861 8.391 8.391 0 0 1-3.28.662 7.971 7.971 0 0 1-3.153-.631 7.73 7.73 0 0 1-2.554-1.734 8.4 8.4 0 0 1-2.334-5.834 8.156 8.156 0 0 1 .631-3.2 8.334 8.334 0 0 1 1.7-2.6 7.945 7.945 0 0 1 2.554-1.75 7.806 7.806 0 0 1 3.153-.646 8.736 8.736 0 0 1 3.327.662 9.1 9.1 0 0 1 2.854 1.829l-1.482 1.7a6.775 6.775 0 0 0-2.176-1.514 6.186 6.186 0 0 0-2.491-.536 5.561 5.561 0 0 0-2.27.473 5.619 5.619 0 0 0-1.845 1.293 6.043 6.043 0 0 0-1.214 1.924 6.574 6.574 0 0 0 .016 4.778 6.024 6.024 0 0 0 1.23 1.924 5.736 5.736 0 0 0 1.845 1.277 5.563 5.563 0 0 0 2.272.467zm6.97-6.089a8.27 8.27 0 0 1 .631-3.216 8.147 8.147 0 0 1 1.719-2.617 8.037 8.037 0 0 1 11.415 0 8.154 8.154 0 0 1 1.719 2.617 8.6 8.6 0 0 1 0 6.464 8.148 8.148 0 0 1-1.719 2.617 7.954 7.954 0 0 1-2.554 1.735 7.86 7.86 0 0 1-3.137.631 8.022 8.022 0 0 1-5.724-2.365 8.142 8.142 0 0 1-1.719-2.617 8.35 8.35 0 0 1-.631-3.249zm8.073 6.149a5.456 5.456 0 0 0 2.255-.473 5.557 5.557 0 0 0 1.829-1.309 6.2 6.2 0 0 0 1.214-1.955 6.811 6.811 0 0 0 0-4.825 6.023 6.023 0 0 0-1.214-1.939 5.675 5.675 0 0 0-1.829-1.293 5.61 5.61 0 0 0-4.509 0 5.662 5.662 0 0 0-1.829 1.293 6.222 6.222 0 0 0-1.23 1.939 6.318 6.318 0 0 0-.457 2.412 6.507 6.507 0 0 0 .441 2.412 6.183 6.183 0 0 0 1.214 1.955 5.5 5.5 0 0 0 1.845 1.309 5.563 5.563 0 0 0 2.27.477zm10.816 1.769V6.81h2.333v1.734a5.891 5.891 0 0 1 2.05-1.529 6.276 6.276 0 0 1 2.586-.52 5.692 5.692 0 0 1 2.948.773 5.422 5.422 0 0 1 2.034 2.1 6.366 6.366 0 0 1 2.349-2.16 6.592 6.592 0 0 1 3.075-.71 5.518 5.518 0 0 1 4.178 1.7 6.134 6.134 0 0 1 1.624 4.415v10h-2.3V13.09a4.774 4.774 0 0 0-1.1-3.311 3.823 3.823 0 0 0-3-1.23 4.412 4.412 0 0 0-2.365.662 5.564 5.564 0 0 0-1.829 1.924q.063.347.11.709a5.972 5.972 0 0 1 .047.773v10h-2.3v-9.523a4.774 4.774 0 0 0-1.1-3.311 3.786 3.786 0 0 0-2.964-1.23 4.539 4.539 0 0 0-2.286.584 5.052 5.052 0 0 0-1.75 1.719v11.762zm39.922-1.671a10.15 10.15 0 0 1-2.759 1.466 9.685 9.685 0 0 1-3.138.489 8.166 8.166 0 0 1-3.2-.631 7.868 7.868 0 0 1-2.586-1.735 8.463 8.463 0 0 1-1.734-9.019 8.455 8.455 0 0 1 1.656-2.586 7.588 7.588 0 0 1 5.519-2.365 6.974 6.974 0 0 1 2.948.631 7.187 7.187 0 0 1 2.365 1.734 8.467 8.467 0 0 1 1.577 2.586 8.625 8.625 0 0 1 .583 3.185v.725h-12.961a5.979 5.979 0 0 0 1.924 3.879 5.692 5.692 0 0 0 4 1.545 7.723 7.723 0 0 0 2.4-.378 5.475 5.475 0 0 0 1.955-1.072zm-6.307-12.33a5.046 5.046 0 0 0-3.548 1.388 5.835 5.835 0 0 0-1.813 3.563h10.56a6.058 6.058 0 0 0-1.782-3.516 4.741 4.741 0 0 0-3.418-1.435z" fill="#ffffff"/><path d="M249.317 576.033a4.007 4.007 0 0 1-3.942-3.286h-4.2a8.176 8.176 0 0 0 16.289 0h-4.2a4.007 4.007 0 0 1-3.947 3.286z" transform="translate(-241.172 -557.326)" fill="url(#a)"/><path d="M249.662 503.282a4.008 4.008 0 0 1 3.842 2.867h4.255a8.177 8.177 0 0 0-16.195 0h4.256a4.008 4.008 0 0 1 3.842-2.867z" transform="translate(-241.516 -492.59)" fill="url(#b)"/><path d="M393.957 515.17v-15.761h4.827v1.073a6.611 6.611 0 0 1 1.951-1.013 7.252 7.252 0 0 1 2.279-.358 6.073 6.073 0 0 1 4.528 1.788 6.232 6.232 0 0 1 1.758 4.559v9.712h-4.826v-9.057a2.711 2.711 0 0 0-2.861-2.86 3.891 3.891 0 0 0-1.638.328 3.218 3.218 0 0 0-1.192.924v10.665z" transform="translate(-375.492 -492.59)" fill="url(#c)"/><path d="M553.827 513.3a10.135 10.135 0 0 1-3.054 1.817 10.332 10.332 0 0 1-3.531.566 9.05 9.05 0 0 1-3.367-.626 8.121 8.121 0 0 1-4.544-4.335 7.777 7.777 0 0 1-.67-3.2 8.075 8.075 0 0 1 .641-3.2 8.165 8.165 0 0 1 1.743-2.607 7.973 7.973 0 0 1 2.607-1.728 8.328 8.328 0 0 1 3.233-.626 7.7 7.7 0 0 1 5.7 2.443 8.1 8.1 0 0 1 1.654 2.726 9.756 9.756 0 0 1 .6 3.441v1.192h-11.231a4.157 4.157 0 0 0 1.49 1.8 4.084 4.084 0 0 0 2.383.7 4.9 4.9 0 0 0 1.788-.313 3.927 3.927 0 0 0 1.371-.879zm-7.027-10.009a3.306 3.306 0 0 0-2.056.655 3.5 3.5 0 0 0-1.221 1.847h6.577a3.808 3.808 0 0 0-1.266-1.817 3.227 3.227 0 0 0-2.034-.685z" transform="translate(-502.708 -492.807)" fill="url(#d)"/></svg>
